<svg id="svg" version="1.1" xmlns="http://www.w3.org/2000/svg" xmlns:xlink="http://www.w3.org/1999/xlink" width="400" height="400" viewBox="0, 0, 400,400"><g id="svgg"><path id="path0" d="M34.832 6.300 C 34.814 6.575,34.350 6.800,33.800 6.800 C 33.250 6.800,32.800 6.980,32.800 7.200 C 32.800 7.420,32.206 7.600,31.480 7.600 C 30.754 7.600,29.989 7.764,29.780 7.965 C 29.571 8.166,28.950 8.391,28.400 8.465 C 27.850 8.539,27.268 8.780,27.106 9.000 C 26.924 9.248,26.810 9.210,26.806 8.900 C 26.796 8.084,26.111 8.331,25.875 9.236 C 25.709 9.869,25.455 10.008,24.828 9.809 C 24.249 9.625,24.000 9.722,24.000 10.130 C 24.000 10.714,23.150 11.225,22.267 11.172 C 22.010 11.156,22.160 10.978,22.600 10.775 C 23.393 10.410,23.393 10.408,22.605 10.508 C 22.167 10.564,21.741 10.967,21.658 11.405 C 21.510 12.185,20.917 12.782,20.276 12.794 C 20.098 12.797,20.067 12.575,20.206 12.300 C 20.345 12.025,20.203 12.112,19.890 12.494 C 19.577 12.875,19.189 13.055,19.027 12.894 C 18.866 12.732,18.793 12.789,18.867 13.019 C 19.024 13.516,13.641 19.046,13.142 18.900 C 12.954 18.845,12.800 19.070,12.800 19.400 C 12.800 19.730,12.607 20.000,12.371 20.000 C 12.135 20.000,12.003 20.315,12.078 20.700 C 12.239 21.525,11.222 22.861,10.686 22.529 C 10.472 22.397,10.429 22.661,10.584 23.150 C 10.784 23.780,10.685 24.000,10.200 24.000 C 9.737 24.000,9.617 24.224,9.790 24.768 C 9.964 25.317,9.801 25.609,9.217 25.795 C 8.768 25.937,8.400 26.232,8.400 26.451 C 8.400 26.669,8.580 26.736,8.800 26.600 C 9.020 26.464,9.200 26.543,9.200 26.776 C 9.200 27.009,9.059 27.200,8.887 27.200 C 8.715 27.200,8.535 27.677,8.487 28.260 C 8.439 28.842,8.182 29.580,7.918 29.899 C 7.653 30.219,7.476 31.002,7.524 31.640 C 7.573 32.278,7.430 32.800,7.206 32.800 C 6.961 32.800,6.800 34.237,6.800 36.424 C 6.800 38.659,6.652 39.955,6.413 39.808 C 5.823 39.443,5.853 85.141,6.443 85.852 C 7.075 86.613,392.759 86.681,393.520 85.920 C 394.181 85.259,394.217 40.581,393.557 40.174 C 393.249 39.983,393.279 39.796,393.657 39.556 C 394.057 39.303,394.068 39.211,393.700 39.206 C 393.018 39.198,393.018 35.340,393.700 35.065 C 394.100 34.904,394.100 34.857,393.700 34.832 C 393.425 34.814,393.200 34.350,393.200 33.800 C 393.200 33.250,393.017 32.800,392.794 32.800 C 392.570 32.800,392.431 32.229,392.484 31.530 C 392.539 30.806,392.370 30.190,392.090 30.097 C 391.821 30.007,391.600 29.408,391.600 28.767 C 391.600 28.125,391.420 27.600,391.200 27.600 C 390.613 27.600,390.711 26.405,391.300 26.373 C 391.575 26.358,391.392 26.149,390.893 25.909 C 390.265 25.606,390.058 25.246,390.220 24.736 C 390.376 24.245,390.254 24.000,389.854 24.000 C 389.233 24.000,388.596 22.653,388.948 22.084 C 389.057 21.907,388.982 21.500,388.780 21.181 C 388.528 20.782,388.410 20.757,388.406 21.100 C 388.403 21.375,388.236 21.600,388.035 21.600 C 387.835 21.600,387.716 21.295,387.770 20.922 C 387.825 20.549,387.209 19.604,386.402 18.822 C 385.594 18.040,384.819 17.085,384.679 16.700 C 384.539 16.315,384.231 16.000,383.994 16.000 C 383.429 16.000,381.600 14.162,381.600 13.595 C 381.600 13.352,381.432 13.256,381.227 13.383 C 381.022 13.510,380.598 13.246,380.283 12.798 C 379.924 12.284,379.469 12.075,379.056 12.234 C 378.681 12.378,378.400 12.287,378.400 12.022 C 378.400 11.767,377.860 11.370,377.200 11.140 C 376.540 10.910,376.000 10.457,376.000 10.134 C 376.000 9.736,375.752 9.625,375.232 9.790 C 374.683 9.964,374.391 9.801,374.205 9.217 C 373.941 8.383,373.200 8.076,373.200 8.800 C 373.200 9.020,373.009 9.200,372.776 9.200 C 372.543 9.200,372.464 9.020,372.600 8.800 C 372.833 8.423,372.029 8.222,370.891 8.372 C 370.611 8.409,370.126 8.183,369.814 7.871 C 369.486 7.543,368.813 7.385,368.223 7.498 C 367.620 7.613,367.200 7.510,367.200 7.247 C 367.200 6.955,366.089 6.800,364.000 6.800 C 362.133 6.800,360.800 6.633,360.800 6.400 C 360.800 6.134,306.933 6.000,200.000 6.000 C 93.067 6.000,39.200 6.134,39.200 6.400 C 39.200 6.995,35.307 6.901,35.065 6.300 C 34.904 5.900,34.857 5.900,34.832 6.300 M52.336 34.502 C 58.891 37.570,62.004 46.588,58.623 52.715 C 51.825 65.038,33.447 60.717,33.466 46.800 C 33.480 36.858,43.465 30.351,52.336 34.502 M105.600 34.274 C 114.375 38.248,116.255 50.104,109.136 56.581 C 97.421 67.243,80.154 52.767,88.614 39.376 C 92.083 33.886,99.694 31.599,105.600 34.274 M358.800 34.473 C 369.158 39.525,369.190 53.735,358.854 58.877 L 357.000 59.800 320.000 59.800 L 283.000 59.800 281.000 58.810 C 269.445 53.087,271.636 35.807,284.200 33.571 C 285.080 33.414,301.730 33.312,321.200 33.343 L 356.600 33.400 358.800 34.473 M158.539 34.556 C 166.264 37.972,168.960 47.726,163.997 54.304 C 157.153 63.376,143.758 60.968,140.584 50.096 C 137.571 39.774,148.652 30.184,158.539 34.556 M43.149 274.346 C 38.887 277.049,38.887 282.951,43.149 285.654 L 44.957 286.800 119.943 286.800 L 194.930 286.800 196.666 285.783 C 201.202 283.124,201.059 276.377,196.416 274.008 C 194.843 273.206,194.296 273.200,119.894 273.200 L 44.957 273.200 43.149 274.346 M217.400 273.795 C 211.761 276.444,211.811 283.123,217.495 286.300 C 218.920 287.097,267.383 287.017,269.303 286.215 C 274.643 283.984,274.675 276.030,269.353 273.806 C 267.263 272.933,219.258 272.922,217.400 273.795 M290.736 273.738 C 285.336 276.137,285.344 283.971,290.749 286.235 C 291.872 286.705,297.362 286.800,323.571 286.800 L 355.043 286.800 356.851 285.654 C 358.942 284.327,360.000 282.429,360.000 280.000 C 360.000 277.571,358.942 275.673,356.851 274.346 L 355.043 273.200 323.422 273.232 C 300.026 273.257,291.523 273.388,290.736 273.738 M45.200 306.682 C 38.155 308.020,38.461 318.210,45.600 319.988 C 49.169 320.877,87.481 320.362,89.374 319.400 C 94.419 316.837,94.719 309.943,89.902 307.311 C 88.639 306.622,48.494 306.057,45.200 306.682 M112.600 306.582 C 112.380 306.664,111.711 306.838,111.114 306.969 C 105.539 308.197,105.207 316.646,110.626 319.400 C 112.539 320.372,131.042 320.836,134.387 319.996 C 140.637 318.425,142.106 311.127,136.881 307.600 L 135.400 306.600 124.200 306.517 C 118.040 306.472,112.820 306.501,112.600 306.582 M157.874 306.980 C 151.325 309.315,151.842 317.974,158.646 319.927 C 159.863 320.277,170.659 320.400,200.000 320.400 C 229.341 320.400,240.137 320.277,241.354 319.927 C 248.507 317.874,248.518 308.441,241.369 306.783 C 238.625 306.146,159.688 306.332,157.874 306.980 M265.200 306.743 C 258.136 308.558,258.279 318.013,265.400 319.958 C 267.647 320.572,352.353 320.572,354.600 319.958 C 360.639 318.309,361.980 311.042,356.881 307.600 L 355.400 306.600 310.800 306.543 C 286.270 306.512,265.750 306.602,265.200 306.743 M43.800 340.565 C 39.064 342.670,38.676 349.401,43.119 352.400 L 44.600 353.400 86.600 353.400 C 133.039 353.400,130.032 353.565,131.923 350.906 C 134.558 347.201,133.499 342.643,129.520 340.564 C 127.958 339.748,45.636 339.749,43.800 340.565 M150.000 340.831 C 145.610 343.378,145.611 349.999,150.001 352.578 C 151.450 353.430,279.097 353.934,282.069 353.100 C 287.604 351.548,288.297 343.140,283.093 340.671 C 280.659 339.516,152.000 339.670,150.000 340.831 M303.801 340.625 C 298.947 343.176,298.590 349.343,303.119 352.400 L 304.600 353.400 330.063 353.400 L 355.526 353.400 357.063 352.172 C 360.985 349.037,360.978 343.961,357.046 341.025 C 355.523 339.888,305.913 339.516,303.801 340.625 " stroke="none" fill="#5b94cd" fill-rule="evenodd"></path><path id="path1" d="M35.200 6.400 C 35.200 6.620,36.100 6.800,37.200 6.800 C 38.300 6.800,39.200 6.620,39.200 6.400 C 39.200 6.180,38.300 6.000,37.200 6.000 C 36.100 6.000,35.200 6.180,35.200 6.400 M360.800 6.400 C 360.800 6.620,361.801 6.800,363.024 6.800 C 364.404 6.800,365.153 6.648,365.000 6.400 C 364.864 6.180,363.863 6.000,362.776 6.000 C 361.689 6.000,360.800 6.180,360.800 6.400 M30.800 7.287 C 30.800 7.459,31.250 7.600,31.800 7.600 C 32.350 7.600,32.800 7.422,32.800 7.204 C 32.800 6.987,32.350 6.846,31.800 6.892 C 31.250 6.937,30.800 7.115,30.800 7.287 M367.200 7.200 C 367.200 7.420,367.549 7.600,367.976 7.600 C 368.403 7.600,368.864 7.420,369.000 7.200 C 369.140 6.973,368.804 6.800,368.224 6.800 C 367.661 6.800,367.200 6.980,367.200 7.200 M28.400 8.000 C 28.400 8.220,28.659 8.400,28.976 8.400 C 29.293 8.400,29.664 8.220,29.800 8.000 C 29.936 7.780,29.677 7.600,29.224 7.600 C 28.771 7.600,28.400 7.780,28.400 8.000 M370.000 8.000 C 370.000 8.220,370.259 8.400,370.576 8.400 C 370.893 8.400,371.264 8.220,371.400 8.000 C 371.536 7.780,371.277 7.600,370.824 7.600 C 370.371 7.600,370.000 7.780,370.000 8.000 M24.800 9.500 C 24.800 9.812,25.014 9.995,25.275 9.908 C 26.000 9.667,26.103 8.933,25.411 8.933 C 25.075 8.933,24.800 9.188,24.800 9.500 M374.281 9.467 C 374.393 9.760,374.646 10.000,374.843 10.000 C 375.039 10.000,375.200 9.760,375.200 9.467 C 375.200 9.173,374.947 8.933,374.638 8.933 C 374.329 8.933,374.168 9.173,374.281 9.467 M23.370 10.052 C 23.167 10.399,22.730 10.785,22.400 10.910 C 21.867 11.112,21.867 11.140,22.400 11.162 C 23.310 11.201,24.119 10.558,23.919 9.957 C 23.779 9.538,23.659 9.558,23.370 10.052 M376.000 10.130 C 376.000 10.496,376.444 10.896,377.005 11.037 C 377.558 11.176,378.174 11.583,378.375 11.941 C 378.576 12.300,378.862 12.471,379.011 12.323 C 379.160 12.174,379.022 11.681,378.705 11.228 C 378.388 10.776,378.010 10.523,377.867 10.667 C 377.723 10.811,377.244 10.602,376.802 10.202 C 376.089 9.556,376.000 9.548,376.000 10.130 M20.457 12.058 C 19.982 12.818,19.998 12.886,20.593 12.658 C 20.963 12.516,21.341 12.400,21.433 12.400 C 21.525 12.400,21.600 12.130,21.600 11.800 C 21.600 10.942,21.080 11.059,20.457 12.058 M380.000 12.351 C 380.000 12.986,381.105 13.677,381.388 13.219 C 381.531 12.989,381.356 12.800,381.000 12.800 C 380.644 12.800,380.464 12.620,380.600 12.400 C 380.736 12.180,380.657 12.000,380.424 12.000 C 380.191 12.000,380.000 12.158,380.000 12.351 M19.200 12.757 C 19.200 13.027,19.065 13.185,18.900 13.108 C 18.523 12.933,12.835 18.702,13.112 18.979 C 13.224 19.090,14.755 17.742,16.515 15.982 C 18.275 14.222,19.599 12.666,19.458 12.524 C 19.316 12.383,19.200 12.487,19.200 12.757 M381.600 13.748 C 381.600 14.239,383.634 16.099,383.891 15.842 C 384.024 15.709,384.058 15.555,383.967 15.500 C 383.875 15.445,383.305 14.964,382.700 14.430 C 382.095 13.897,381.600 13.590,381.600 13.748 M384.800 16.970 C 384.800 17.470,387.471 19.996,387.728 19.739 C 387.856 19.610,387.737 19.301,387.463 19.052 C 385.290 17.082,384.800 16.699,384.800 16.970 M11.043 21.433 C 10.585 22.626,10.800 22.940,11.549 22.170 C 11.961 21.746,12.220 21.265,12.125 21.100 C 11.837 20.598,11.300 20.763,11.043 21.433 M388.998 22.004 C 388.585 22.672,389.207 24.001,389.927 23.987 C 390.523 23.976,390.514 23.910,389.850 23.406 C 389.417 23.079,389.200 22.577,389.337 22.219 C 389.604 21.525,389.381 21.384,388.998 22.004 M8.933 25.362 C 8.933 25.671,9.173 25.832,9.467 25.719 C 9.760 25.607,10.000 25.354,10.000 25.157 C 10.000 24.961,9.760 24.800,9.467 24.800 C 9.173 24.800,8.933 25.053,8.933 25.362 M390.000 25.157 C 390.000 25.354,390.240 25.607,390.533 25.719 C 390.827 25.832,391.067 25.671,391.067 25.362 C 391.067 25.053,390.827 24.800,390.533 24.800 C 390.240 24.800,390.000 24.961,390.000 25.157 M390.800 27.000 C 390.800 27.330,390.980 27.600,391.200 27.600 C 391.420 27.600,391.600 27.330,391.600 27.000 C 391.600 26.670,391.420 26.400,391.200 26.400 C 390.980 26.400,390.800 26.670,390.800 27.000 M7.600 29.224 C 7.600 29.677,7.780 29.936,8.000 29.800 C 8.220 29.664,8.400 29.293,8.400 28.976 C 8.400 28.659,8.220 28.400,8.000 28.400 C 7.780 28.400,7.600 28.771,7.600 29.224 M391.600 29.200 C 391.600 29.640,391.780 30.000,392.000 30.000 C 392.220 30.000,392.400 29.640,392.400 29.200 C 392.400 28.760,392.220 28.400,392.000 28.400 C 391.780 28.400,391.600 28.760,391.600 29.200 M6.800 31.776 C 6.800 32.339,6.980 32.800,7.200 32.800 C 7.420 32.800,7.600 32.451,7.600 32.024 C 7.600 31.597,7.420 31.136,7.200 31.000 C 6.973 30.860,6.800 31.196,6.800 31.776 M392.667 31.067 C 392.252 31.482,392.353 32.800,392.800 32.800 C 393.020 32.800,393.200 32.350,393.200 31.800 C 393.200 30.753,393.108 30.626,392.667 31.067 M95.361 33.907 C 85.870 37.298,83.394 49.783,90.864 56.581 C 101.865 66.593,118.474 54.389,112.235 40.877 C 109.395 34.727,101.823 31.599,95.361 33.907 M103.115 34.172 C 109.680 35.920,114.178 42.680,112.796 48.723 C 109.497 63.148,90.503 63.148,87.204 48.723 C 85.242 40.144,94.329 31.834,103.115 34.172 M6.355 35.000 C 5.957 35.648,6.077 40.483,6.481 40.079 C 6.679 39.881,6.787 38.567,6.721 37.159 C 6.654 35.752,6.490 34.780,6.355 35.000 M393.200 37.200 C 393.200 38.300,393.341 39.200,393.513 39.200 C 393.685 39.200,393.859 38.300,393.899 37.200 C 393.940 36.100,393.799 35.200,393.587 35.200 C 393.374 35.200,393.200 36.100,393.200 37.200 M6.000 225.096 C 6.000 317.769,6.135 364.836,6.400 365.000 C 6.620 365.136,6.800 366.147,6.800 367.247 C 6.800 368.479,6.954 369.152,7.200 369.000 C 7.438 368.853,7.600 369.329,7.600 370.176 C 7.600 370.959,7.780 371.600,8.000 371.600 C 8.220 371.600,8.401 372.005,8.402 372.500 C 8.404 372.995,8.674 373.916,9.002 374.546 C 9.331 375.176,9.600 375.941,9.600 376.246 C 9.600 376.551,9.780 376.800,10.000 376.800 C 10.220 376.800,10.400 377.036,10.400 377.325 C 10.400 377.613,10.760 378.236,11.200 378.708 C 11.640 379.180,12.000 379.754,12.000 379.983 C 12.000 380.212,12.180 380.400,12.400 380.400 C 12.620 380.400,12.800 380.588,12.800 380.818 C 12.800 381.329,18.716 387.200,19.231 387.200 C 19.434 387.200,19.600 387.380,19.600 387.600 C 19.600 387.820,19.788 388.000,20.017 388.000 C 20.246 388.000,20.820 388.360,21.292 388.800 C 21.764 389.240,22.387 389.600,22.675 389.600 C 22.964 389.600,23.200 389.780,23.200 390.000 C 23.200 390.220,23.449 390.400,23.754 390.400 C 24.059 390.400,24.824 390.669,25.454 390.998 C 26.084 391.326,27.005 391.596,27.500 391.598 C 27.995 391.599,28.400 391.780,28.400 392.000 C 28.400 392.220,29.041 392.400,29.824 392.400 C 30.671 392.400,31.147 392.562,31.000 392.800 C 30.848 393.046,31.521 393.200,32.753 393.200 C 33.853 393.200,34.864 393.380,35.000 393.600 C 35.164 393.866,90.596 394.000,200.000 394.000 C 309.404 394.000,364.836 393.866,365.000 393.600 C 365.136 393.380,366.036 393.200,367.000 393.200 C 367.964 393.200,368.864 393.020,369.000 392.800 C 369.136 392.580,369.777 392.400,370.424 392.400 C 371.071 392.400,371.600 392.220,371.600 392.000 C 371.600 391.780,372.008 391.600,372.506 391.600 C 373.004 391.600,374.064 391.250,374.862 390.823 C 375.660 390.395,376.422 390.155,376.556 390.289 C 376.690 390.424,376.800 390.323,376.800 390.067 C 376.800 389.810,377.036 389.600,377.325 389.600 C 377.613 389.600,378.236 389.240,378.708 388.800 C 379.180 388.360,379.750 388.000,379.973 388.000 C 380.483 388.000,388.000 380.453,388.000 379.942 C 388.000 379.736,388.360 379.180,388.800 378.708 C 389.240 378.236,389.600 377.613,389.600 377.325 C 389.600 377.036,389.810 376.800,390.067 376.800 C 390.323 376.800,390.424 376.690,390.289 376.556 C 390.155 376.422,390.395 375.660,390.823 374.862 C 391.250 374.064,391.600 373.004,391.600 372.506 C 391.600 372.008,391.780 371.600,392.000 371.600 C 392.220 371.600,392.400 370.959,392.400 370.176 C 392.400 369.329,392.562 368.853,392.800 369.000 C 393.046 369.152,393.200 368.479,393.200 367.247 C 393.200 366.147,393.380 365.136,393.600 365.000 C 393.865 364.836,394.000 317.769,394.000 225.096 C 394.000 116.475,393.893 85.547,393.520 85.920 C 392.820 86.620,7.180 86.620,6.480 85.920 C 6.107 85.547,6.000 116.475,6.000 225.096 M56.458 134.100 C 61.069 136.529,123.698 174.457,124.664 175.407 C 127.226 177.923,127.231 181.944,124.676 184.581 C 123.097 186.210,56.285 226.220,54.533 226.585 C 49.307 227.674,44.988 221.755,47.433 216.854 C 47.965 215.788,52.204 212.400,53.006 212.400 C 53.143 212.400,54.041 211.860,55.000 211.200 C 55.959 210.540,56.822 210.000,56.918 210.000 C 57.014 210.000,60.201 208.110,64.000 205.800 C 67.799 203.490,70.986 201.600,71.082 201.600 C 71.178 201.600,72.041 201.060,73.000 200.400 C 73.959 199.740,74.859 199.200,75.000 199.200 C 75.141 199.200,76.008 198.687,76.928 198.059 C 77.848 197.432,78.783 196.847,79.006 196.759 C 79.229 196.672,85.079 193.181,92.006 189.002 C 98.933 184.823,104.946 181.223,105.368 181.002 C 105.791 180.781,106.203 180.400,106.283 180.155 C 106.400 179.800,98.966 175.050,91.000 170.390 C 90.340 170.004,83.590 165.953,76.000 161.389 C 68.410 156.824,61.604 152.751,60.874 152.337 C 60.145 151.923,59.094 151.287,58.538 150.923 C 57.983 150.559,57.032 149.977,56.425 149.630 C 48.379 145.033,46.800 143.456,46.800 140.019 C 46.800 135.325,52.338 131.930,56.458 134.100 M230.267 214.464 C 234.271 217.115,234.271 222.885,230.267 225.536 L 228.659 226.600 187.499 226.707 C 160.236 226.778,145.824 226.676,144.813 226.404 C 140.341 225.199,138.599 219.279,141.683 215.767 C 144.022 213.103,141.243 213.252,187.029 213.330 L 228.659 213.400 230.267 214.464 M196.416 274.008 C 201.059 276.377,201.202 283.124,196.666 285.783 L 194.930 286.800 119.943 286.800 L 44.957 286.800 43.149 285.654 C 38.887 282.951,38.887 277.049,43.149 274.346 L 44.957 273.200 119.894 273.200 C 194.296 273.200,194.843 273.206,196.416 274.008 M269.353 273.806 C 274.675 276.030,274.643 283.984,269.303 286.215 C 267.383 287.017,218.920 287.097,217.495 286.300 C 211.811 283.123,211.761 276.444,217.400 273.795 C 219.258 272.922,267.263 272.933,269.353 273.806 M356.851 274.346 C 358.942 275.673,360.000 277.571,360.000 280.000 C 360.000 282.429,358.942 284.327,356.851 285.654 L 355.043 286.800 323.571 286.800 C 297.362 286.800,291.872 286.705,290.749 286.235 C 285.344 283.971,285.336 276.137,290.736 273.738 C 291.523 273.388,300.026 273.257,323.422 273.232 L 355.043 273.200 356.851 274.346 M89.902 307.311 C 94.719 309.943,94.419 316.837,89.374 319.400 C 87.481 320.362,49.169 320.877,45.600 319.988 C 38.461 318.210,38.155 308.020,45.200 306.682 C 48.494 306.057,88.639 306.622,89.902 307.311 M136.881 307.600 C 142.106 311.127,140.637 318.425,134.387 319.996 C 131.042 320.836,112.539 320.372,110.626 319.400 C 105.207 316.646,105.539 308.197,111.114 306.969 C 111.711 306.838,112.380 306.664,112.600 306.582 C 112.820 306.501,118.040 306.472,124.200 306.517 L 135.400 306.600 136.881 307.600 M241.369 306.783 C 248.518 308.441,248.507 317.874,241.354 319.927 C 240.137 320.277,229.341 320.400,200.000 320.400 C 170.659 320.400,159.863 320.277,158.646 319.927 C 151.842 317.974,151.325 309.315,157.874 306.980 C 159.688 306.332,238.625 306.146,241.369 306.783 M356.881 307.600 C 361.980 311.042,360.639 318.309,354.600 319.958 C 352.353 320.572,267.647 320.572,265.400 319.958 C 258.279 318.013,258.136 308.558,265.200 306.743 C 265.750 306.602,286.270 306.512,310.800 306.543 L 355.400 306.600 356.881 307.600 M129.520 340.564 C 133.499 342.643,134.558 347.201,131.923 350.906 C 130.032 353.565,133.039 353.400,86.600 353.400 L 44.600 353.400 43.119 352.400 C 38.676 349.401,39.064 342.670,43.800 340.565 C 45.636 339.749,127.958 339.748,129.520 340.564 M283.093 340.671 C 288.297 343.140,287.604 351.548,282.069 353.100 C 279.097 353.934,151.450 353.430,150.001 352.578 C 145.611 349.999,145.610 343.378,150.000 340.831 C 152.000 339.670,280.659 339.516,283.093 340.671 M357.046 341.025 C 360.978 343.961,360.985 349.037,357.063 352.172 L 355.526 353.400 330.063 353.400 L 304.600 353.400 303.119 352.400 C 298.590 349.343,298.947 343.176,303.801 340.625 C 305.913 339.516,355.523 339.888,357.046 341.025 " stroke="none" fill="#547483" fill-rule="evenodd"></path><path id="path2" d="M42.600 34.131 C 33.116 37.850,30.470 48.922,37.407 55.860 C 45.008 63.461,57.337 59.609,59.578 48.933 C 61.523 39.666,51.273 30.731,42.600 34.131 M96.752 34.152 C 90.369 35.872,85.844 42.777,87.204 48.723 C 90.503 63.148,109.497 63.148,112.796 48.723 C 114.757 40.146,105.547 31.782,96.752 34.152 M49.719 134.525 C 43.689 138.644,45.895 143.614,56.425 149.630 C 57.032 149.977,57.983 150.559,58.538 150.923 C 59.094 151.287,60.145 151.923,60.874 152.337 C 61.604 152.751,68.410 156.824,76.000 161.389 C 83.590 165.953,90.340 170.004,91.000 170.390 C 98.966 175.050,106.400 179.800,106.283 180.155 C 106.203 180.400,105.791 180.781,105.368 181.002 C 104.946 181.223,98.933 184.823,92.006 189.002 C 85.079 193.181,79.229 196.672,79.006 196.759 C 78.783 196.847,77.848 197.432,76.928 198.059 C 76.008 198.687,75.141 199.200,75.000 199.200 C 74.859 199.200,73.959 199.740,73.000 200.400 C 72.041 201.060,71.178 201.600,71.082 201.600 C 70.986 201.600,67.799 203.490,64.000 205.800 C 60.201 208.110,57.014 210.000,56.918 210.000 C 56.822 210.000,55.959 210.540,55.000 211.200 C 54.041 211.860,53.143 212.400,53.006 212.400 C 52.204 212.400,47.965 215.788,47.433 216.854 C 44.988 221.755,49.307 227.674,54.533 226.585 C 56.285 226.220,123.097 186.210,124.676 184.581 C 127.231 181.944,127.226 177.923,124.664 175.407 C 123.698 174.457,61.069 136.529,56.458 134.100 C 54.898 133.278,51.202 133.511,49.719 134.525 M144.163 213.805 C 139.907 215.683,138.760 220.983,141.866 224.420 C 144.108 226.902,142.555 226.825,187.499 226.707 L 228.659 226.600 230.267 225.536 C 234.271 222.885,234.271 217.115,230.267 214.464 L 228.659 213.400 187.029 213.330 C 152.622 213.272,145.185 213.354,144.163 213.805 " stroke="none" fill="#f2b72e" fill-rule="evenodd"></path><path id="path3" d="M280.924 34.821 C 269.812 40.211,271.695 56.419,283.800 59.578 C 286.027 60.159,354.002 60.154,356.200 59.572 C 368.666 56.274,370.213 39.719,358.539 34.556 L 356.377 33.600 319.889 33.610 L 283.400 33.620 280.924 34.821 " stroke="none" fill="#fafbfb" fill-rule="evenodd"></path><path id="path4" d="M302.700 33.500 C 312.215 33.560,327.785 33.560,337.300 33.500 C 346.815 33.440,339.030 33.391,320.000 33.391 C 300.970 33.391,293.185 33.440,302.700 33.500 M148.896 34.140 C 145.829 35.146,141.659 39.353,140.798 42.310 C 136.500 57.064,154.783 66.517,163.997 54.304 C 171.580 44.253,161.027 30.162,148.896 34.140 M273.314 46.600 C 273.317 47.700,273.395 48.103,273.487 47.495 C 273.579 46.886,273.577 45.986,273.482 45.495 C 273.387 45.003,273.311 45.500,273.314 46.600 M55.781 56.100 L 54.200 57.800 55.900 56.219 C 57.481 54.748,57.784 54.400,57.481 54.400 C 57.416 54.400,56.651 55.165,55.781 56.100 M362.575 56.100 L 361.400 57.400 362.700 56.225 C 363.415 55.579,364.000 54.994,364.000 54.925 C 364.000 54.616,363.670 54.888,362.575 56.100 " stroke="none" fill="#63dabc" fill-rule="evenodd"></path></g></svg>