<svg id="svg" version="1.1" xmlns="http://www.w3.org/2000/svg" xmlns:xlink="http://www.w3.org/1999/xlink" width="400" height="400" viewBox="0, 0, 400,400"><g id="svgg"><path id="path0" d="M0.000 200.000 L 0.000 400.000 200.000 400.000 L 400.000 400.000 400.000 201.488 L 400.000 2.975 398.900 2.472 C 396.664 1.449,396.000 0.998,396.000 0.505 C 396.000 0.099,370.673 0.000,267.200 0.000 C 152.978 0.000,138.400 0.068,138.400 0.600 C 138.400 1.083,137.778 1.200,135.200 1.200 C 132.622 1.200,132.000 1.083,132.000 0.600 C 132.000 0.079,130.311 0.000,119.200 0.000 C 108.089 0.000,106.400 0.079,106.400 0.600 C 106.400 1.083,105.778 1.200,103.200 1.200 C 100.622 1.200,100.000 1.083,100.000 0.600 C 100.000 0.070,94.178 0.000,50.000 0.000 L 0.000 0.000 0.000 200.000 M142.010 17.606 C 143.875 17.829,146.120 18.261,147.000 18.566 C 147.880 18.872,149.809 19.434,151.287 19.816 C 153.400 20.363,154.354 20.876,155.759 22.223 C 156.742 23.164,158.413 24.432,159.473 25.041 C 162.493 26.774,164.058 28.143,166.000 30.747 C 166.990 32.075,168.206 33.381,168.703 33.649 C 169.970 34.335,171.853 37.430,172.445 39.800 C 172.720 40.900,173.186 42.042,173.482 42.338 C 174.254 43.112,175.023 44.707,175.728 47.000 C 176.066 48.100,176.717 50.034,177.175 51.298 C 178.215 54.174,178.730 63.049,178.050 66.400 C 176.832 72.414,176.297 74.315,175.466 75.600 C 174.968 76.370,173.861 78.585,173.007 80.521 C 172.153 82.458,171.330 84.120,171.178 84.214 C 171.026 84.308,170.419 85.370,169.830 86.574 C 169.052 88.164,167.942 89.451,165.779 91.270 C 164.141 92.648,162.800 93.882,162.800 94.012 C 162.800 95.328,154.711 100.044,151.541 100.576 C 150.738 100.711,149.658 101.153,149.141 101.558 C 144.187 105.441,128.339 106.103,120.400 102.759 C 116.246 101.009,115.576 101.122,112.379 104.113 C 110.917 105.481,109.045 107.207,108.219 107.950 C 105.225 110.640,104.800 112.160,104.800 120.178 C 104.800 130.590,104.932 130.456,94.411 130.783 C 85.827 131.050,86.414 130.444,86.406 139.044 L 86.400 145.088 85.027 146.544 C 84.272 147.345,83.597 148.025,83.527 148.056 C 83.457 148.086,80.220 148.221,76.333 148.356 C 72.446 148.490,69.133 148.733,68.970 148.896 C 68.807 149.059,68.633 152.209,68.584 155.896 C 68.483 163.428,68.454 163.559,66.570 164.996 L 65.209 166.034 48.905 165.917 C 26.730 165.758,27.846 166.420,28.183 153.622 C 28.439 143.872,26.621 146.462,48.741 124.342 C 59.004 114.079,68.124 104.899,69.010 103.942 C 69.895 102.984,71.965 100.907,73.610 99.327 C 80.753 92.463,91.838 80.954,92.266 79.957 C 92.597 79.185,92.616 78.426,92.331 77.335 C 89.449 66.285,88.905 58.488,90.561 51.956 C 90.862 50.770,91.236 48.900,91.392 47.800 C 91.555 46.652,92.299 44.723,93.138 43.270 C 93.942 41.879,95.267 39.483,96.081 37.946 C 98.285 33.790,101.085 30.529,105.306 27.200 C 106.562 26.210,108.087 24.994,108.695 24.498 C 109.303 24.001,110.143 23.485,110.562 23.351 C 110.982 23.216,112.388 22.323,113.688 21.366 C 114.988 20.409,116.715 19.513,117.526 19.374 C 118.337 19.235,120.080 18.843,121.400 18.503 C 126.204 17.267,135.721 16.853,142.010 17.606 M136.600 43.857 C 133.146 45.248,133.257 45.143,131.975 48.188 C 129.048 55.136,131.928 61.814,138.868 64.173 C 141.255 64.984,145.906 64.052,147.079 62.527 C 147.343 62.184,148.410 61.005,149.450 59.906 C 152.008 57.204,153.184 52.684,151.955 50.274 C 148.407 43.316,143.272 41.171,136.600 43.857 M314.378 180.592 C 315.170 180.872,316.984 181.233,318.409 181.394 C 319.834 181.556,321.917 182.118,323.039 182.644 C 324.160 183.170,325.420 183.601,325.839 183.602 C 326.257 183.604,327.140 183.893,327.800 184.244 C 328.945 184.854,329.945 185.243,335.400 187.204 C 337.261 187.872,338.339 188.625,340.200 190.551 C 341.520 191.917,343.140 193.260,343.800 193.535 C 345.508 194.246,347.428 196.094,348.363 197.927 C 348.804 198.793,349.444 199.608,349.783 199.738 C 350.122 199.868,350.400 200.251,350.400 200.587 C 350.400 200.924,350.580 201.200,350.799 201.200 C 352.390 201.200,356.000 206.714,356.612 210.076 C 356.908 211.707,354.357 214.782,351.488 216.252 C 350.780 216.615,350.110 217.031,350.000 217.177 C 349.450 217.905,345.817 220.023,344.378 220.454 C 343.351 220.761,341.734 221.877,340.037 223.449 C 338.373 224.989,336.559 226.247,335.326 226.715 C 334.223 227.135,332.348 228.120,331.160 228.906 C 327.525 231.310,325.002 229.632,321.597 222.544 C 321.038 221.379,320.356 220.689,319.301 220.220 C 316.756 219.089,313.810 217.531,313.600 217.206 C 313.042 216.344,307.230 215.057,303.800 215.037 C 300.089 215.015,299.307 215.234,294.062 217.762 C 291.733 218.885,289.008 221.966,288.204 224.386 C 287.846 225.466,287.359 226.414,287.121 226.493 C 285.760 226.947,286.267 232.636,287.972 236.052 C 290.772 241.662,291.315 242.292,295.263 244.524 C 296.658 245.312,298.581 246.681,299.536 247.565 C 300.885 248.815,301.768 249.264,303.504 249.585 C 304.733 249.813,306.126 250.253,306.600 250.563 C 307.074 250.874,308.348 251.397,309.431 251.726 C 311.419 252.331,315.231 254.223,315.600 254.788 C 315.976 255.366,319.798 257.081,321.800 257.571 C 322.900 257.840,324.070 258.294,324.400 258.579 C 324.730 258.865,325.720 259.226,326.600 259.382 C 328.215 259.669,332.400 262.137,332.400 262.803 C 332.400 263.304,336.041 264.976,336.923 264.880 C 337.321 264.837,337.547 264.962,337.426 265.158 C 337.305 265.354,337.621 265.619,338.129 265.746 C 338.637 265.874,339.473 266.343,339.987 266.789 C 340.502 267.235,341.210 267.603,341.561 267.607 C 342.491 267.618,345.492 269.750,347.236 271.640 C 348.067 272.539,349.343 273.605,350.073 274.010 C 350.803 274.414,351.940 275.040,352.600 275.400 C 353.805 276.058,356.046 279.056,356.572 280.713 C 356.727 281.201,357.045 281.600,357.279 281.600 C 358.183 281.600,361.628 285.447,362.285 287.192 C 362.660 288.186,363.276 289.540,363.654 290.200 C 364.032 290.860,364.468 292.120,364.623 293.000 C 364.778 293.880,365.035 294.780,365.195 295.000 C 369.045 300.302,370.568 324.822,367.361 329.886 C 367.052 330.373,366.800 330.969,366.800 331.211 C 366.800 331.452,366.371 332.583,365.847 333.725 C 365.323 334.866,364.680 336.700,364.417 337.800 C 364.155 338.900,363.714 340.070,363.438 340.400 C 363.162 340.730,362.620 341.855,362.235 342.900 C 361.849 343.945,361.381 344.800,361.194 344.800 C 361.007 344.800,360.746 345.115,360.613 345.500 C 360.481 345.885,359.479 346.904,358.386 347.766 C 357.294 348.627,356.400 349.484,356.400 349.670 C 356.400 351.071,353.585 354.055,351.000 355.396 C 349.460 356.194,347.495 357.547,346.632 358.402 C 344.487 360.530,337.753 363.779,334.256 364.373 C 332.748 364.629,331.108 365.104,330.613 365.428 C 330.118 365.753,328.562 366.273,327.156 366.585 C 325.750 366.897,323.776 367.415,322.768 367.736 C 313.369 370.736,291.448 369.633,281.000 365.635 C 279.900 365.215,277.830 364.660,276.400 364.404 C 274.970 364.147,273.436 363.704,272.991 363.419 C 272.546 363.134,271.417 362.772,270.480 362.614 C 269.380 362.428,268.040 361.738,266.689 360.663 C 265.540 359.748,263.970 358.684,263.200 358.297 C 257.665 355.518,251.200 350.712,251.200 349.376 C 251.200 349.089,250.849 348.743,250.420 348.606 C 249.992 348.470,249.530 348.008,249.394 347.580 C 249.257 347.151,248.915 346.800,248.633 346.800 C 247.947 346.800,244.057 342.819,243.750 341.804 C 243.617 341.362,243.182 340.640,242.783 340.200 C 238.070 334.999,236.260 329.513,238.821 328.189 C 239.445 327.866,241.038 326.702,242.360 325.601 C 243.683 324.501,244.998 323.600,245.282 323.600 C 246.141 323.599,250.819 321.255,252.081 320.193 C 252.730 319.647,253.420 319.200,253.613 319.200 C 254.015 319.200,256.703 317.493,257.600 316.668 C 258.547 315.797,262.252 314.064,263.782 313.777 C 264.548 313.633,265.566 313.176,266.045 312.761 C 266.900 312.020,266.941 312.021,268.358 312.856 C 270.000 313.824,274.400 318.334,274.400 319.050 C 274.400 319.865,277.221 322.966,278.635 323.705 C 279.377 324.093,281.113 325.555,282.492 326.953 C 284.253 328.738,285.476 329.622,286.600 329.923 C 287.480 330.159,289.010 330.618,290.000 330.942 C 295.861 332.863,297.617 333.284,298.099 332.884 C 298.816 332.290,310.223 332.284,311.862 332.877 C 312.965 333.276,313.286 333.246,313.902 332.689 C 314.304 332.325,315.615 331.828,316.816 331.583 C 319.681 331.000,323.087 329.358,323.663 328.282 C 323.915 327.811,324.534 326.970,325.037 326.413 C 325.541 325.856,326.729 324.522,327.677 323.448 L 329.400 321.496 329.433 316.648 L 329.466 311.800 329.233 316.400 C 328.938 322.225,328.299 321.582,328.311 315.472 C 328.317 312.604,328.477 310.974,328.760 310.880 C 329.695 310.568,329.092 309.594,326.201 306.750 C 324.552 305.128,323.202 303.671,323.201 303.513 C 323.198 302.695,320.327 300.476,318.938 300.218 C 318.092 300.061,317.130 299.699,316.800 299.413 C 316.470 299.128,315.750 298.763,315.200 298.601 C 314.650 298.440,313.840 297.991,313.400 297.603 C 312.960 297.216,311.944 296.689,311.142 296.432 C 310.340 296.175,308.689 295.269,307.474 294.418 C 306.034 293.409,304.453 292.706,302.932 292.398 C 301.650 292.139,300.240 291.702,299.800 291.427 C 299.360 291.152,298.460 290.797,297.800 290.639 C 296.226 290.261,291.618 288.066,290.600 287.208 C 289.265 286.085,286.976 284.902,285.549 284.598 C 284.807 284.440,283.390 283.906,282.400 283.410 C 281.410 282.915,279.700 282.084,278.600 281.563 C 277.500 281.042,275.770 279.802,274.757 278.808 C 273.743 277.814,272.240 276.757,271.417 276.460 C 269.219 275.666,266.701 273.841,265.889 272.455 C 264.961 270.869,263.001 268.925,261.601 268.200 C 260.176 267.464,258.246 265.008,257.650 263.175 C 257.396 262.391,256.461 261.041,255.574 260.175 C 253.540 258.191,252.184 255.891,251.557 253.368 C 251.288 252.285,250.835 251.036,250.549 250.592 C 250.263 250.148,249.836 248.079,249.599 245.996 C 249.363 243.912,248.899 240.520,248.567 238.457 C 247.803 233.707,247.796 228.106,248.551 224.559 C 248.873 223.042,249.348 220.090,249.605 218.000 C 249.862 215.910,250.326 213.677,250.636 213.039 C 250.946 212.400,251.202 211.680,251.204 211.439 C 251.211 210.458,254.314 205.169,255.944 203.358 C 256.904 202.292,257.852 201.055,258.052 200.610 C 258.999 198.502,260.714 196.232,261.802 195.647 C 263.775 194.585,265.737 193.086,266.800 191.828 C 267.350 191.178,268.155 190.315,268.588 189.911 C 269.859 188.727,276.442 185.688,278.400 185.383 C 279.390 185.228,280.830 184.766,281.600 184.355 C 284.352 182.889,286.639 182.064,289.200 181.616 C 290.630 181.366,292.403 180.970,293.141 180.736 C 296.782 179.582,311.236 179.484,314.378 180.592 M217.425 183.388 L 218.413 184.377 218.307 253.688 C 218.209 317.341,218.146 323.131,217.533 324.600 C 217.166 325.480,216.750 327.190,216.609 328.400 C 216.468 329.610,216.036 331.140,215.649 331.800 C 215.262 332.460,214.719 333.900,214.443 335.000 C 214.166 336.100,213.705 337.270,213.418 337.600 C 213.131 337.930,212.621 339.100,212.286 340.200 C 210.932 344.644,210.055 346.235,207.444 348.985 C 205.990 350.517,204.800 352.002,204.800 352.285 C 204.800 353.086,201.840 355.939,200.345 356.578 C 199.605 356.895,197.808 358.314,196.352 359.734 C 194.603 361.437,193.245 362.412,192.352 362.603 C 191.608 362.762,190.782 363.068,190.516 363.282 C 190.250 363.496,188.810 364.006,187.316 364.414 C 185.822 364.822,183.070 365.716,181.200 366.400 C 171.451 369.967,153.840 370.609,145.600 367.699 C 144.390 367.271,142.502 366.703,141.405 366.437 C 140.308 366.170,139.136 365.704,138.800 365.400 C 138.465 365.097,137.112 364.672,135.795 364.458 C 133.722 364.120,131.592 363.204,126.445 360.438 C 125.870 360.129,124.389 358.946,123.154 357.810 C 121.919 356.673,120.209 355.418,119.354 355.022 C 117.258 354.049,116.172 352.996,114.801 350.609 C 114.167 349.504,112.872 347.889,111.924 347.021 C 109.989 345.249,108.341 343.101,107.402 341.126 C 107.055 340.397,106.498 339.306,106.165 338.703 C 104.312 335.349,104.789 331.200,107.027 331.200 C 107.295 331.200,107.614 330.940,107.736 330.622 C 107.858 330.304,108.642 329.921,109.479 329.769 C 111.555 329.394,111.984 329.135,115.088 326.380 C 116.785 324.873,118.390 323.820,119.396 323.552 C 120.278 323.318,121.270 322.902,121.600 322.630 C 121.930 322.357,123.276 321.539,124.592 320.812 C 125.908 320.084,127.956 318.749,129.143 317.845 C 130.331 316.940,131.619 315.966,132.007 315.681 C 134.229 314.042,137.912 315.482,138.550 318.239 C 138.748 319.097,139.246 320.278,139.655 320.862 C 140.065 321.446,140.400 322.044,140.400 322.190 C 140.400 322.513,143.348 325.714,146.529 328.846 C 148.366 330.654,149.212 331.196,150.529 331.406 C 151.448 331.553,153.149 332.114,154.308 332.652 C 156.139 333.502,156.874 333.613,159.908 333.498 L 163.400 333.365 159.700 333.282 C 155.617 333.191,154.807 332.641,158.144 332.224 C 160.359 331.948,161.949 332.147,163.493 332.895 C 164.174 333.225,164.743 333.179,165.893 332.699 C 166.722 332.353,168.255 331.851,169.300 331.583 C 170.345 331.315,171.200 330.937,171.200 330.742 C 171.200 330.547,171.785 330.104,172.500 329.757 C 173.390 329.326,174.385 328.160,175.655 326.064 L 177.510 323.000 177.955 316.892 C 178.254 312.786,178.400 290.108,178.400 247.714 L 178.400 184.644 179.475 183.522 L 180.550 182.400 198.493 182.400 L 216.436 182.400 217.425 183.388 M257.200 200.787 C 257.200 201.329,257.009 201.502,256.590 201.341 C 256.119 201.160,256.085 200.980,256.439 200.553 C 257.055 199.810,257.200 199.855,257.200 200.787 M287.082 230.900 C 286.987 231.395,286.909 230.990,286.909 230.000 C 286.909 229.010,286.987 228.605,287.082 229.100 C 287.178 229.595,287.178 230.405,287.082 230.900 M318.700 255.076 C 318.315 255.176,317.685 255.176,317.300 255.076 C 316.915 254.975,317.230 254.893,318.000 254.893 C 318.770 254.893,319.085 254.975,318.700 255.076 M335.400 262.800 C 335.543 263.031,335.172 263.197,334.524 263.194 C 333.651 263.189,333.534 263.101,334.000 262.800 C 334.769 262.303,335.093 262.303,335.400 262.800 M125.774 318.758 C 125.896 318.955,125.732 319.217,125.411 319.341 C 124.785 319.580,124.252 319.082,124.678 318.656 C 125.039 318.294,125.515 318.339,125.774 318.758 M325.366 325.343 C 325.163 325.872,324.984 325.919,324.548 325.557 C 324.117 325.199,324.096 324.966,324.458 324.530 C 325.046 323.822,325.719 324.424,325.366 325.343 M145.200 325.249 C 145.200 325.955,145.100 326.015,144.604 325.604 C 144.002 325.104,144.131 324.400,144.824 324.400 C 145.031 324.400,145.200 324.782,145.200 325.249 M287.105 329.075 C 286.722 329.175,286.002 329.179,285.505 329.083 C 285.007 328.987,285.320 328.905,286.200 328.901 C 287.080 328.896,287.487 328.975,287.105 329.075 M301.720 333.498 C 303.655 333.572,306.715 333.571,308.520 333.497 C 310.324 333.423,308.740 333.363,305.000 333.364 C 301.260 333.364,299.784 333.425,301.720 333.498 " stroke="none" fill="#f2db4d" fill-rule="evenodd"></path><path id="path1" d="M128.091 19.823 C 122.623 20.451,117.590 22.042,115.384 23.841 C 114.495 24.566,112.875 25.580,111.784 26.093 C 108.793 27.501,107.115 28.742,105.918 30.432 C 105.324 31.272,103.953 32.643,102.873 33.479 C 100.510 35.310,99.428 36.789,98.533 39.415 C 98.163 40.500,97.174 42.471,96.334 43.794 C 95.495 45.117,94.806 46.430,94.804 46.712 C 94.802 46.994,94.362 48.264,93.827 49.535 C 91.278 55.592,91.973 70.207,95.063 75.528 C 96.512 78.023,96.459 80.650,94.933 81.949 C 91.871 84.555,91.283 85.155,90.181 86.796 C 89.528 87.769,88.185 89.158,87.197 89.883 C 84.742 91.685,84.152 92.271,82.330 94.714 C 81.463 95.877,79.999 97.360,79.077 98.009 C 76.224 100.018,74.800 101.264,74.800 101.751 C 74.800 102.554,72.481 105.075,70.702 106.206 C 69.766 106.801,68.370 108.112,67.600 109.119 C 65.746 111.543,64.608 112.657,61.872 114.728 C 60.616 115.678,58.988 117.388,58.254 118.528 C 57.478 119.732,55.660 121.579,53.915 122.937 C 52.259 124.227,50.631 125.865,50.285 126.591 C 49.940 127.314,48.891 128.513,47.954 129.253 C 45.714 131.024,42.874 133.858,41.485 135.709 C 40.872 136.526,39.409 137.809,38.234 138.561 C 36.616 139.596,35.527 140.786,33.749 143.464 L 31.400 147.000 31.275 154.044 L 31.151 161.087 32.352 162.098 L 33.553 163.109 47.555 163.259 C 64.969 163.446,65.014 163.443,65.535 162.062 C 65.755 161.478,66.042 158.175,66.172 154.722 C 66.511 145.722,66.232 146.000,74.920 146.000 C 83.851 146.000,83.585 146.245,83.597 138.000 C 83.610 128.578,83.650 128.535,92.630 128.320 C 101.976 128.096,101.549 128.590,101.846 117.668 C 102.049 110.197,101.917 110.492,107.729 104.584 C 113.693 98.521,115.802 97.931,122.800 100.370 C 127.263 101.926,136.174 102.526,140.294 101.548 C 149.914 99.264,153.877 97.778,156.389 95.512 C 157.432 94.570,159.324 93.080,160.594 92.200 C 161.863 91.320,163.984 89.250,165.307 87.600 C 166.631 85.950,168.029 84.317,168.414 83.970 C 169.343 83.135,171.029 79.753,171.389 78.000 C 171.548 77.230,172.050 75.970,172.506 75.200 C 172.961 74.430,173.649 72.450,174.035 70.800 C 174.420 69.150,174.926 67.080,175.158 66.200 C 176.321 61.798,175.416 54.564,172.815 47.476 C 169.403 38.173,169.120 37.628,166.654 35.620 C 165.424 34.619,163.702 32.681,162.827 31.314 C 161.435 29.139,160.870 28.644,158.318 27.361 C 156.713 26.555,154.877 25.456,154.237 24.920 C 148.897 20.445,139.175 18.549,128.091 19.823 M147.456 41.757 C 151.670 43.808,153.035 45.169,153.996 48.280 C 157.120 58.396,150.445 67.439,140.420 66.673 C 129.993 65.876,125.749 57.389,130.059 45.953 C 131.928 40.994,141.262 38.743,147.456 41.757 " stroke="none" fill="#fbfbf5" fill-rule="evenodd"></path><path id="path2" d="M295.000 182.394 C 293.460 182.546,290.966 183.059,289.458 183.535 C 287.950 184.011,286.330 184.401,285.858 184.403 C 285.386 184.404,284.461 184.760,283.803 185.194 C 283.144 185.629,281.678 186.176,280.544 186.412 C 276.519 187.247,271.415 189.804,269.006 192.192 C 267.126 194.055,263.988 196.400,263.375 196.400 C 262.866 196.400,260.400 199.107,260.400 199.666 C 260.400 200.074,258.261 203.365,257.324 204.400 C 256.492 205.318,254.800 207.991,254.800 208.387 C 254.800 208.580,254.345 209.279,253.790 209.939 C 253.121 210.734,252.507 212.334,251.974 214.670 C 251.531 216.612,250.968 219.010,250.724 220.000 C 250.160 222.279,250.149 240.728,250.709 243.200 C 250.934 244.190,251.421 246.403,251.792 248.117 C 252.638 252.033,254.423 256.004,256.400 258.371 C 257.240 259.377,258.478 261.370,259.151 262.800 C 260.291 265.220,262.009 267.084,263.672 267.703 C 264.042 267.841,265.328 269.146,266.531 270.605 C 268.242 272.679,269.313 273.548,271.459 274.602 C 272.966 275.343,275.154 276.742,276.319 277.711 C 278.788 279.763,285.033 283.020,287.528 283.556 C 288.479 283.760,290.302 284.645,291.579 285.521 C 292.856 286.397,294.328 287.242,294.850 287.398 C 295.373 287.554,296.352 287.998,297.026 288.384 C 297.700 288.770,300.130 289.680,302.426 290.406 C 306.619 291.733,313.498 295.021,315.011 296.422 C 315.458 296.835,316.628 297.454,317.611 297.797 C 320.904 298.946,322.699 299.950,323.653 301.179 C 324.174 301.850,325.602 303.434,326.826 304.700 C 329.718 307.690,330.255 308.587,330.597 311.000 C 331.376 316.487,330.531 324.400,329.167 324.400 C 328.976 324.400,328.546 324.932,328.210 325.581 C 326.740 328.424,322.376 331.782,319.332 332.414 C 318.117 332.666,316.513 333.232,315.769 333.672 C 312.009 335.890,296.215 335.559,291.623 333.165 C 290.777 332.724,289.391 332.256,288.542 332.124 C 286.259 331.770,283.261 330.145,281.000 328.036 C 279.900 327.010,278.283 325.637,277.406 324.985 C 275.563 323.615,274.544 322.480,272.539 319.567 C 269.649 315.365,267.584 313.788,266.012 314.581 C 265.456 314.862,264.010 315.415,262.800 315.811 C 261.577 316.210,259.772 317.243,258.735 318.136 C 257.709 319.019,255.999 320.206,254.935 320.774 C 253.871 321.342,252.010 322.369,250.800 323.056 C 249.590 323.743,247.970 324.421,247.200 324.563 C 246.336 324.723,245.069 325.501,243.891 326.596 C 242.841 327.572,241.761 328.512,241.491 328.686 C 241.221 328.860,240.598 329.460,240.106 330.020 L 239.213 331.038 240.567 333.094 C 241.312 334.226,242.133 335.792,242.392 336.576 C 242.650 337.359,242.995 338.000,243.157 338.000 C 243.320 338.000,243.853 338.712,244.342 339.582 C 245.407 341.478,252.294 348.528,256.080 351.600 C 260.307 355.029,260.891 355.414,262.618 355.914 C 263.508 356.172,264.948 356.989,265.818 357.729 C 268.250 359.799,270.540 361.116,272.248 361.426 C 273.102 361.581,274.700 362.033,275.800 362.431 C 276.900 362.829,278.970 363.359,280.400 363.610 C 281.830 363.860,283.540 364.310,284.200 364.610 C 284.860 364.910,286.300 365.274,287.400 365.419 C 288.500 365.564,291.020 366.052,293.000 366.505 C 296.008 367.192,298.046 367.333,305.400 367.363 C 314.999 367.403,314.457 367.479,327.000 364.342 C 330.520 363.462,334.480 362.474,335.800 362.147 C 337.120 361.819,338.830 361.136,339.600 360.628 C 340.370 360.121,342.031 359.131,343.292 358.428 C 344.552 357.726,345.685 356.986,345.809 356.785 C 346.143 356.245,350.213 353.600,350.711 353.600 C 351.262 353.600,353.122 351.661,354.400 349.752 C 354.950 348.931,356.410 347.216,357.645 345.940 C 360.244 343.256,362.845 338.293,363.590 334.600 C 363.856 333.280,364.345 331.773,364.677 331.252 C 365.010 330.730,365.530 328.879,365.834 327.137 C 366.138 325.396,366.592 323.588,366.843 323.120 C 367.594 321.716,367.457 309.409,366.665 307.172 C 366.309 306.166,365.848 304.186,365.642 302.772 C 365.435 301.357,364.982 299.643,364.634 298.961 C 364.287 298.280,363.821 296.765,363.599 295.595 C 363.237 293.685,361.791 289.982,360.790 288.400 C 360.581 288.070,360.111 287.260,359.745 286.600 C 359.379 285.940,358.282 284.697,357.308 283.838 C 356.334 282.980,354.990 281.307,354.321 280.121 C 353.044 277.858,352.851 277.681,349.000 275.228 C 347.680 274.387,346.240 273.292,345.800 272.796 C 344.821 271.692,340.969 268.800,340.477 268.800 C 340.281 268.800,339.328 268.263,338.360 267.607 C 337.392 266.951,336.276 266.411,335.880 266.407 C 334.835 266.397,333.239 265.491,330.991 263.633 C 329.904 262.735,328.808 262.000,328.556 262.000 C 328.304 262.000,327.890 261.749,327.635 261.442 C 327.380 261.135,326.503 260.763,325.686 260.616 C 324.869 260.469,323.480 260.008,322.600 259.593 C 321.720 259.178,320.103 258.639,319.008 258.396 C 317.912 258.154,316.040 257.308,314.848 256.516 C 313.655 255.725,311.762 254.729,310.640 254.303 C 309.518 253.878,308.393 253.358,308.140 253.149 C 307.887 252.939,305.817 252.135,303.541 251.361 C 301.264 250.587,299.041 249.624,298.601 249.221 C 298.160 248.818,296.741 247.793,295.446 246.944 C 291.034 244.049,290.599 243.702,289.223 241.979 C 281.504 232.315,284.316 220.062,295.422 214.971 C 301.781 212.055,311.659 212.933,316.200 216.817 C 316.640 217.194,317.635 217.704,318.411 217.952 C 320.054 218.477,322.800 220.622,322.800 221.380 C 322.800 221.667,323.052 222.111,323.361 222.367 C 323.669 222.623,324.036 223.288,324.175 223.844 C 324.951 226.933,328.553 228.635,330.918 227.030 C 331.753 226.463,332.536 226.000,332.660 226.000 C 333.560 226.000,337.309 223.611,338.721 222.137 C 339.668 221.149,341.108 220.075,341.921 219.750 C 343.999 218.920,347.324 217.139,347.800 216.602 C 348.020 216.353,349.261 215.442,350.558 214.575 C 351.855 213.709,353.423 212.529,354.042 211.954 L 355.168 210.909 354.107 207.954 C 353.172 205.353,352.755 204.756,350.622 202.961 C 349.290 201.840,347.930 200.400,347.601 199.761 C 347.271 199.122,346.893 198.510,346.761 198.400 C 346.628 198.290,346.311 197.803,346.055 197.317 C 345.799 196.831,344.448 195.795,343.053 195.015 C 341.657 194.234,339.626 192.625,338.539 191.437 C 337.026 189.785,336.089 189.139,334.544 188.680 C 333.434 188.350,331.823 187.724,330.963 187.288 C 330.103 186.852,328.590 186.363,327.600 186.201 C 326.610 186.038,325.300 185.649,324.688 185.336 C 319.241 182.548,306.365 181.272,295.000 182.394 M180.524 184.900 C 180.346 185.175,180.155 202.500,180.101 223.400 C 180.046 244.300,179.947 274.810,179.880 291.200 L 179.758 321.000 178.733 323.800 C 176.837 328.979,175.556 330.325,169.866 333.115 C 158.782 338.550,140.642 331.230,137.625 320.105 C 136.525 316.045,134.222 315.556,130.955 318.689 C 129.641 319.949,127.389 321.398,124.563 322.803 C 119.279 325.430,116.583 327.113,115.034 328.749 C 114.393 329.427,113.223 330.185,112.434 330.434 C 109.379 331.397,106.875 332.847,106.638 333.790 C 106.329 335.024,106.759 337.068,107.448 337.640 C 107.752 337.892,108.000 338.259,108.000 338.455 C 108.000 339.075,110.929 343.283,112.726 345.243 C 114.681 347.377,116.772 350.067,116.789 350.469 C 116.810 350.971,119.207 353.148,120.024 353.408 C 120.472 353.550,121.901 354.551,123.201 355.633 C 124.501 356.715,125.689 357.600,125.841 357.600 C 126.237 357.600,130.319 360.345,130.601 360.801 C 130.813 361.144,133.890 362.160,141.600 364.434 C 154.971 368.378,172.385 368.474,179.929 364.647 C 180.518 364.348,181.892 363.974,182.982 363.815 C 184.071 363.656,186.051 363.103,187.382 362.585 C 188.712 362.067,190.321 361.534,190.958 361.400 C 191.594 361.265,193.214 360.113,194.558 358.838 C 195.901 357.564,197.958 356.008,199.129 355.381 C 201.093 354.330,203.600 351.815,203.600 350.897 C 203.600 350.683,204.868 349.179,206.418 347.554 C 208.593 345.275,209.336 344.189,209.668 342.800 C 209.906 341.810,210.335 340.620,210.623 340.156 C 210.910 339.692,211.443 338.288,211.807 337.036 C 212.171 335.783,212.722 334.273,213.032 333.680 C 213.342 333.086,213.596 332.363,213.598 332.074 C 213.599 331.785,213.956 330.705,214.392 329.674 C 214.894 328.484,215.551 324.867,216.192 319.765 L 217.200 311.729 217.200 249.445 C 217.200 183.029,217.266 185.371,215.382 184.648 C 214.031 184.130,180.867 184.369,180.524 184.900 " stroke="none" fill="#36362a" fill-rule="evenodd"></path><path id="path3" d="M100.000 0.600 C 100.000 1.083,100.622 1.200,103.200 1.200 C 105.778 1.200,106.400 1.083,106.400 0.600 C 106.400 0.117,105.778 0.000,103.200 0.000 C 100.622 0.000,100.000 0.117,100.000 0.600 M132.000 0.600 C 132.000 1.083,132.622 1.200,135.200 1.200 C 137.778 1.200,138.400 1.083,138.400 0.600 C 138.400 0.117,137.778 0.000,135.200 0.000 C 132.622 0.000,132.000 0.117,132.000 0.600 M396.000 0.600 C 396.000 0.930,396.197 1.200,396.437 1.200 C 396.677 1.200,397.331 1.560,397.891 2.000 C 399.410 3.195,400.000 3.027,400.000 1.400 L 400.000 0.000 398.000 0.000 C 396.489 0.000,396.000 0.147,396.000 0.600 M126.400 17.600 C 124.970 17.757,122.720 18.164,121.400 18.503 C 120.080 18.843,118.337 19.235,117.526 19.374 C 116.715 19.513,114.988 20.409,113.688 21.366 C 112.388 22.323,110.982 23.216,110.562 23.351 C 110.143 23.485,109.303 24.001,108.695 24.498 C 108.087 24.994,106.562 26.210,105.306 27.200 C 101.085 30.529,98.285 33.790,96.081 37.946 C 95.267 39.483,93.942 41.879,93.138 43.270 C 92.299 44.723,91.555 46.652,91.392 47.800 C 91.236 48.900,90.862 50.770,90.561 51.956 C 88.905 58.488,89.449 66.285,92.331 77.335 C 92.616 78.426,92.597 79.185,92.266 79.957 C 91.838 80.954,80.753 92.463,73.610 99.327 C 71.965 100.907,69.895 102.984,69.010 103.942 C 68.124 104.899,59.004 114.079,48.741 124.342 C 26.621 146.462,28.439 143.872,28.183 153.622 C 27.846 166.420,26.730 165.758,48.905 165.917 L 65.209 166.034 66.570 164.996 C 68.454 163.559,68.483 163.428,68.584 155.896 C 68.633 152.209,68.807 149.059,68.970 148.896 C 69.133 148.733,72.446 148.490,76.333 148.356 C 80.220 148.221,83.457 148.086,83.527 148.056 C 83.597 148.025,84.272 147.345,85.027 146.544 L 86.400 145.088 86.406 139.044 C 86.414 130.444,85.827 131.050,94.411 130.783 C 104.932 130.456,104.800 130.590,104.800 120.178 C 104.800 112.160,105.225 110.640,108.219 107.950 C 109.045 107.207,110.917 105.481,112.379 104.113 C 115.576 101.122,116.246 101.009,120.400 102.759 C 128.339 106.103,144.187 105.441,149.141 101.558 C 149.658 101.153,150.738 100.711,151.541 100.576 C 154.711 100.044,162.800 95.328,162.800 94.012 C 162.800 93.882,164.141 92.648,165.779 91.270 C 167.942 89.451,169.052 88.164,169.830 86.574 C 170.419 85.370,171.026 84.308,171.178 84.214 C 171.330 84.120,172.153 82.458,173.007 80.521 C 173.861 78.585,174.968 76.370,175.466 75.600 C 176.297 74.315,176.832 72.414,178.050 66.400 C 178.730 63.049,178.215 54.174,177.175 51.298 C 176.717 50.034,176.066 48.100,175.728 47.000 C 175.023 44.707,174.254 43.112,173.482 42.338 C 173.186 42.042,172.720 40.900,172.445 39.800 C 171.853 37.430,169.970 34.335,168.703 33.649 C 168.206 33.381,166.990 32.075,166.000 30.747 C 164.058 28.143,162.493 26.774,159.473 25.041 C 158.413 24.432,156.742 23.164,155.759 22.223 C 154.354 20.876,153.400 20.363,151.287 19.816 C 149.809 19.434,147.880 18.872,147.000 18.566 C 143.456 17.337,133.170 16.855,126.400 17.600 M141.545 19.992 C 147.016 20.818,151.351 22.502,154.237 24.920 C 154.877 25.456,156.713 26.555,158.318 27.361 C 160.870 28.644,161.435 29.139,162.827 31.314 C 163.702 32.681,165.424 34.619,166.654 35.620 C 169.120 37.628,169.403 38.173,172.815 47.476 C 175.416 54.564,176.321 61.798,175.158 66.200 C 174.926 67.080,174.420 69.150,174.035 70.800 C 173.649 72.450,172.961 74.430,172.506 75.200 C 172.050 75.970,171.548 77.230,171.389 78.000 C 171.029 79.753,169.343 83.135,168.414 83.970 C 168.029 84.317,166.631 85.950,165.307 87.600 C 163.984 89.250,161.863 91.320,160.594 92.200 C 159.324 93.080,157.432 94.570,156.389 95.512 C 153.877 97.778,149.914 99.264,140.294 101.548 C 136.174 102.526,127.263 101.926,122.800 100.370 C 115.802 97.931,113.693 98.521,107.729 104.584 C 101.917 110.492,102.049 110.197,101.846 117.668 C 101.549 128.590,101.976 128.096,92.630 128.320 C 83.650 128.535,83.610 128.578,83.597 138.000 C 83.585 146.245,83.851 146.000,74.920 146.000 C 66.232 146.000,66.511 145.722,66.172 154.722 C 66.042 158.175,65.755 161.478,65.535 162.062 C 65.014 163.443,64.969 163.446,47.555 163.259 L 33.553 163.109 32.352 162.098 L 31.151 161.087 31.275 154.044 L 31.400 147.000 33.749 143.464 C 35.527 140.786,36.616 139.596,38.234 138.561 C 39.409 137.809,40.872 136.526,41.485 135.709 C 42.874 133.858,45.714 131.024,47.954 129.253 C 48.891 128.513,49.940 127.314,50.285 126.591 C 50.631 125.865,52.259 124.227,53.915 122.937 C 55.660 121.579,57.478 119.732,58.254 118.528 C 58.988 117.388,60.616 115.678,61.872 114.728 C 64.608 112.657,65.746 111.543,67.600 109.119 C 68.370 108.112,69.766 106.801,70.702 106.206 C 72.481 105.075,74.800 102.554,74.800 101.751 C 74.800 101.264,76.224 100.018,79.077 98.009 C 79.999 97.360,81.463 95.877,82.330 94.714 C 84.152 92.271,84.742 91.685,87.197 89.883 C 88.185 89.158,89.528 87.769,90.181 86.796 C 91.283 85.155,91.871 84.555,94.933 81.949 C 96.459 80.650,96.512 78.023,95.063 75.528 C 91.973 70.207,91.278 55.592,93.827 49.535 C 94.362 48.264,94.802 46.994,94.804 46.712 C 94.806 46.430,95.495 45.117,96.334 43.794 C 97.174 42.471,98.163 40.500,98.533 39.415 C 99.428 36.789,100.510 35.310,102.873 33.479 C 103.953 32.643,105.324 31.272,105.918 30.432 C 107.115 28.742,108.793 27.501,111.784 26.093 C 112.875 25.580,114.495 24.566,115.384 23.841 C 117.590 22.042,122.623 20.451,128.091 19.823 C 134.482 19.089,135.665 19.103,141.545 19.992 M136.638 41.181 C 131.534 42.875,130.627 43.842,128.932 49.400 C 126.972 55.827,130.550 64.464,135.800 65.980 C 148.116 69.535,157.685 60.226,153.996 48.280 C 152.064 42.027,144.013 38.734,136.638 41.181 M146.720 43.989 C 149.484 45.689,152.400 50.052,152.400 52.487 C 152.400 55.342,151.407 57.839,149.450 59.906 C 148.410 61.005,147.343 62.184,147.079 62.527 C 145.906 64.052,141.255 64.984,138.868 64.173 C 131.928 61.814,129.048 55.136,131.975 48.188 C 133.257 45.143,133.146 45.248,136.600 43.857 C 140.281 42.375,144.180 42.426,146.720 43.989 M256.439 200.553 C 256.085 200.980,256.119 201.160,256.590 201.341 C 257.009 201.502,257.200 201.329,257.200 200.787 C 257.200 199.855,257.055 199.810,256.439 200.553 M286.909 230.000 C 286.909 230.990,286.987 231.395,287.082 230.900 C 287.178 230.405,287.178 229.595,287.082 229.100 C 286.987 228.605,286.909 229.010,286.909 230.000 M317.300 255.076 C 317.685 255.176,318.315 255.176,318.700 255.076 C 319.085 254.975,318.770 254.893,318.000 254.893 C 317.230 254.893,316.915 254.975,317.300 255.076 M334.000 262.800 C 333.534 263.101,333.651 263.189,334.524 263.194 C 335.172 263.197,335.543 263.031,335.400 262.800 C 335.093 262.303,334.769 262.303,334.000 262.800 M328.370 311.700 C 328.219 316.233,328.393 320.153,328.761 320.521 C 329.080 320.840,329.200 319.567,329.200 315.880 C 329.200 312.760,329.046 310.800,328.800 310.800 C 328.580 310.800,328.387 311.205,328.370 311.700 M124.678 318.656 C 124.252 319.082,124.785 319.580,125.411 319.341 C 125.732 319.217,125.896 318.955,125.774 318.758 C 125.515 318.339,125.039 318.294,124.678 318.656 M324.458 324.530 C 324.096 324.966,324.117 325.199,324.548 325.557 C 324.984 325.919,325.163 325.872,325.366 325.343 C 325.719 324.424,325.046 323.822,324.458 324.530 M144.228 324.755 C 144.107 324.950,144.277 325.332,144.604 325.604 C 145.100 326.015,145.200 325.955,145.200 325.249 C 145.200 324.391,144.632 324.102,144.228 324.755 M285.505 329.083 C 286.002 329.179,286.722 329.175,287.105 329.075 C 287.487 328.975,287.080 328.896,286.200 328.901 C 285.320 328.905,285.007 328.987,285.505 329.083 M157.300 332.268 C 154.607 332.646,156.141 333.200,159.880 333.200 C 162.369 333.200,163.622 333.062,163.375 332.815 C 162.913 332.353,159.124 332.012,157.300 332.268 M298.180 332.832 C 298.045 333.051,300.837 333.198,305.076 333.194 C 309.807 333.190,311.998 333.058,311.600 332.801 C 310.837 332.310,298.485 332.338,298.180 332.832 " stroke="none" fill="#f1e590" fill-rule="evenodd"></path><path id="path4" d="M297.341 179.986 C 295.768 180.165,293.878 180.502,293.141 180.736 C 292.403 180.970,290.630 181.366,289.200 181.616 C 286.639 182.064,284.352 182.889,281.600 184.355 C 280.830 184.766,279.390 185.228,278.400 185.383 C 276.442 185.688,269.859 188.727,268.588 189.911 C 268.155 190.315,267.350 191.178,266.800 191.828 C 265.737 193.086,263.775 194.585,261.802 195.647 C 260.714 196.232,258.999 198.502,258.052 200.610 C 257.852 201.055,256.904 202.292,255.944 203.358 C 254.314 205.169,251.211 210.458,251.204 211.439 C 251.202 211.680,250.946 212.400,250.636 213.039 C 250.326 213.677,249.862 215.910,249.605 218.000 C 249.348 220.090,248.873 223.042,248.551 224.559 C 247.796 228.106,247.803 233.707,248.567 238.457 C 248.899 240.520,249.363 243.912,249.599 245.996 C 249.836 248.079,250.263 250.148,250.549 250.592 C 250.835 251.036,251.288 252.285,251.557 253.368 C 252.184 255.891,253.540 258.191,255.574 260.175 C 256.461 261.041,257.396 262.391,257.650 263.175 C 258.246 265.008,260.176 267.464,261.601 268.200 C 263.001 268.925,264.961 270.869,265.889 272.455 C 266.701 273.841,269.219 275.666,271.417 276.460 C 272.240 276.757,273.743 277.814,274.757 278.808 C 275.770 279.802,277.500 281.042,278.600 281.563 C 279.700 282.084,281.410 282.915,282.400 283.410 C 283.390 283.906,284.807 284.440,285.549 284.598 C 286.976 284.902,289.265 286.085,290.600 287.208 C 291.618 288.066,296.226 290.261,297.800 290.639 C 298.460 290.797,299.360 291.152,299.800 291.427 C 300.240 291.702,301.650 292.139,302.932 292.398 C 304.453 292.706,306.034 293.409,307.474 294.418 C 308.689 295.269,310.340 296.175,311.142 296.432 C 311.944 296.689,312.960 297.216,313.400 297.603 C 313.840 297.991,314.650 298.440,315.200 298.601 C 315.750 298.763,316.470 299.128,316.800 299.413 C 317.130 299.699,318.092 300.061,318.938 300.218 C 320.327 300.476,323.198 302.695,323.201 303.513 C 323.202 303.671,324.540 305.116,326.175 306.725 C 329.595 310.089,329.797 310.748,329.540 317.701 L 329.400 321.495 327.677 323.448 C 326.729 324.521,325.541 325.856,325.037 326.413 C 324.534 326.970,323.915 327.811,323.663 328.282 C 323.087 329.358,319.681 331.000,316.816 331.583 C 315.615 331.828,314.292 332.336,313.875 332.714 C 313.214 333.312,312.133 333.400,305.459 333.400 C 297.365 333.400,297.627 333.442,290.000 330.942 C 289.010 330.618,287.480 330.159,286.600 329.923 C 285.476 329.622,284.253 328.738,282.492 326.953 C 281.113 325.555,279.377 324.093,278.635 323.705 C 277.221 322.966,274.400 319.865,274.400 319.050 C 274.400 318.334,270.000 313.824,268.358 312.856 C 266.941 312.021,266.900 312.020,266.045 312.761 C 265.566 313.176,264.548 313.633,263.782 313.777 C 262.252 314.064,258.547 315.797,257.600 316.668 C 256.703 317.493,254.015 319.200,253.613 319.200 C 253.420 319.200,252.730 319.647,252.081 320.193 C 250.819 321.255,246.141 323.599,245.282 323.600 C 244.998 323.600,243.683 324.501,242.360 325.601 C 241.038 326.702,239.445 327.866,238.821 328.189 C 236.260 329.513,238.070 334.999,242.783 340.200 C 243.182 340.640,243.617 341.362,243.750 341.804 C 244.057 342.819,247.947 346.800,248.633 346.800 C 248.915 346.800,249.257 347.151,249.394 347.580 C 249.530 348.008,249.992 348.470,250.420 348.606 C 250.849 348.743,251.200 349.089,251.200 349.376 C 251.200 350.712,257.665 355.518,263.200 358.297 C 263.970 358.684,265.540 359.748,266.689 360.663 C 268.040 361.738,269.380 362.428,270.480 362.614 C 271.417 362.772,272.546 363.134,272.991 363.419 C 273.436 363.704,274.970 364.147,276.400 364.404 C 277.830 364.660,279.900 365.215,281.000 365.635 C 291.448 369.633,313.369 370.736,322.768 367.736 C 323.776 367.415,325.750 366.897,327.156 366.585 C 328.562 366.273,330.118 365.753,330.613 365.428 C 331.108 365.104,332.748 364.629,334.256 364.373 C 337.753 363.779,344.487 360.530,346.632 358.402 C 347.495 357.547,349.460 356.194,351.000 355.396 C 353.585 354.055,356.400 351.071,356.400 349.670 C 356.400 349.484,357.294 348.627,358.386 347.766 C 359.479 346.904,360.481 345.885,360.613 345.500 C 360.746 345.115,361.007 344.800,361.194 344.800 C 361.381 344.800,361.849 343.945,362.235 342.900 C 362.620 341.855,363.162 340.730,363.438 340.400 C 363.714 340.070,364.155 338.900,364.417 337.800 C 364.680 336.700,365.323 334.866,365.847 333.725 C 366.371 332.583,366.800 331.452,366.800 331.211 C 366.800 330.969,367.052 330.373,367.361 329.886 C 370.568 324.822,369.045 300.302,365.195 295.000 C 365.035 294.780,364.778 293.880,364.623 293.000 C 364.468 292.120,364.032 290.860,363.654 290.200 C 363.276 289.540,362.660 288.186,362.285 287.192 C 361.628 285.447,358.183 281.600,357.279 281.600 C 357.045 281.600,356.727 281.201,356.572 280.713 C 356.046 279.056,353.805 276.058,352.600 275.400 C 351.940 275.040,350.803 274.414,350.073 274.010 C 349.343 273.605,348.067 272.539,347.236 271.640 C 345.467 269.723,342.487 267.618,341.529 267.607 C 341.159 267.603,340.581 267.323,340.243 266.985 C 339.905 266.647,338.947 266.092,338.114 265.752 C 335.187 264.555,332.400 263.103,332.400 262.774 C 332.400 262.131,328.179 259.662,326.600 259.382 C 325.720 259.226,324.730 258.865,324.400 258.579 C 324.070 258.294,322.900 257.840,321.800 257.571 C 319.798 257.081,315.976 255.366,315.600 254.788 C 315.231 254.223,311.419 252.331,309.431 251.726 C 308.348 251.397,307.074 250.874,306.600 250.563 C 306.126 250.253,304.733 249.813,303.504 249.585 C 301.768 249.264,300.885 248.815,299.536 247.565 C 298.581 246.681,296.658 245.312,295.263 244.524 C 291.315 242.292,290.772 241.662,287.972 236.052 C 286.267 232.636,285.760 226.947,287.121 226.493 C 287.359 226.414,287.846 225.466,288.204 224.386 C 289.935 219.177,296.908 214.996,303.800 215.037 C 307.230 215.057,313.042 216.344,313.600 217.206 C 313.810 217.531,316.756 219.089,319.301 220.220 C 320.356 220.689,321.038 221.379,321.597 222.544 C 325.002 229.632,327.525 231.310,331.160 228.906 C 332.348 228.120,334.223 227.135,335.326 226.715 C 336.559 226.247,338.373 224.989,340.037 223.449 C 341.734 221.877,343.351 220.761,344.378 220.454 C 345.817 220.023,349.450 217.905,350.000 217.177 C 350.110 217.031,350.780 216.615,351.488 216.252 C 354.357 214.782,356.908 211.707,356.612 210.076 C 356.000 206.714,352.390 201.200,350.799 201.200 C 350.580 201.200,350.400 200.924,350.400 200.587 C 350.400 200.251,350.122 199.868,349.783 199.738 C 349.444 199.608,348.804 198.793,348.363 197.927 C 347.428 196.094,345.508 194.246,343.800 193.535 C 343.140 193.260,341.520 191.917,340.200 190.551 C 338.339 188.625,337.261 187.872,335.400 187.204 C 329.945 185.243,328.945 184.854,327.800 184.244 C 327.140 183.893,326.257 183.604,325.839 183.602 C 325.420 183.601,324.160 183.170,323.039 182.644 C 321.917 182.118,319.834 181.556,318.409 181.394 C 316.984 181.233,315.170 180.872,314.378 180.592 C 312.574 179.956,301.181 179.551,297.341 179.986 M313.400 182.375 C 316.708 182.756,322.738 184.338,324.688 185.336 C 325.300 185.649,326.610 186.038,327.600 186.201 C 328.590 186.363,330.103 186.852,330.963 187.288 C 331.823 187.724,333.434 188.350,334.544 188.680 C 336.089 189.139,337.026 189.785,338.539 191.437 C 339.626 192.625,341.657 194.234,343.053 195.015 C 344.448 195.795,345.799 196.831,346.055 197.317 C 346.311 197.803,346.628 198.290,346.761 198.400 C 346.893 198.510,347.271 199.122,347.601 199.761 C 347.930 200.400,349.290 201.840,350.622 202.961 C 352.755 204.756,353.172 205.353,354.107 207.954 L 355.168 210.909 354.042 211.954 C 353.423 212.529,351.855 213.709,350.558 214.575 C 349.261 215.442,348.020 216.353,347.800 216.602 C 347.324 217.139,343.999 218.920,341.921 219.750 C 341.108 220.075,339.668 221.149,338.721 222.137 C 337.309 223.611,333.560 226.000,332.660 226.000 C 332.536 226.000,331.753 226.463,330.918 227.030 C 328.553 228.635,324.951 226.933,324.175 223.844 C 324.036 223.288,323.669 222.623,323.361 222.367 C 323.052 222.111,322.800 221.667,322.800 221.380 C 322.800 220.622,320.054 218.477,318.411 217.952 C 317.635 217.704,316.640 217.194,316.200 216.817 C 311.659 212.933,301.781 212.055,295.422 214.971 C 291.468 216.783,288.085 219.824,286.651 222.856 C 283.642 229.216,284.576 236.162,289.223 241.979 C 290.599 243.702,291.034 244.049,295.446 246.944 C 296.741 247.793,298.160 248.818,298.601 249.221 C 299.041 249.624,301.264 250.587,303.541 251.361 C 305.817 252.135,307.887 252.939,308.140 253.149 C 308.393 253.358,309.518 253.878,310.640 254.303 C 311.762 254.729,313.655 255.725,314.848 256.516 C 316.040 257.308,317.912 258.154,319.008 258.396 C 320.103 258.639,321.720 259.178,322.600 259.593 C 323.480 260.008,324.869 260.469,325.686 260.616 C 326.503 260.763,327.380 261.135,327.635 261.442 C 327.890 261.749,328.304 262.000,328.556 262.000 C 328.808 262.000,329.904 262.735,330.991 263.633 C 333.239 265.491,334.835 266.397,335.880 266.407 C 336.276 266.411,337.392 266.951,338.360 267.607 C 339.328 268.263,340.281 268.800,340.477 268.800 C 340.969 268.800,344.821 271.692,345.800 272.796 C 346.240 273.292,347.680 274.387,349.000 275.228 C 352.851 277.681,353.044 277.858,354.321 280.121 C 354.990 281.307,356.334 282.980,357.308 283.838 C 358.282 284.697,359.379 285.940,359.745 286.600 C 360.111 287.260,360.581 288.070,360.790 288.400 C 361.791 289.982,363.237 293.685,363.599 295.595 C 363.821 296.765,364.287 298.280,364.634 298.961 C 364.982 299.643,365.435 301.357,365.642 302.772 C 365.848 304.186,366.309 306.166,366.665 307.172 C 367.457 309.409,367.594 321.716,366.843 323.120 C 366.592 323.588,366.138 325.396,365.834 327.137 C 365.530 328.879,365.010 330.730,364.677 331.252 C 364.345 331.773,363.856 333.280,363.590 334.600 C 362.845 338.293,360.244 343.256,357.645 345.940 C 356.410 347.216,354.950 348.931,354.400 349.752 C 353.122 351.661,351.262 353.600,350.711 353.600 C 350.213 353.600,346.143 356.245,345.809 356.785 C 345.685 356.986,344.552 357.726,343.292 358.428 C 342.031 359.131,340.370 360.121,339.600 360.628 C 338.830 361.136,337.120 361.819,335.800 362.147 C 334.480 362.474,330.520 363.462,327.000 364.342 C 314.457 367.479,314.999 367.403,305.400 367.363 C 298.046 367.333,296.008 367.192,293.000 366.505 C 291.020 366.052,288.500 365.564,287.400 365.419 C 286.300 365.274,284.860 364.910,284.200 364.610 C 283.540 364.310,281.830 363.860,280.400 363.610 C 278.970 363.359,276.900 362.829,275.800 362.431 C 274.700 362.033,273.102 361.581,272.248 361.426 C 270.540 361.116,268.250 359.799,265.818 357.729 C 264.948 356.989,263.508 356.172,262.618 355.914 C 260.891 355.414,260.307 355.029,256.080 351.600 C 252.294 348.528,245.407 341.478,244.342 339.582 C 243.853 338.712,243.320 338.000,243.157 338.000 C 242.995 338.000,242.650 337.359,242.392 336.576 C 242.133 335.792,241.312 334.226,240.567 333.094 L 239.213 331.038 240.106 330.020 C 240.598 329.460,241.221 328.860,241.491 328.686 C 241.761 328.512,242.841 327.572,243.891 326.596 C 245.069 325.501,246.336 324.723,247.200 324.563 C 247.970 324.421,249.590 323.743,250.800 323.056 C 252.010 322.369,253.871 321.342,254.935 320.774 C 255.999 320.206,257.709 319.019,258.735 318.136 C 259.772 317.243,261.577 316.210,262.800 315.811 C 264.010 315.415,265.456 314.862,266.012 314.581 C 267.584 313.788,269.649 315.365,272.539 319.567 C 274.544 322.480,275.563 323.615,277.406 324.985 C 278.283 325.637,279.900 327.010,281.000 328.036 C 283.261 330.145,286.259 331.770,288.542 332.124 C 289.391 332.256,290.777 332.724,291.623 333.165 C 296.215 335.559,312.009 335.890,315.769 333.672 C 316.513 333.232,318.117 332.666,319.332 332.414 C 322.376 331.782,326.740 328.424,328.210 325.581 C 328.546 324.932,328.976 324.400,329.167 324.400 C 330.531 324.400,331.376 316.487,330.597 311.000 C 330.255 308.587,329.718 307.690,326.826 304.700 C 325.602 303.434,324.174 301.850,323.653 301.179 C 322.699 299.950,320.904 298.946,317.611 297.797 C 316.628 297.454,315.458 296.835,315.011 296.422 C 313.498 295.021,306.619 291.733,302.426 290.406 C 300.130 289.680,297.700 288.770,297.026 288.384 C 296.352 287.998,295.373 287.554,294.850 287.398 C 294.328 287.242,292.856 286.397,291.579 285.521 C 290.302 284.645,288.479 283.760,287.528 283.556 C 285.033 283.020,278.788 279.763,276.319 277.711 C 275.154 276.742,272.966 275.343,271.459 274.602 C 269.313 273.548,268.242 272.679,266.531 270.605 C 265.328 269.146,264.042 267.841,263.672 267.703 C 262.009 267.084,260.291 265.220,259.151 262.800 C 258.478 261.370,257.240 259.377,256.400 258.371 C 254.423 256.004,252.638 252.033,251.792 248.117 C 251.421 246.403,250.934 244.190,250.709 243.200 C 250.149 240.728,250.160 222.279,250.724 220.000 C 250.968 219.010,251.531 216.612,251.974 214.670 C 252.507 212.334,253.121 210.734,253.790 209.939 C 254.345 209.279,254.800 208.580,254.800 208.387 C 254.800 207.991,256.492 205.318,257.324 204.400 C 258.261 203.365,260.400 200.074,260.400 199.666 C 260.400 199.107,262.866 196.400,263.375 196.400 C 263.988 196.400,267.126 194.055,269.006 192.192 C 271.415 189.804,276.519 187.247,280.544 186.412 C 281.678 186.176,283.144 185.629,283.803 185.194 C 284.461 184.760,285.386 184.404,285.858 184.403 C 286.330 184.401,287.950 184.011,289.458 183.535 C 293.927 182.125,306.112 181.535,313.400 182.375 M179.475 183.522 L 178.400 184.644 178.400 247.714 C 178.400 290.108,178.254 312.786,177.955 316.892 L 177.510 323.000 175.655 326.064 C 174.385 328.160,173.390 329.326,172.500 329.757 C 171.785 330.104,171.200 330.547,171.200 330.742 C 171.200 330.937,170.345 331.313,169.300 331.578 C 168.255 331.843,166.770 332.343,166.000 332.687 C 163.351 333.874,156.934 333.873,154.379 332.686 C 153.180 332.129,151.448 331.553,150.529 331.406 C 149.212 331.196,148.366 330.654,146.529 328.846 C 143.348 325.714,140.400 322.513,140.400 322.190 C 140.400 322.044,140.065 321.446,139.655 320.862 C 139.246 320.278,138.748 319.097,138.550 318.239 C 137.912 315.482,134.229 314.042,132.007 315.681 C 131.619 315.966,130.331 316.940,129.143 317.845 C 127.956 318.749,125.908 320.084,124.592 320.812 C 123.276 321.539,121.930 322.357,121.600 322.630 C 121.270 322.902,120.278 323.318,119.396 323.552 C 118.390 323.820,116.785 324.873,115.088 326.380 C 111.984 329.135,111.555 329.394,109.479 329.769 C 108.642 329.921,107.858 330.304,107.736 330.622 C 107.614 330.940,107.295 331.200,107.027 331.200 C 104.789 331.200,104.312 335.349,106.165 338.703 C 106.498 339.306,107.055 340.397,107.402 341.126 C 108.341 343.101,109.989 345.249,111.924 347.021 C 112.872 347.889,114.167 349.504,114.801 350.609 C 116.172 352.996,117.258 354.049,119.354 355.022 C 120.209 355.418,121.919 356.673,123.154 357.810 C 124.389 358.946,125.870 360.129,126.445 360.438 C 131.592 363.204,133.722 364.120,135.795 364.458 C 137.112 364.672,138.465 365.097,138.800 365.400 C 139.136 365.704,140.308 366.170,141.405 366.437 C 142.502 366.703,144.390 367.271,145.600 367.699 C 153.840 370.609,171.451 369.967,181.200 366.400 C 183.070 365.716,185.822 364.822,187.316 364.414 C 188.810 364.006,190.250 363.496,190.516 363.282 C 190.782 363.068,191.608 362.762,192.352 362.603 C 193.245 362.412,194.603 361.437,196.352 359.734 C 197.808 358.314,199.605 356.895,200.345 356.578 C 201.840 355.939,204.800 353.086,204.800 352.285 C 204.800 352.002,205.990 350.517,207.444 348.985 C 210.055 346.235,210.932 344.644,212.286 340.200 C 212.621 339.100,213.131 337.930,213.418 337.600 C 213.705 337.270,214.166 336.100,214.443 335.000 C 214.719 333.900,215.262 332.460,215.649 331.800 C 216.036 331.140,216.468 329.610,216.609 328.400 C 216.750 327.190,217.166 325.480,217.533 324.600 C 218.146 323.131,218.209 317.341,218.307 253.688 L 218.413 184.377 217.425 183.388 L 216.436 182.400 198.493 182.400 L 180.550 182.400 179.475 183.522 M215.382 184.648 C 217.266 185.371,217.200 183.029,217.200 249.445 L 217.200 311.729 216.192 319.765 C 215.551 324.867,214.894 328.484,214.392 329.674 C 213.956 330.705,213.599 331.785,213.598 332.074 C 213.596 332.363,213.342 333.086,213.032 333.680 C 212.722 334.273,212.171 335.783,211.807 337.036 C 211.443 338.288,210.910 339.692,210.623 340.156 C 210.335 340.620,209.906 341.810,209.668 342.800 C 209.336 344.189,208.593 345.275,206.418 347.554 C 204.868 349.179,203.600 350.683,203.600 350.897 C 203.600 351.815,201.093 354.330,199.129 355.381 C 197.958 356.008,195.901 357.564,194.558 358.838 C 193.214 360.113,191.594 361.265,190.958 361.400 C 190.321 361.534,188.712 362.067,187.382 362.585 C 186.051 363.103,184.071 363.656,182.982 363.815 C 181.892 363.974,180.518 364.348,179.929 364.647 C 172.385 368.474,154.971 368.378,141.600 364.434 C 133.890 362.160,130.813 361.144,130.601 360.801 C 130.319 360.345,126.237 357.600,125.841 357.600 C 125.689 357.600,124.501 356.715,123.201 355.633 C 121.901 354.551,120.472 353.550,120.024 353.408 C 119.207 353.148,116.810 350.971,116.789 350.469 C 116.772 350.067,114.681 347.377,112.726 345.243 C 110.929 343.283,108.000 339.075,108.000 338.455 C 108.000 338.259,107.752 337.892,107.448 337.640 C 106.759 337.068,106.329 335.024,106.638 333.790 C 106.875 332.847,109.379 331.397,112.434 330.434 C 113.223 330.185,114.393 329.427,115.034 328.749 C 116.583 327.113,119.279 325.430,124.563 322.803 C 127.389 321.398,129.641 319.949,130.955 318.689 C 134.222 315.556,136.525 316.045,137.625 320.105 C 139.655 327.591,149.234 334.312,158.432 334.704 C 169.524 335.176,175.803 331.804,178.733 323.800 L 179.758 321.000 179.880 291.200 C 179.947 274.810,180.046 244.300,180.101 223.400 C 180.155 202.500,180.346 185.175,180.524 184.900 C 180.867 184.369,214.031 184.130,215.382 184.648 " stroke="none" fill="#9c9146" fill-rule="evenodd"></path></g></svg>