<svg id="svg" version="1.1" xmlns="http://www.w3.org/2000/svg" xmlns:xlink="http://www.w3.org/1999/xlink" width="400" height="400" viewBox="0, 0, 400,400"><g id="svgg"><path id="path0" d="M59.451 79.683 C 59.604 79.930,59.542 80.011,59.310 79.868 C 58.819 79.565,56.400 80.696,56.400 81.229 C 56.400 81.433,56.119 81.600,55.776 81.600 C 55.433 81.600,55.264 81.780,55.400 82.000 C 55.536 82.220,55.476 82.400,55.266 82.400 C 55.057 82.400,54.608 83.075,54.268 83.900 C 53.496 85.774,53.292 224.000,54.060 224.000 C 54.294 224.000,54.391 224.246,54.275 224.548 C 54.044 225.152,55.507 227.827,55.870 227.463 C 55.995 227.338,56.629 227.768,57.279 228.418 C 58.456 229.594,59.069 229.959,58.603 229.205 C 58.463 228.978,58.623 228.911,58.977 229.046 C 59.317 229.177,59.509 229.424,59.403 229.595 C 59.297 229.767,59.748 230.130,60.405 230.402 C 61.062 230.674,61.600 231.041,61.600 231.217 C 61.600 231.393,62.140 231.655,62.800 231.800 C 63.460 231.945,64.000 232.229,64.000 232.432 C 64.000 232.634,64.248 232.800,64.551 232.800 C 64.854 232.800,65.321 233.064,65.589 233.387 C 65.857 233.710,66.194 233.940,66.338 233.898 C 66.482 233.856,67.056 234.127,67.613 234.500 C 68.171 234.873,69.021 235.239,69.503 235.312 C 69.985 235.386,70.519 235.600,70.690 235.787 C 70.860 235.975,70.730 235.996,70.400 235.834 C 70.070 235.673,70.149 235.824,70.576 236.170 C 71.004 236.517,71.579 236.800,71.856 236.800 C 72.132 236.800,72.841 237.247,73.430 237.793 C 74.019 238.338,74.636 238.702,74.800 238.600 C 74.965 238.498,75.863 238.967,76.796 239.643 C 77.728 240.318,78.367 240.630,78.216 240.336 C 78.065 240.041,78.206 240.125,78.530 240.521 C 78.973 241.063,79.171 241.113,79.328 240.721 C 79.467 240.373,79.547 240.424,79.568 240.873 C 79.586 241.243,79.960 241.660,80.400 241.800 C 80.840 241.940,81.200 242.207,81.200 242.395 C 81.200 242.583,81.738 242.855,82.395 242.999 C 83.053 243.143,83.694 243.428,83.819 243.631 C 83.945 243.834,84.476 244.000,85.000 244.000 C 85.524 244.000,86.064 244.180,86.200 244.400 C 86.336 244.620,86.627 244.800,86.847 244.800 C 87.067 244.800,87.136 244.620,87.000 244.400 C 86.864 244.180,86.933 244.000,87.153 244.000 C 87.373 244.000,87.650 244.157,87.768 244.348 C 87.886 244.539,88.842 244.423,89.891 244.089 C 92.000 243.418,94.530 241.735,94.210 241.216 C 94.097 241.033,94.274 240.781,94.602 240.654 C 94.932 240.528,95.203 239.926,95.206 239.313 C 95.211 238.447,95.298 238.333,95.600 238.800 C 95.934 239.317,95.989 239.307,95.994 238.724 C 95.997 238.352,95.793 237.919,95.539 237.763 C 95.215 237.562,95.277 237.333,95.747 236.989 C 96.364 236.538,96.407 233.501,96.307 196.850 C 96.248 175.043,96.300 157.200,96.423 157.200 C 96.546 157.200,96.962 156.484,97.348 155.608 C 97.734 154.733,98.174 154.034,98.325 154.056 C 99.101 154.166,99.332 153.944,98.800 153.600 C 98.291 153.271,98.310 153.211,98.924 153.206 C 99.368 153.202,99.537 153.022,99.362 152.738 C 99.189 152.459,99.252 152.385,99.520 152.550 C 100.037 152.870,102.070 152.437,101.835 152.057 C 101.200 151.032,107.134 152.277,108.262 153.405 C 108.594 153.736,109.030 153.905,109.232 153.780 C 109.435 153.655,109.600 153.722,109.600 153.928 C 109.600 154.134,110.140 154.527,110.800 154.800 C 111.460 155.073,112.000 155.431,112.000 155.594 C 112.000 155.758,112.855 156.208,113.900 156.595 C 114.945 156.981,115.981 157.519,116.201 157.790 C 116.615 158.298,119.955 160.150,120.515 160.182 C 120.688 160.192,121.000 160.470,121.208 160.800 C 121.417 161.130,121.591 161.255,121.594 161.077 C 121.602 160.648,124.000 162.076,124.000 162.510 C 124.000 162.695,124.180 162.736,124.400 162.600 C 124.620 162.464,124.800 162.554,124.800 162.800 C 124.800 163.046,124.980 163.136,125.200 163.000 C 125.420 162.864,125.600 162.943,125.600 163.176 C 125.600 163.409,125.836 163.600,126.125 163.600 C 126.413 163.600,127.036 163.960,127.508 164.400 C 127.980 164.840,128.734 165.200,129.183 165.200 C 129.632 165.200,130.000 165.380,130.000 165.600 C 130.000 165.820,130.276 166.000,130.613 166.000 C 130.949 166.000,131.328 166.269,131.454 166.598 C 131.581 166.926,131.845 167.096,132.042 166.974 C 132.239 166.852,132.400 166.954,132.400 167.200 C 132.400 167.446,132.557 167.550,132.748 167.432 C 132.940 167.313,133.503 167.569,134.000 168.000 C 134.497 168.431,135.060 168.687,135.252 168.568 C 135.443 168.450,135.600 168.523,135.600 168.730 C 135.600 168.938,136.072 169.417,136.649 169.795 C 137.226 170.174,137.576 170.284,137.426 170.041 C 136.924 169.229,137.697 169.588,138.640 170.605 C 139.152 171.158,139.712 171.586,139.885 171.557 C 140.688 171.424,141.224 171.637,141.000 172.000 C 140.864 172.220,141.033 172.400,141.376 172.400 C 141.719 172.400,142.090 172.400,142.200 172.400 C 142.310 172.400,142.767 172.767,143.216 173.216 C 143.925 173.925,145.131 174.573,146.091 174.761 C 146.251 174.793,146.828 175.264,147.373 175.809 C 147.918 176.354,148.655 176.800,149.010 176.800 C 149.366 176.800,149.927 177.070,150.257 177.400 C 150.587 177.730,151.234 178.000,151.695 178.000 C 152.156 178.000,152.413 178.120,152.266 178.268 C 151.913 178.620,155.173 180.464,155.639 180.176 C 155.838 180.053,156.000 180.118,156.000 180.319 C 156.000 180.800,160.060 180.789,160.682 180.305 C 160.948 180.100,161.353 180.047,161.582 180.189 C 161.812 180.331,162.000 180.257,162.000 180.024 C 162.000 179.791,162.251 179.600,162.557 179.600 C 162.864 179.600,163.213 179.343,163.334 179.029 C 163.454 178.715,164.058 178.400,164.676 178.329 C 165.313 178.256,165.757 177.983,165.700 177.700 C 165.645 177.425,165.735 177.229,165.900 177.265 C 166.535 177.404,171.123 174.976,171.694 174.200 C 171.890 173.933,171.994 173.933,172.007 174.200 C 172.017 174.420,172.290 174.251,172.613 173.824 C 172.936 173.396,173.200 173.203,173.200 173.393 C 173.200 173.584,173.625 173.340,174.145 172.851 C 174.665 172.363,175.250 172.000,175.445 172.045 C 176.068 172.189,177.204 171.530,176.974 171.158 C 176.852 170.961,177.111 170.800,177.548 170.800 C 177.985 170.800,178.581 170.575,178.873 170.300 C 179.954 169.280,180.948 168.609,180.656 169.095 C 180.454 169.432,180.558 169.514,180.979 169.353 C 181.321 169.222,181.600 168.954,181.600 168.757 C 181.600 168.561,181.870 168.400,182.200 168.400 C 182.530 168.400,182.800 168.220,182.800 168.000 C 182.800 167.780,183.070 167.600,183.400 167.600 C 183.730 167.600,184.000 167.409,184.000 167.176 C 184.000 166.943,184.190 166.870,184.421 167.013 C 184.653 167.156,185.169 166.897,185.568 166.437 C 185.967 165.977,186.598 165.600,186.971 165.600 C 187.343 165.600,187.549 165.440,187.428 165.245 C 187.307 165.050,187.522 164.915,187.904 164.945 C 188.287 164.975,188.555 164.775,188.500 164.500 C 188.445 164.225,188.535 164.041,188.700 164.092 C 189.290 164.273,192.214 162.870,192.953 162.052 C 193.368 161.594,193.863 161.315,194.053 161.433 C 194.244 161.551,194.400 161.427,194.400 161.157 C 194.400 160.887,194.517 160.784,194.660 160.927 C 194.804 161.070,195.177 160.875,195.490 160.494 C 195.803 160.112,195.945 160.025,195.806 160.300 C 195.474 160.956,195.806 160.937,196.480 160.263 C 197.389 159.354,200.507 157.501,200.175 158.067 C 199.993 158.378,200.182 158.328,200.631 157.947 C 201.054 157.587,202.120 156.928,203.000 156.481 C 203.880 156.035,204.964 155.325,205.409 154.904 C 205.853 154.483,206.463 154.221,206.764 154.321 C 207.092 154.431,207.200 154.324,207.035 154.056 C 206.862 153.777,206.979 153.694,207.349 153.836 C 207.700 153.971,208.121 153.722,208.389 153.220 C 208.637 152.757,209.011 152.483,209.220 152.612 C 209.429 152.742,209.600 152.686,209.600 152.489 C 209.600 152.292,210.359 152.101,211.287 152.065 C 212.214 152.029,213.294 151.897,213.687 151.773 C 214.108 151.639,214.400 151.748,214.400 152.040 C 214.400 152.311,214.518 152.415,214.663 152.270 C 214.808 152.125,215.168 152.207,215.463 152.452 C 215.758 152.697,216.000 152.746,216.000 152.560 C 216.000 152.374,216.282 152.625,216.627 153.118 C 216.972 153.610,217.421 153.911,217.624 153.785 C 217.827 153.660,218.298 154.197,218.670 154.979 C 219.043 155.760,219.489 156.400,219.662 156.400 C 219.834 156.400,219.871 156.670,219.745 157.000 C 219.610 157.352,219.739 157.600,220.057 157.600 C 220.508 157.600,220.589 161.276,220.533 179.391 L 220.466 201.182 219.333 202.178 C 218.710 202.726,217.975 203.180,217.700 203.187 C 217.425 203.194,217.200 203.391,217.200 203.624 C 217.200 203.857,217.020 203.936,216.800 203.800 C 216.580 203.664,216.400 203.754,216.400 204.000 C 216.400 204.246,216.220 204.336,216.000 204.200 C 215.780 204.064,215.600 204.143,215.600 204.376 C 215.600 204.609,215.352 204.800,215.049 204.800 C 214.746 204.800,214.276 205.068,214.004 205.396 C 213.732 205.723,213.376 205.909,213.214 205.808 C 213.051 205.708,212.576 205.890,212.159 206.214 C 211.421 206.786,211.422 206.795,212.200 206.537 C 212.640 206.392,212.881 206.405,212.737 206.566 C 212.509 206.820,211.691 207.064,210.716 207.169 C 210.559 207.186,210.038 207.605,209.557 208.100 C 209.076 208.595,208.809 208.775,208.965 208.500 C 209.439 207.661,208.442 207.944,207.907 208.800 C 207.632 209.240,207.082 209.600,206.685 209.600 C 206.287 209.600,205.491 210.095,204.915 210.700 C 204.340 211.305,203.999 211.575,204.158 211.300 C 204.620 210.500,203.832 210.723,203.226 211.564 C 202.924 211.984,202.472 212.249,202.224 212.154 C 201.975 212.058,201.381 212.345,200.903 212.790 C 200.425 213.236,199.870 213.600,199.671 213.600 C 199.471 213.600,198.834 213.973,198.254 214.429 C 197.674 214.885,197.200 215.124,197.200 214.959 C 197.200 214.795,196.782 215.054,196.270 215.534 C 195.759 216.014,195.245 216.311,195.127 216.194 C 195.010 216.077,194.686 216.255,194.408 216.590 C 194.130 216.926,193.688 217.200,193.426 217.200 C 193.165 217.200,192.560 217.564,192.083 218.008 C 191.606 218.453,191.077 218.815,190.908 218.813 C 190.180 218.805,189.200 219.285,189.200 219.651 C 189.200 219.869,189.020 219.936,188.800 219.800 C 188.580 219.664,188.400 219.729,188.400 219.945 C 188.400 220.161,187.758 220.550,186.973 220.809 C 185.944 221.148,185.611 221.452,185.782 221.897 C 185.974 222.399,185.909 222.423,185.432 222.026 C 184.956 221.631,184.747 221.696,184.326 222.370 C 184.041 222.826,183.489 223.200,183.100 223.200 C 182.711 223.200,182.084 223.560,181.707 224.000 C 181.330 224.440,180.785 224.800,180.495 224.800 C 179.625 224.800,176.638 226.462,176.077 227.258 C 175.790 227.666,175.205 228.000,174.777 228.000 C 174.350 228.000,174.000 228.199,174.000 228.443 C 174.000 228.686,173.730 228.782,173.400 228.655 C 173.070 228.529,172.800 228.572,172.800 228.752 C 172.800 228.931,172.074 229.406,171.186 229.806 C 170.298 230.207,169.103 230.969,168.529 231.501 C 167.955 232.033,167.156 232.532,166.752 232.609 C 166.349 232.687,165.387 233.255,164.615 233.871 C 163.842 234.488,162.983 235.012,162.705 235.035 C 161.361 235.150,161.169 235.227,161.380 235.567 C 161.505 235.770,161.064 236.054,160.400 236.200 C 159.736 236.346,159.283 236.610,159.392 236.787 C 159.502 236.965,159.324 237.085,158.998 237.055 C 158.017 236.964,158.047 283.332,159.029 285.557 C 159.602 286.856,161.081 288.105,162.000 288.065 C 162.110 288.061,162.345 288.315,162.521 288.631 C 163.044 289.566,165.901 290.878,166.138 290.292 C 166.260 289.989,166.349 290.051,166.368 290.454 C 166.386 290.814,166.872 291.417,167.449 291.795 C 168.026 292.174,168.364 292.266,168.200 292.000 C 168.036 291.734,168.374 291.826,168.951 292.205 C 169.528 292.583,170.000 293.022,170.000 293.182 C 170.000 293.813,171.888 294.351,172.410 293.869 C 172.689 293.611,172.828 293.580,172.718 293.800 C 172.609 294.020,173.168 294.740,173.960 295.399 C 174.752 296.059,175.130 296.255,174.800 295.834 C 173.981 294.789,175.667 295.659,177.177 297.060 C 177.740 297.581,178.425 297.922,178.700 297.817 C 178.975 297.711,179.200 297.889,179.200 298.213 C 179.200 298.536,179.428 298.800,179.707 298.800 C 179.986 298.800,180.877 299.250,181.686 299.800 C 182.495 300.350,183.437 300.800,183.779 300.800 C 184.120 300.800,184.400 300.939,184.400 301.108 C 184.400 301.278,185.255 301.863,186.300 302.408 C 187.345 302.954,188.290 303.506,188.400 303.635 C 188.510 303.764,189.815 304.464,191.300 305.190 C 192.785 305.916,194.000 306.684,194.000 306.898 C 194.000 307.111,194.279 307.178,194.621 307.047 C 194.962 306.916,195.140 306.974,195.015 307.176 C 194.799 307.525,195.789 308.025,196.564 307.959 C 196.764 307.942,197.088 308.214,197.284 308.564 C 197.480 308.914,197.901 309.200,198.220 309.200 C 198.539 309.200,198.800 309.391,198.800 309.624 C 198.800 309.857,198.980 309.936,199.200 309.800 C 199.420 309.664,199.600 309.724,199.600 309.933 C 199.600 310.142,200.050 310.426,200.600 310.564 C 201.150 310.702,201.600 311.002,201.600 311.231 C 201.600 311.460,201.780 311.536,202.000 311.400 C 202.220 311.264,202.400 311.331,202.400 311.549 C 202.400 311.954,203.564 312.467,204.092 312.295 C 204.253 312.243,204.658 312.591,204.993 313.068 C 205.327 313.546,206.116 314.050,206.746 314.188 C 207.376 314.327,208.269 314.791,208.729 315.220 C 209.190 315.649,209.822 316.000,210.134 316.000 C 210.447 316.000,210.933 316.278,211.215 316.618 C 211.497 316.958,211.979 317.140,212.285 317.023 C 212.591 316.905,212.732 316.987,212.597 317.205 C 212.463 317.422,212.618 317.600,212.943 317.600 C 213.268 317.600,213.593 317.766,213.667 317.970 C 213.740 318.173,214.066 318.398,214.390 318.470 C 214.715 318.541,215.225 318.827,215.523 319.104 C 215.821 319.381,216.230 319.505,216.432 319.380 C 216.635 319.255,216.800 319.453,216.800 319.819 C 216.800 320.254,217.013 320.404,217.415 320.250 C 217.765 320.115,218.128 320.269,218.257 320.604 C 218.382 320.929,218.645 321.096,218.842 320.974 C 219.039 320.852,219.200 320.924,219.200 321.133 C 219.200 321.342,219.650 321.626,220.200 321.764 C 220.750 321.902,221.200 322.192,221.200 322.408 C 221.200 322.623,221.560 322.800,222.000 322.800 C 222.440 322.800,222.800 322.973,222.800 323.184 C 222.800 323.395,223.520 323.784,224.400 324.047 C 225.280 324.311,226.000 324.768,226.000 325.063 C 226.000 325.358,226.298 325.600,226.662 325.600 C 227.026 325.600,227.941 326.070,228.694 326.644 C 229.447 327.219,230.481 327.714,230.993 327.744 C 231.505 327.775,231.852 327.915,231.766 328.055 C 231.680 328.195,231.877 328.532,232.204 328.804 C 232.532 329.076,232.800 329.173,232.800 329.020 C 232.800 328.868,233.075 329.018,233.412 329.354 C 233.748 329.691,234.288 329.864,234.612 329.740 C 234.935 329.616,235.200 329.714,235.200 329.957 C 235.200 330.201,235.470 330.400,235.800 330.400 C 236.130 330.400,236.400 330.670,236.400 331.000 C 236.400 331.625,236.434 331.642,237.893 331.796 C 238.384 331.848,239.018 332.083,239.302 332.318 C 239.783 332.718,243.175 332.676,245.000 332.249 C 245.440 332.146,245.954 332.047,246.143 332.031 C 246.331 332.014,246.380 331.726,246.252 331.391 C 246.061 330.894,246.164 330.859,246.809 331.205 C 247.244 331.438,247.600 331.469,247.600 331.275 C 247.600 331.080,248.320 330.597,249.200 330.200 C 250.080 329.803,250.800 329.315,250.800 329.116 C 250.800 328.916,250.956 328.849,251.147 328.967 C 251.337 329.085,251.811 328.830,252.200 328.400 C 252.589 327.970,253.044 327.704,253.212 327.807 C 253.379 327.911,253.614 327.740,253.734 327.428 C 253.948 326.871,255.727 325.914,257.498 325.406 C 257.991 325.264,258.698 324.844,259.069 324.474 C 259.440 324.103,259.846 323.795,259.971 323.790 C 260.480 323.767,262.800 322.587,262.800 322.351 C 262.800 322.211,263.340 321.873,264.000 321.600 C 264.660 321.327,265.200 320.934,265.200 320.728 C 265.200 320.522,265.380 320.464,265.600 320.600 C 265.820 320.736,266.000 320.646,266.000 320.400 C 266.000 320.154,266.149 320.045,266.332 320.158 C 266.514 320.270,267.322 319.819,268.128 319.155 C 268.949 318.478,269.797 318.074,270.058 318.236 C 270.348 318.415,270.416 318.349,270.238 318.062 C 270.060 317.773,270.244 317.600,270.727 317.600 C 271.153 317.600,271.726 317.330,272.000 317.000 C 272.274 316.670,272.757 316.400,273.073 316.400 C 273.405 316.400,273.527 316.205,273.362 315.938 C 273.180 315.644,273.253 315.585,273.563 315.777 C 273.831 315.943,274.354 315.820,274.725 315.505 C 275.096 315.190,275.985 314.700,276.700 314.417 C 277.415 314.134,278.000 313.734,278.000 313.528 C 278.000 313.322,278.180 313.264,278.400 313.400 C 278.620 313.536,278.800 313.471,278.800 313.255 C 278.800 313.039,279.443 312.650,280.228 312.391 C 281.013 312.132,281.753 311.668,281.871 311.360 C 281.989 311.052,282.314 310.800,282.594 310.800 C 282.873 310.800,283.324 310.532,283.596 310.204 C 283.868 309.877,284.229 309.694,284.398 309.799 C 284.568 309.904,285.132 309.662,285.653 309.263 C 286.174 308.863,286.915 308.421,287.300 308.281 C 287.685 308.140,288.000 307.829,288.000 307.589 C 288.000 307.349,288.179 307.263,288.398 307.399 C 288.616 307.534,289.398 307.184,290.135 306.622 C 290.872 306.060,291.610 305.600,291.774 305.600 C 291.938 305.600,292.371 305.277,292.736 304.881 C 293.101 304.486,293.220 304.425,293.000 304.747 C 292.663 305.239,292.734 305.259,293.453 304.877 C 293.922 304.627,294.410 304.150,294.538 303.818 C 294.665 303.485,295.023 303.311,295.333 303.430 C 295.643 303.549,296.190 303.353,296.548 302.994 C 296.907 302.636,297.200 302.446,297.200 302.571 C 297.200 302.697,297.560 302.440,298.000 302.000 C 298.440 301.560,299.154 301.200,299.586 301.200 C 300.018 301.200,300.548 300.872,300.762 300.470 C 300.977 300.069,301.854 299.531,302.711 299.274 C 303.568 299.017,304.597 298.445,304.997 298.003 C 305.397 297.562,305.977 297.200,306.286 297.200 C 306.594 297.200,306.746 297.037,306.623 296.837 C 306.500 296.638,306.759 296.569,307.199 296.684 C 307.647 296.801,308.000 296.696,308.000 296.447 C 308.000 296.201,308.320 296.000,308.712 296.000 C 309.103 296.000,309.683 295.640,310.000 295.200 C 310.317 294.760,310.897 294.400,311.288 294.400 C 311.680 294.400,312.360 294.040,312.800 293.600 C 313.240 293.160,313.600 292.902,313.600 293.027 C 313.600 293.152,314.095 292.902,314.700 292.471 C 315.801 291.687,316.016 291.600,316.843 291.600 C 317.086 291.600,317.178 291.321,317.047 290.979 C 316.915 290.635,316.979 290.464,317.191 290.594 C 317.605 290.850,320.624 289.433,321.471 288.586 C 321.758 288.299,322.626 287.855,323.400 287.600 C 324.174 287.345,324.714 286.985,324.600 286.800 C 324.486 286.615,325.069 286.250,325.896 285.988 C 326.723 285.726,327.609 285.250,327.864 284.929 C 328.119 284.609,328.389 284.403,328.464 284.472 C 328.539 284.541,329.230 284.225,330.000 283.771 C 330.770 283.317,331.494 282.957,331.609 282.972 C 331.725 282.988,332.225 282.622,332.720 282.160 C 333.216 281.698,334.337 281.106,335.211 280.844 C 336.085 280.582,336.800 280.204,336.800 280.003 C 336.800 279.802,337.565 279.291,338.500 278.868 C 339.435 278.445,340.599 277.715,341.088 277.246 C 341.576 276.776,342.116 276.422,342.288 276.459 C 342.917 276.596,344.000 275.899,344.000 275.357 C 344.000 275.051,344.289 274.800,344.643 274.800 C 345.059 274.800,345.202 274.582,345.047 274.179 C 344.916 273.838,344.977 273.662,345.183 273.789 C 346.565 274.644,347.171 182.743,345.805 179.473 C 345.223 178.080,342.981 176.000,342.062 176.000 C 341.808 176.000,341.600 175.799,341.600 175.553 C 341.600 175.294,341.186 175.186,340.612 175.296 C 340.069 175.399,339.719 175.330,339.836 175.142 C 340.170 174.601,337.161 174.778,335.405 175.403 C 334.527 175.716,333.747 176.158,333.671 176.386 C 333.595 176.614,333.202 176.800,332.797 176.800 C 332.392 176.800,331.220 177.442,330.191 178.227 C 329.163 179.012,328.224 179.557,328.105 179.438 C 327.986 179.319,327.212 179.757,326.386 180.411 C 325.561 181.065,324.618 181.600,324.291 181.600 C 323.965 181.600,323.480 181.863,323.213 182.185 C 322.946 182.506,322.339 182.887,321.864 183.031 C 321.389 183.175,320.370 183.767,319.600 184.346 C 318.830 184.926,317.930 185.408,317.600 185.419 C 317.270 185.429,317.043 185.647,317.095 185.904 C 317.148 186.161,316.936 186.274,316.626 186.155 C 316.316 186.036,315.703 186.297,315.264 186.736 C 314.826 187.174,314.362 187.428,314.233 187.300 C 314.105 187.172,314.000 187.254,314.000 187.483 C 314.000 187.713,313.448 188.010,312.773 188.145 C 312.092 188.282,311.658 188.570,311.797 188.795 C 311.935 189.018,311.750 189.200,311.387 189.200 C 310.417 189.200,308.654 190.672,309.292 190.948 C 309.571 191.069,309.278 191.059,308.640 190.926 C 307.914 190.774,307.573 190.833,307.728 191.083 C 307.864 191.303,307.538 191.682,307.005 191.925 C 304.418 193.104,304.235 194.453,304.132 213.182 C 304.074 223.502,304.187 230.343,304.419 230.622 C 304.662 230.916,304.636 231.552,304.345 232.385 C 304.048 233.237,303.961 235.637,304.094 239.331 C 304.206 242.436,304.162 245.251,303.998 245.588 C 303.833 245.924,303.469 246.917,303.189 247.794 C 302.597 249.647,299.384 253.000,298.200 253.000 C 297.756 253.000,297.447 253.231,297.506 253.519 C 297.565 253.804,297.385 253.996,297.106 253.945 C 296.311 253.800,293.909 255.016,292.700 256.177 C 292.095 256.757,291.597 257.090,291.594 256.916 C 291.591 256.742,291.413 256.870,291.200 257.200 C 290.878 257.698,290.811 257.703,290.806 257.230 C 290.802 256.820,290.543 256.902,289.883 257.522 C 289.378 257.996,288.388 258.585,287.683 258.831 C 286.943 259.089,286.397 259.558,286.394 259.939 C 286.389 260.454,286.313 260.482,286.050 260.066 C 285.777 259.637,285.664 259.656,285.468 260.166 C 285.335 260.515,284.879 260.800,284.455 260.800 C 284.032 260.800,283.578 261.081,283.446 261.425 C 283.314 261.769,283.031 261.943,282.817 261.811 C 282.604 261.679,282.078 261.922,281.648 262.352 C 281.218 262.782,280.762 263.028,280.633 262.900 C 280.505 262.772,280.400 262.877,280.400 263.133 C 280.400 263.390,280.265 263.564,280.100 263.521 C 279.520 263.368,277.991 264.061,278.191 264.386 C 278.303 264.567,277.946 264.827,277.397 264.965 C 276.849 265.103,276.400 265.392,276.400 265.608 C 276.400 265.823,275.993 266.000,275.496 266.000 C 274.999 266.000,274.118 266.439,273.539 266.976 C 272.960 267.513,272.377 267.843,272.243 267.710 C 272.109 267.576,272.000 267.707,272.000 268.000 C 272.000 268.293,271.885 268.419,271.745 268.278 C 271.605 268.138,270.992 268.378,270.383 268.812 C 269.775 269.245,269.069 269.600,268.815 269.600 C 268.561 269.600,268.453 269.762,268.576 269.961 C 268.699 270.160,268.259 270.510,267.600 270.740 C 266.940 270.970,266.395 271.033,266.388 270.879 C 266.381 270.726,266.192 270.915,265.968 271.300 C 265.744 271.685,265.231 272.000,264.829 272.000 C 264.427 272.000,263.867 272.278,263.584 272.619 C 263.302 272.959,262.155 273.687,261.035 274.235 C 258.677 275.392,257.650 276.002,256.888 276.700 C 256.588 276.975,255.996 277.200,255.571 277.200 C 255.147 277.200,254.800 277.359,254.800 277.554 C 254.800 277.749,254.170 278.208,253.400 278.573 C 252.630 278.939,252.000 279.420,252.000 279.642 C 252.000 279.865,251.821 279.937,251.602 279.801 C 251.384 279.666,250.619 279.971,249.902 280.478 C 249.186 280.985,248.354 281.452,248.053 281.516 C 247.752 281.579,246.925 282.074,246.215 282.616 C 245.505 283.157,244.446 283.600,243.862 283.600 C 243.278 283.600,242.800 283.768,242.800 283.973 C 242.800 284.179,242.266 284.331,241.614 284.313 C 240.961 284.294,240.508 284.148,240.607 283.988 C 240.755 283.750,239.286 283.241,237.885 283.044 C 237.712 283.020,237.418 282.752,237.230 282.449 C 237.043 282.146,236.685 282.024,236.435 282.178 C 236.171 282.341,236.026 282.237,236.090 281.930 C 236.151 281.638,235.930 281.400,235.600 281.400 C 235.270 281.400,234.910 281.310,234.800 281.200 C 233.933 280.333,231.688 279.053,231.110 279.097 C 230.720 279.126,230.400 279.002,230.400 278.821 C 230.400 278.391,228.372 277.067,227.712 277.067 C 227.431 277.067,227.200 276.950,227.200 276.808 C 227.200 276.666,226.570 276.302,225.800 276.000 C 225.030 275.698,224.400 275.348,224.400 275.223 C 224.400 274.776,222.010 273.947,221.548 274.232 C 221.288 274.393,221.182 274.353,221.312 274.143 C 221.441 273.933,221.382 273.500,221.180 273.181 C 220.901 272.740,220.811 272.727,220.806 273.129 C 220.801 273.567,220.700 273.567,220.214 273.129 C 218.741 271.801,218.364 271.575,217.995 271.803 C 217.778 271.937,217.600 271.786,217.600 271.466 C 217.600 270.790,216.521 270.278,215.902 270.661 C 215.668 270.805,215.592 270.737,215.733 270.508 C 215.874 270.280,215.407 269.855,214.695 269.563 C 213.983 269.272,213.160 268.800,212.868 268.513 C 212.575 268.227,212.166 268.098,211.958 268.226 C 211.750 268.354,211.630 268.308,211.690 268.122 C 211.751 267.936,211.305 267.250,210.700 266.596 C 210.095 265.943,209.600 265.181,209.600 264.904 C 209.600 264.627,209.426 264.400,209.213 264.400 C 208.999 264.400,208.936 264.112,209.071 263.760 C 209.206 263.407,209.065 262.960,208.758 262.766 C 208.373 262.522,208.352 262.410,208.691 262.406 C 208.986 262.402,209.165 261.880,209.140 261.100 C 209.117 260.385,209.121 259.530,209.149 259.200 C 209.217 258.417,210.800 256.619,211.725 256.275 C 212.124 256.127,212.351 255.844,212.228 255.645 C 212.106 255.447,212.462 255.171,213.019 255.031 C 213.577 254.891,213.926 254.604,213.796 254.393 C 213.665 254.182,213.815 254.107,214.128 254.228 C 214.441 254.348,214.977 254.166,215.320 253.823 C 215.663 253.480,216.136 253.200,216.371 253.200 C 216.607 253.200,216.800 253.020,216.800 252.800 C 216.800 252.580,217.146 252.400,217.569 252.400 C 217.992 252.400,218.873 251.950,219.527 251.400 C 220.181 250.850,220.934 250.400,221.201 250.400 C 221.471 250.400,221.582 250.130,221.452 249.791 C 221.269 249.315,221.371 249.263,221.915 249.554 C 222.670 249.958,224.000 249.266,224.000 248.468 C 224.000 248.225,224.263 248.126,224.585 248.250 C 224.913 248.376,225.571 248.043,226.085 247.489 C 226.588 246.948,227.598 246.374,228.328 246.214 C 229.177 246.029,229.585 245.737,229.458 245.407 C 229.325 245.060,229.512 244.956,230.030 245.092 C 230.453 245.203,230.800 245.092,230.800 244.847 C 230.800 244.601,230.935 244.437,231.100 244.482 C 231.440 244.575,234.094 243.234,234.400 242.814 C 234.510 242.663,235.230 242.193,236.000 241.770 C 236.770 241.346,237.490 240.910,237.600 240.800 C 237.710 240.690,238.070 240.600,238.400 240.600 C 238.730 240.600,238.966 240.407,238.924 240.171 C 238.881 239.934,239.736 239.421,240.823 239.031 C 241.909 238.640,242.707 238.173,242.596 237.993 C 242.484 237.813,242.916 237.550,243.555 237.410 C 244.194 237.270,245.030 236.809,245.412 236.387 C 245.794 235.964,246.264 235.716,246.457 235.835 C 246.649 235.954,247.069 235.815,247.389 235.526 C 248.426 234.591,249.019 234.203,249.616 234.068 C 249.937 233.996,250.484 233.681,250.831 233.368 C 251.179 233.056,251.674 232.800,251.931 232.800 C 252.189 232.800,252.400 232.620,252.400 232.400 C 252.400 232.180,252.771 232.000,253.224 232.000 C 253.734 232.000,253.941 231.828,253.768 231.548 C 253.598 231.273,253.706 231.170,254.044 231.285 C 254.350 231.390,254.901 231.131,255.270 230.711 C 255.638 230.291,256.051 229.978,256.187 230.015 C 256.688 230.152,258.784 229.097,258.600 228.800 C 258.496 228.631,258.946 228.271,259.600 228.000 C 260.254 227.729,260.697 227.357,260.584 227.174 C 260.470 226.990,260.743 226.645,261.189 226.406 C 261.635 226.167,262.000 225.608,262.000 225.162 C 262.000 224.717,262.180 224.464,262.400 224.600 C 262.622 224.737,262.801 224.437,262.802 223.924 C 262.971 137.469,262.934 85.717,262.705 85.859 C 262.542 85.959,262.514 85.769,262.642 85.435 C 262.770 85.101,262.527 84.327,262.102 83.714 C 261.678 83.101,261.217 82.285,261.078 81.900 C 260.939 81.515,260.549 81.200,260.213 81.200 C 259.876 81.200,259.600 81.063,259.600 80.896 C 259.600 80.729,259.195 80.337,258.700 80.025 C 257.738 79.419,251.600 79.103,251.600 79.660 C 251.600 79.833,251.300 79.860,250.934 79.719 C 250.510 79.557,250.366 79.622,250.538 79.899 C 250.700 80.162,250.321 80.442,249.584 80.603 C 248.524 80.836,248.431 80.957,248.881 81.513 C 249.303 82.034,249.304 82.096,248.882 81.842 C 248.593 81.669,248.074 81.767,247.706 82.066 C 247.143 82.522,247.097 82.512,247.392 82.000 C 247.672 81.514,247.592 81.522,246.969 82.045 C 246.546 82.399,245.430 83.021,244.489 83.427 C 243.388 83.901,242.851 84.356,242.984 84.703 C 243.098 84.999,243.025 85.139,242.823 85.014 C 242.372 84.736,239.600 86.012,239.600 86.498 C 239.600 86.690,239.440 86.749,239.245 86.628 C 239.050 86.507,238.668 86.677,238.396 87.004 C 238.124 87.332,237.674 87.600,237.396 87.600 C 237.118 87.600,235.989 88.220,234.888 88.977 C 233.788 89.734,232.777 90.244,232.643 90.110 C 232.510 89.976,232.400 90.155,232.400 90.506 C 232.400 90.858,232.040 91.260,231.600 91.400 C 231.160 91.540,230.797 91.867,230.794 92.127 C 230.790 92.448,230.680 92.429,230.452 92.070 C 230.184 91.647,229.970 91.688,229.387 92.270 C 228.985 92.672,228.599 92.955,228.529 92.900 C 228.158 92.612,227.613 92.863,227.700 93.281 C 227.755 93.546,227.530 93.789,227.200 93.820 C 226.870 93.852,226.375 93.906,226.100 93.939 C 225.825 93.973,225.597 94.315,225.594 94.700 C 225.589 95.202,225.498 95.258,225.269 94.897 C 225.033 94.526,224.603 94.704,223.622 95.580 C 222.892 96.232,222.184 96.737,222.048 96.703 C 221.368 96.534,220.017 97.308,220.258 97.729 C 220.407 97.988,220.387 98.073,220.215 97.917 C 219.901 97.634,217.104 98.890,216.139 99.746 C 214.866 100.876,214.394 101.217,214.108 101.213 C 213.316 101.204,212.412 101.695,212.615 102.024 C 212.740 102.226,212.562 102.284,212.221 102.153 C 211.879 102.022,211.600 102.094,211.600 102.314 C 211.600 102.534,211.143 102.828,210.584 102.968 C 210.025 103.109,209.652 103.361,209.756 103.529 C 209.860 103.697,209.582 103.861,209.139 103.895 C 208.695 103.928,207.997 104.342,207.588 104.814 C 207.178 105.287,206.659 105.560,206.436 105.422 C 206.212 105.284,205.663 105.537,205.215 105.985 C 204.767 106.433,204.302 106.787,204.183 106.771 C 204.063 106.755,203.298 107.148,202.483 107.646 C 201.667 108.144,200.865 108.517,200.700 108.475 C 200.535 108.434,200.400 108.580,200.400 108.800 C 200.400 109.020,200.130 109.200,199.800 109.200 C 199.470 109.200,199.197 109.515,199.194 109.900 C 199.189 110.443,199.111 110.479,198.845 110.059 C 198.577 109.636,198.361 109.720,197.851 110.448 C 197.424 111.058,197.195 111.176,197.187 110.789 C 197.177 110.379,196.940 110.479,196.408 111.118 C 195.988 111.622,195.545 112.032,195.426 112.028 C 194.926 112.013,193.772 112.584,193.400 113.031 C 193.180 113.295,192.312 113.730,191.472 113.996 C 190.632 114.263,189.843 114.743,189.720 115.063 C 189.597 115.384,189.250 115.551,188.948 115.436 C 188.647 115.320,188.400 115.380,188.400 115.569 C 188.400 115.758,187.671 116.205,186.779 116.562 C 185.888 116.918,185.269 117.388,185.403 117.605 C 185.537 117.822,185.371 118.000,185.034 118.000 C 184.006 118.000,180.800 119.726,180.800 120.280 C 180.800 120.566,180.575 120.821,180.300 120.846 C 179.325 120.936,178.988 121.039,177.900 121.581 C 177.295 121.882,176.800 122.370,176.800 122.664 C 176.800 122.959,176.665 123.179,176.500 123.153 C 175.485 122.992,174.799 123.293,174.794 123.900 C 174.789 124.498,174.731 124.513,174.400 124.000 C 174.142 123.600,174.010 123.567,174.006 123.900 C 174.003 124.175,173.773 124.400,173.496 124.400 C 173.219 124.400,172.499 124.857,171.896 125.416 C 171.253 126.012,170.797 126.219,170.794 125.916 C 170.790 125.571,170.691 125.543,170.494 125.832 C 170.332 126.069,169.165 126.766,167.900 127.379 C 166.635 127.992,165.600 128.639,165.600 128.816 C 165.600 128.993,164.968 129.346,164.196 129.601 C 163.372 129.873,162.902 130.242,163.058 130.494 C 163.204 130.730,163.142 130.812,162.921 130.675 C 162.699 130.538,162.176 130.684,161.759 131.000 C 161.342 131.316,160.606 131.580,160.124 131.587 C 159.642 131.594,159.146 131.764,159.022 131.964 C 158.848 132.246,157.400 132.279,157.400 132.001 C 157.400 131.968,156.987 131.864,156.483 131.770 C 155.979 131.677,155.180 131.240,154.708 130.800 C 154.236 130.360,153.658 130.003,153.425 130.006 C 153.191 130.009,153.270 130.187,153.600 130.400 C 153.930 130.613,154.053 130.791,153.873 130.794 C 153.496 130.801,150.743 128.801,150.306 128.202 C 150.144 127.981,150.009 127.947,150.006 128.127 C 150.003 128.307,149.461 128.071,148.803 127.602 C 148.144 127.133,147.420 126.864,147.193 127.004 C 146.966 127.145,146.830 127.021,146.890 126.730 C 146.951 126.438,146.775 126.245,146.500 126.300 C 146.225 126.355,146.000 126.209,146.000 125.976 C 146.000 125.743,145.820 125.664,145.600 125.800 C 145.380 125.936,145.200 125.827,145.200 125.557 C 145.200 125.287,145.091 125.176,144.958 125.309 C 144.824 125.442,144.264 125.101,143.714 124.550 C 143.163 123.999,142.477 123.639,142.189 123.749 C 141.901 123.859,141.573 123.708,141.460 123.412 C 141.347 123.117,140.700 122.754,140.024 122.605 C 139.347 122.457,138.895 122.170,139.020 121.967 C 139.222 121.641,138.928 121.529,138.145 121.634 C 138.004 121.653,137.779 121.514,137.645 121.325 C 137.190 120.686,135.085 119.488,135.420 120.059 C 135.594 120.356,135.377 120.285,134.937 119.900 C 134.497 119.515,134.003 119.200,133.840 119.200 C 133.677 119.200,133.292 118.975,132.985 118.700 C 131.568 117.429,131.060 117.098,129.202 116.238 C 128.110 115.732,127.347 115.172,127.508 114.995 C 127.669 114.818,127.485 114.786,127.100 114.924 C 126.715 115.062,126.400 115.022,126.400 114.836 C 126.400 114.463,123.980 113.353,123.500 113.505 C 123.335 113.557,123.200 113.311,123.200 112.957 C 123.200 112.550,122.980 112.399,122.600 112.545 C 122.270 112.671,122.000 112.618,122.000 112.427 C 122.000 112.236,121.359 111.701,120.576 111.239 C 119.793 110.777,119.290 110.624,119.458 110.899 C 119.627 111.175,119.174 110.905,118.452 110.300 C 117.729 109.695,116.782 109.200,116.346 109.200 C 115.910 109.200,115.644 109.053,115.755 108.873 C 116.043 108.406,113.668 107.088,113.000 107.345 C 112.639 107.483,112.517 107.360,112.657 106.996 C 112.799 106.625,112.488 106.337,111.740 106.149 C 111.118 105.993,110.368 105.625,110.075 105.333 C 109.782 105.040,109.305 104.800,109.014 104.800 C 108.723 104.800,108.375 104.511,108.239 104.158 C 108.094 103.781,107.740 103.614,107.376 103.754 C 107.023 103.889,106.863 103.822,107.003 103.595 C 107.137 103.378,107.012 103.199,106.724 103.198 C 106.436 103.197,105.402 102.667,104.427 102.020 C 103.451 101.373,102.524 100.923,102.367 101.020 C 102.210 101.118,101.658 100.751,101.141 100.205 C 100.623 99.660,99.795 99.211,99.300 99.207 C 98.805 99.203,98.400 99.009,98.400 98.776 C 98.400 98.543,98.220 98.464,98.000 98.600 C 97.780 98.736,97.600 98.657,97.600 98.424 C 97.600 98.191,97.324 98.000,96.987 98.000 C 96.651 98.000,96.271 97.730,96.145 97.400 C 96.018 97.070,95.656 96.800,95.340 96.800 C 95.025 96.800,94.375 96.436,93.897 95.990 C 93.419 95.545,92.812 95.263,92.547 95.365 C 92.283 95.466,91.963 95.279,91.836 94.949 C 91.709 94.619,91.424 94.461,91.203 94.598 C 90.981 94.735,90.800 94.657,90.800 94.424 C 90.800 94.191,90.446 94.000,90.014 94.000 C 89.582 94.000,89.043 93.654,88.817 93.232 C 88.591 92.810,87.775 92.256,87.003 92.001 C 86.231 91.746,85.600 91.394,85.600 91.218 C 85.600 91.042,84.714 90.517,83.631 90.051 C 82.547 89.585,81.414 88.978,81.112 88.702 C 80.158 87.829,77.944 86.787,77.555 87.028 C 77.349 87.155,77.230 87.029,77.290 86.748 C 77.351 86.467,77.190 86.228,76.933 86.218 C 76.677 86.208,76.332 86.065,76.167 85.900 C 76.002 85.735,75.520 85.600,75.096 85.600 C 74.662 85.600,74.234 85.251,74.116 84.800 C 74.001 84.360,73.658 83.978,73.353 83.950 C 72.111 83.838,71.958 83.780,71.668 83.310 C 71.502 83.041,70.971 82.760,70.490 82.687 C 70.008 82.613,69.195 82.159,68.681 81.677 C 68.168 81.194,67.563 80.800,67.335 80.800 C 67.108 80.800,66.503 80.436,65.990 79.991 C 65.307 79.399,64.978 79.312,64.759 79.666 C 64.551 80.002,64.300 80.025,63.930 79.739 C 63.183 79.162,59.098 79.111,59.451 79.683 M336.567 79.653 C 336.461 79.825,336.105 79.862,335.775 79.735 C 335.438 79.606,334.858 79.872,334.447 80.345 C 334.047 80.807,333.619 81.085,333.496 80.963 C 333.262 80.729,329.897 82.783,329.667 83.300 C 329.593 83.465,329.188 83.600,328.767 83.600 C 328.345 83.600,328.000 83.791,328.000 84.024 C 328.000 84.257,327.820 84.336,327.600 84.200 C 327.380 84.064,327.200 84.124,327.200 84.332 C 327.200 84.541,326.435 85.087,325.500 85.545 C 323.482 86.534,322.716 87.123,322.041 88.200 C 321.656 88.814,321.591 88.836,321.759 88.295 C 322.049 87.364,319.832 88.419,319.460 89.389 C 319.329 89.729,319.082 89.984,318.911 89.956 C 318.154 89.832,317.647 90.065,316.638 91.000 C 316.044 91.550,315.287 92.000,314.956 92.000 C 314.624 92.000,314.463 92.178,314.597 92.395 C 314.732 92.613,314.602 92.699,314.310 92.587 C 314.018 92.475,313.163 92.837,312.412 93.391 C 311.660 93.946,310.887 94.400,310.694 94.400 C 310.501 94.400,310.108 94.625,309.820 94.900 C 309.533 95.175,308.916 95.665,308.449 95.988 C 307.982 96.312,307.600 96.817,307.600 97.112 C 307.600 97.406,307.429 97.542,307.220 97.412 C 306.827 97.169,306.139 98.204,305.681 99.726 C 305.137 101.538,305.146 132.519,305.691 132.865 C 306.091 133.118,306.093 133.189,305.700 133.194 C 305.425 133.197,305.200 133.470,305.200 133.800 C 305.200 134.130,305.363 134.400,305.563 134.400 C 305.762 134.400,305.837 134.739,305.728 135.153 C 305.617 135.578,305.859 136.230,306.286 136.653 C 306.701 137.064,307.351 137.895,307.729 138.500 C 308.108 139.105,308.669 139.600,308.976 139.600 C 309.282 139.600,309.600 139.799,309.681 140.043 C 309.762 140.287,310.407 140.510,311.114 140.539 C 311.821 140.568,312.400 140.718,312.400 140.872 C 312.400 141.111,314.411 141.053,314.700 140.806 C 314.755 140.759,315.295 140.706,315.900 140.689 C 316.505 140.672,317.121 140.478,317.268 140.257 C 317.415 140.037,317.836 139.812,318.203 139.758 C 318.570 139.705,319.233 139.332,319.677 138.930 C 320.121 138.529,320.600 138.237,320.742 138.283 C 320.884 138.329,321.523 137.969,322.163 137.483 C 322.802 136.997,323.482 136.647,323.674 136.704 C 323.865 136.761,324.122 136.547,324.244 136.229 C 324.366 135.911,324.721 135.748,325.033 135.868 C 325.345 135.988,325.600 135.908,325.600 135.691 C 325.600 135.474,326.138 135.074,326.795 134.802 C 327.452 134.530,327.893 134.150,327.774 133.958 C 327.656 133.766,327.836 133.716,328.176 133.846 C 328.540 133.986,328.894 133.819,329.039 133.442 C 329.175 133.089,329.508 132.800,329.781 132.800 C 330.053 132.800,330.799 132.350,331.438 131.800 C 332.077 131.251,332.803 130.801,333.051 130.800 C 333.299 130.800,333.730 130.526,334.008 130.190 C 334.286 129.855,334.601 129.668,334.708 129.775 C 334.815 129.881,335.689 129.427,336.651 128.765 C 337.613 128.103,338.400 127.669,338.400 127.800 C 338.400 127.931,339.197 127.490,340.172 126.819 C 341.147 126.149,342.124 125.600,342.343 125.600 C 342.562 125.600,343.091 125.156,343.518 124.614 C 343.945 124.071,344.393 123.726,344.514 123.848 C 344.636 123.969,344.923 123.717,345.154 123.287 C 345.384 122.857,345.458 122.392,345.319 122.253 C 345.180 122.114,345.287 122.000,345.557 122.000 C 345.827 122.000,345.944 121.832,345.817 121.628 C 345.691 121.423,345.763 121.147,345.978 121.014 C 346.531 120.672,346.554 84.942,346.001 84.601 C 345.773 84.460,345.671 84.208,345.775 84.041 C 346.045 83.603,343.645 80.800,342.999 80.800 C 342.701 80.800,342.190 80.533,341.863 80.206 C 341.228 79.571,336.897 79.119,336.567 79.653 " stroke="none" fill="#047cfc" fill-rule="evenodd"></path><path id="path1" d="M262.995 154.600 C 262.995 191.340,263.042 206.311,263.100 187.868 C 263.158 169.426,263.158 139.366,263.100 121.068 C 263.042 102.771,262.995 117.860,262.995 154.600 M231.276 91.032 C 230.794 91.369,230.400 91.828,230.400 92.051 C 230.400 92.274,230.667 92.190,230.993 91.864 C 231.319 91.538,231.814 91.190,232.093 91.090 C 232.372 90.991,232.499 90.799,232.376 90.664 C 232.253 90.529,231.758 90.694,231.276 91.032 M133.600 119.084 C 133.930 119.205,134.560 119.596,135.000 119.952 C 135.793 120.594,135.794 120.592,135.038 119.700 C 134.619 119.205,133.989 118.814,133.638 118.832 C 133.096 118.858,133.091 118.897,133.600 119.084 M304.101 209.400 C 304.105 210.280,304.187 210.593,304.283 210.095 C 304.379 209.598,304.375 208.878,304.275 208.495 C 304.175 208.113,304.096 208.520,304.101 209.400 M304.101 221.000 C 304.105 221.880,304.187 222.193,304.283 221.695 C 304.379 221.198,304.375 220.478,304.275 220.095 C 304.175 219.713,304.096 220.120,304.101 221.000 M304.025 231.620 C 304.049 232.917,304.074 232.942,304.438 232.032 C 304.694 231.391,304.685 230.925,304.412 230.652 C 304.129 230.369,304.008 230.673,304.025 231.620 M158.186 259.600 C 158.186 271.370,158.237 276.185,158.300 270.300 C 158.362 264.415,158.362 254.785,158.300 248.900 C 158.237 243.015,158.186 247.830,158.186 259.600 M304.101 243.800 C 304.105 244.680,304.187 244.993,304.283 244.495 C 304.379 243.998,304.375 243.278,304.275 242.895 C 304.175 242.513,304.096 242.920,304.101 243.800 M174.597 295.595 C 174.960 296.182,176.400 296.888,176.400 296.478 C 176.400 296.286,175.939 295.918,175.375 295.661 C 174.789 295.394,174.455 295.366,174.597 295.595 " stroke="none" fill="#0484fc" fill-rule="evenodd"></path><path id="path2" d="" stroke="none" fill="#087cfc" fill-rule="evenodd"></path><path id="path3" d="" stroke="none" fill="#087cfc" fill-rule="evenodd"></path><path id="path4" d="" stroke="none" fill="#087cfc" fill-rule="evenodd"></path></g></svg>