<?xml version="1.0" standalone="no"?>
<!DOCTYPE svg PUBLIC "-//W3C//DTD SVG 20010904//EN"
 "http://www.w3.org/TR/2001/REC-SVG-20010904/DTD/svg10.dtd">
<svg version="1.0" xmlns="http://www.w3.org/2000/svg"
fill="#000000"
 width="256.000000pt" height="281.000000pt" viewBox="0 0 256.000000 281.000000"
 preserveAspectRatio="xMidYMid meet">

<g transform="translate(0.000000,281.000000) scale(0.100000,-0.100000)"
fill="#000000" stroke="none">
<path d="M786 2469 l-141 -141 67 35 c123 65 378 211 378 217 0 7 -107 30
-140 30 -17 0 -62 -39 -164 -141z"/>
<path d="M1761 2396 c9 -9 310 -182 452 -261 l48 -26 -7 28 c-4 15 -15 51 -26
79 l-19 52 -102 36 c-128 45 -363 108 -346 92z"/>
<path d="M66 1750 c-31 -33 -46 -58 -46 -76 0 -41 93 -384 102 -378 11 7 10
491 -1 498 -5 3 -29 -17 -55 -44z"/>
<path d="M1517 1598 c-35 -46 -87 -116 -116 -155 -29 -40 -56 -73 -61 -73 -4
0 -37 40 -72 90 -34 49 -69 89 -75 90 -7 0 -13 -2 -13 -5 0 -2 32 -48 70 -101
39 -54 69 -103 66 -110 -3 -7 -36 -55 -75 -107 -39 -53 -71 -98 -71 -101 0
-23 31 8 95 95 l74 101 73 -101 c40 -55 79 -100 86 -101 6 0 12 2 12 5 0 3
-34 52 -75 108 -41 57 -75 107 -75 110 0 4 26 44 58 89 138 196 173 248 168
248 -3 0 -34 -37 -69 -82z"/>
<path d="M487 1468 c-4 -46 -7 -143 -7 -215 0 -112 2 -133 15 -133 13 0 15 29
15 197 0 168 2 195 14 183 7 -8 60 -82 116 -165 119 -173 250 -355 256 -355 5
0 -12 26 -204 313 -95 141 -179 257 -186 257 -9 0 -15 -25 -19 -82z"/>
<path d="M850 1335 l0 -215 150 0 c93 0 150 4 150 10 0 6 -52 10 -135 10
l-135 0 0 95 0 95 119 0 c69 0 122 4 126 10 4 6 -38 10 -119 10 l-126 0 0 90
0 90 130 0 c80 0 130 4 130 10 0 6 -55 10 -145 10 l-145 0 0 -215z"/>
<path d="M1530 1540 c0 -5 35 -10 78 -12 l77 -3 3 -202 c1 -124 6 -203 12
-203 6 0 10 78 10 205 l0 205 75 0 c43 0 75 4 75 10 0 6 -62 10 -165 10 -99 0
-165 -4 -165 -10z"/>
<path d="M2430 1165 l0 -279 51 49 c28 28 55 60 60 73 6 17 -5 74 -46 223 -30
111 -56 204 -59 207 -4 3 -6 -120 -6 -273z"/>
<path d="M2018 1229 c-28 -16 -21 -38 17 -56 19 -9 35 -21 35 -25 0 -16 -28
-20 -50 -8 -18 10 -21 9 -18 -2 3 -7 19 -14 36 -16 22 -2 34 2 41 17 9 16 7
23 -11 35 -12 9 -28 16 -35 16 -7 0 -13 7 -13 16 0 13 7 15 33 10 30 -5 31 -5
13 9 -23 17 -25 18 -48 4z"/>
<path d="M1950 1186 c0 -50 -13 -65 -37 -44 -14 11 -15 11 -11 -2 3 -9 17 -15
34 -15 28 0 29 2 32 53 2 31 -1 52 -7 52 -6 0 -11 -20 -11 -44z"/>
<path d="M1860 1130 c0 -5 5 -10 11 -10 5 0 7 5 4 10 -3 6 -8 10 -11 10 -2 0
-4 -4 -4 -10z"/>
<path d="M310 564 c0 -24 35 -122 49 -137 13 -14 329 -108 359 -107 8 0 8 0
-208 132 -176 108 -200 121 -200 112z"/>
<path d="M1745 269 c-77 -45 -169 -97 -205 -117 l-64 -36 44 -14 c98 -29 97
-30 243 116 73 73 130 132 127 132 -3 0 -68 -37 -145 -81z"/>
</g>
</svg>
