<svg id="svg" version="1.1" xmlns="http://www.w3.org/2000/svg" xmlns:xlink="http://www.w3.org/1999/xlink" width="400" height="272" viewBox="0, 0, 400,272"><g id="svgg"><path id="path0" d="M0.000 95.510 L 0.000 191.020 80.825 191.020 C 154.800 191.020,161.664 190.983,161.817 190.583 C 161.910 190.343,161.780 188.965,161.530 187.522 C 161.279 186.079,161.037 184.531,160.992 184.082 C 160.919 183.356,160.798 183.256,159.911 183.181 C 158.921 183.097,158.912 183.085,158.912 181.872 C 158.912 180.965,158.823 180.701,158.571 180.853 C 158.375 180.970,158.404 180.843,158.639 180.552 C 158.952 180.166,158.968 180.021,158.706 179.933 C 158.518 179.869,158.435 179.702,158.522 179.562 C 158.609 179.421,158.579 179.324,158.456 179.345 C 157.485 179.514,156.134 178.144,156.678 177.542 C 156.784 177.424,156.718 177.416,156.531 177.523 C 156.344 177.631,156.190 177.581,156.190 177.413 C 156.190 177.232,155.971 177.176,155.655 177.276 C 155.230 177.411,155.086 177.290,154.952 176.682 C 154.655 175.331,154.586 175.238,153.878 175.238 C 153.170 175.238,153.099 175.143,152.807 173.810 C 152.672 173.197,152.495 173.061,151.832 173.061 C 151.173 173.061,151.020 172.946,151.016 172.449 C 151.010 171.548,150.707 171.217,149.795 171.113 C 149.177 171.043,148.991 170.891,149.027 170.487 C 149.102 169.638,148.677 169.107,147.868 169.040 C 146.907 168.961,146.953 169.038,146.882 167.394 C 146.848 166.620,146.717 165.986,146.591 165.986 C 146.465 165.986,146.438 165.864,146.531 165.714 C 146.623 165.565,146.600 165.433,146.479 165.421 C 145.182 165.299,144.821 165.033,144.678 164.095 C 144.603 163.610,144.374 163.413,143.790 163.335 C 142.831 163.207,142.814 163.178,142.607 161.293 C 142.595 161.180,142.218 161.088,141.769 161.088 C 141.017 161.088,140.952 161.013,140.952 160.136 C 140.952 159.229,140.907 159.184,140.000 159.184 C 139.069 159.184,138.818 158.752,139.014 157.486 C 139.032 157.375,138.556 157.207,137.958 157.111 C 136.956 156.951,136.871 156.870,136.871 156.078 C 136.871 155.306,136.782 155.211,136.001 155.152 C 134.919 155.069,135.025 155.237,134.890 153.393 C 134.763 151.661,134.677 151.501,133.808 151.368 C 133.036 151.251,132.772 150.974,132.716 150.222 C 132.668 149.590,131.871 148.978,131.442 149.244 C 131.084 149.465,130.800 148.886,130.826 147.988 C 130.846 147.282,130.763 147.211,129.930 147.211 C 129.070 147.211,129.007 147.148,128.928 146.212 C 128.854 145.332,128.746 145.200,128.032 145.106 C 127.049 144.976,127.133 145.060,127.003 144.077 C 126.909 143.362,126.776 143.255,125.897 143.181 C 124.956 143.101,124.898 143.042,124.898 142.160 C 124.898 141.610,124.758 141.212,124.558 141.193 C 124.371 141.176,124.095 141.133,123.946 141.098 C 123.796 141.064,123.520 141.017,123.333 140.994 C 123.113 140.967,122.993 140.480,122.993 139.608 C 122.993 138.868,122.869 138.186,122.717 138.092 C 122.565 137.998,122.522 137.789,122.623 137.626 C 122.726 137.458,122.680 137.408,122.514 137.511 C 122.354 137.610,122.172 137.537,122.108 137.349 C 122.020 137.087,121.875 137.102,121.489 137.415 C 121.211 137.639,121.069 137.681,121.174 137.506 C 121.278 137.332,121.236 137.147,121.079 137.094 C 120.922 137.042,120.766 136.636,120.732 136.192 C 120.680 135.517,120.543 135.375,119.895 135.325 C 118.943 135.252,118.906 135.216,118.793 134.249 C 118.743 133.820,118.688 133.357,118.670 133.220 C 118.653 133.083,118.570 133.039,118.486 133.124 C 118.024 133.586,116.891 132.857,116.881 132.092 C 116.872 131.364,116.778 131.285,115.828 131.207 C 115.051 131.143,114.824 131.021,114.936 130.728 C 115.111 130.273,114.670 128.959,114.360 129.010 C 113.344 129.175,112.955 128.936,112.874 128.095 C 112.800 127.324,112.680 127.200,111.930 127.127 C 111.122 127.049,111.063 126.969,110.940 125.767 C 110.733 123.738,110.613 123.455,109.910 123.352 C 109.548 123.299,109.117 123.076,108.953 122.856 C 108.788 122.637,108.557 122.547,108.440 122.657 C 108.322 122.767,108.369 122.582,108.544 122.245 C 108.838 121.680,108.759 121.517,108.231 121.600 C 108.119 121.618,108.027 121.502,108.027 121.342 C 108.027 121.176,107.795 121.125,107.483 121.224 C 107.027 121.369,106.938 121.273,106.935 120.631 C 106.929 119.635,106.677 119.303,105.888 119.253 C 105.099 119.204,105.091 119.196,104.977 118.362 C 104.834 117.321,104.560 117.056,103.687 117.117 C 102.951 117.168,102.877 117.091,102.802 116.205 C 102.729 115.333,102.634 115.230,101.837 115.153 C 101.033 115.075,100.952 114.985,100.952 114.163 C 100.952 113.351,100.858 113.240,100.035 113.086 C 99.195 112.928,99.105 112.816,98.979 111.763 C 98.729 109.690,98.338 108.987,97.592 109.274 C 97.181 109.431,96.458 108.479,96.694 108.090 C 96.860 107.814,96.299 107.366,95.646 107.253 C 94.953 107.133,94.994 107.193,94.917 106.183 C 94.881 105.709,94.687 105.257,94.486 105.180 C 94.286 105.103,94.189 105.150,94.272 105.284 C 94.355 105.418,94.117 105.386,93.744 105.213 C 93.163 104.943,92.889 104.457,93.129 104.123 C 93.347 103.821,92.329 103.129,91.667 103.129 C 90.954 103.129,90.884 103.045,90.884 102.177 C 90.884 101.653,90.762 101.209,90.612 101.190 C 90.463 101.172,90.218 101.126,90.068 101.088 C 89.918 101.051,89.612 101.005,89.388 100.986 C 89.109 100.963,88.980 100.650,88.980 100.000 C 88.980 99.093,88.934 99.048,88.027 99.048 C 87.503 99.048,87.069 98.956,87.061 98.844 C 87.020 98.232,86.803 96.391,86.718 95.938 C 86.655 95.597,86.345 95.377,85.832 95.308 C 84.983 95.194,84.557 94.762,84.756 94.218 C 84.825 94.031,84.755 93.878,84.601 93.878 C 84.447 93.878,84.409 93.736,84.516 93.563 C 84.632 93.376,84.591 93.323,84.415 93.432 C 84.252 93.532,84.037 93.482,83.937 93.319 C 83.837 93.157,83.583 93.090,83.374 93.170 C 83.038 93.299,82.891 92.735,83.016 91.799 C 83.059 91.482,82.323 91.165,81.536 91.161 C 80.955 91.158,80.798 91.052,80.916 90.746 C 81.131 90.184,80.627 88.944,80.206 88.999 C 79.137 89.139,78.912 88.969,78.912 88.027 C 78.912 87.124,78.864 87.075,77.976 87.075 C 77.120 87.075,77.034 87.000,76.956 86.190 C 76.881 85.413,76.764 85.296,75.986 85.221 C 75.337 85.158,75.093 84.995,75.068 84.609 C 75.036 84.109,74.979 83.797,74.835 83.333 C 74.800 83.221,74.768 82.788,74.764 82.371 C 74.757 81.620,73.981 80.909,73.495 81.209 C 73.209 81.385,72.507 80.600,72.741 80.366 C 73.012 80.095,72.401 79.194,72.037 79.327 C 71.520 79.516,71.066 79.108,70.963 78.362 C 70.820 77.318,70.546 77.056,69.661 77.117 C 68.844 77.174,68.649 76.785,68.823 75.442 C 68.851 75.226,68.517 75.102,67.903 75.102 C 67.032 75.102,66.939 75.030,66.939 74.351 C 66.939 73.519,66.129 72.835,65.453 73.095 C 65.162 73.206,65.024 73.080,65.000 72.682 C 64.981 72.367,64.935 71.986,64.898 71.837 C 64.861 71.687,64.815 71.442,64.796 71.293 C 64.777 71.143,64.333 71.020,63.810 71.020 L 62.857 71.020 62.857 69.660 C 62.857 67.983,62.535 67.069,62.041 67.344 C 61.674 67.547,60.704 66.922,60.839 66.569 C 60.922 66.353,60.857 66.095,60.694 65.995 C 60.532 65.895,60.472 65.696,60.560 65.553 C 60.648 65.410,60.620 65.320,60.496 65.353 C 60.373 65.387,59.997 65.320,59.660 65.206 C 59.064 65.003,58.930 64.742,59.034 63.986 C 59.061 63.784,58.955 63.699,58.797 63.796 C 58.619 63.906,58.575 63.804,58.681 63.528 C 58.805 63.204,58.712 63.097,58.337 63.137 C 57.112 63.268,56.871 63.138,56.871 62.346 C 56.871 61.592,56.362 60.888,55.879 60.975 C 55.226 61.092,54.993 60.873,54.915 60.068 C 54.840 59.290,54.723 59.173,53.946 59.098 C 53.096 59.016,52.842 58.531,53.029 57.347 C 53.047 57.235,52.571 57.143,51.973 57.143 L 50.884 57.143 50.850 55.782 C 50.832 55.034,50.786 54.299,50.748 54.150 C 50.711 54.000,50.665 53.748,50.646 53.589 C 50.628 53.431,50.490 53.377,50.340 53.469 C 50.190 53.562,50.068 53.509,50.068 53.353 C 50.068 53.196,49.796 53.097,49.463 53.132 C 49.090 53.173,48.846 53.041,48.825 52.789 C 48.806 52.565,48.756 52.289,48.715 52.177 C 48.673 52.065,48.624 51.820,48.605 51.633 C 48.572 51.310,48.427 51.262,47.261 51.188 C 46.913 51.166,46.812 51.010,46.922 50.666 C 47.086 50.148,46.505 49.139,46.008 49.082 C 45.847 49.063,45.531 49.032,45.306 49.014 C 45.028 48.990,44.898 48.677,44.898 48.027 C 44.898 47.120,44.853 47.075,43.946 47.075 C 43.039 47.075,42.993 47.029,42.993 46.122 C 42.993 45.215,42.948 45.170,42.041 45.170 C 41.168 45.170,41.088 45.103,41.088 44.370 C 41.088 43.499,40.774 43.193,39.733 43.050 C 38.878 42.933,38.955 43.087,38.877 41.354 C 38.819 40.055,38.439 39.143,37.969 39.174 C 37.141 39.229,36.729 39.140,36.857 38.934 C 37.195 38.387,36.487 37.327,35.663 37.146 C 34.932 36.986,34.830 36.850,34.830 36.033 C 34.830 35.150,34.780 35.102,33.878 35.102 C 32.971 35.102,32.925 35.057,32.925 34.150 C 32.925 33.183,32.731 33.048,31.497 33.151 C 31.060 33.188,30.892 32.785,30.992 31.941 C 31.042 31.512,30.457 31.089,29.660 30.978 C 29.286 30.927,28.968 30.701,28.953 30.476 C 28.866 29.137,28.849 29.116,27.891 29.116 C 26.907 29.116,26.706 28.554,26.892 26.327 C 26.914 26.065,26.804 25.850,26.647 25.850 C 26.491 25.850,26.440 25.725,26.535 25.571 C 26.630 25.418,26.606 25.315,26.483 25.343 C 25.577 25.548,24.571 24.535,24.736 23.585 C 24.758 23.462,24.650 23.438,24.497 23.533 C 24.343 23.628,24.218 23.576,24.218 23.417 C 24.218 23.259,24.126 23.144,24.014 23.161 C 23.169 23.295,22.857 23.075,22.857 22.346 C 22.857 21.592,22.348 20.888,21.865 20.975 C 21.222 21.090,20.952 20.893,20.952 20.305 C 20.952 19.543,20.530 19.138,19.592 18.999 C 19.202 18.942,18.945 18.744,18.989 18.537 C 19.177 17.656,18.742 17.143,17.805 17.143 C 16.890 17.143,16.616 16.582,16.839 15.170 C 16.856 15.058,16.442 14.966,15.918 14.966 C 14.933 14.966,14.745 14.478,14.952 12.449 C 14.978 12.187,14.863 11.973,14.695 11.973 C 14.527 11.973,14.460 11.859,14.546 11.719 C 14.815 11.284,14.149 11.092,13.662 11.464 C 13.406 11.659,13.287 11.712,13.397 11.583 C 13.507 11.453,13.418 11.212,13.198 11.047 C 12.979 10.883,12.754 10.442,12.699 10.068 C 12.644 9.694,12.489 9.382,12.354 9.374 C 11.500 9.328,10.884 8.883,10.884 8.314 C 10.884 7.621,10.241 6.936,9.830 7.190 C 9.395 7.459,8.774 6.610,8.856 5.860 C 8.902 5.439,8.806 5.181,8.616 5.217 C 8.042 5.326,7.075 4.868,7.041 4.471 C 7.022 4.257,6.976 3.959,6.939 3.810 C 6.901 3.660,6.855 3.407,6.837 3.248 C 6.818 3.089,6.588 2.981,6.327 3.007 C 5.083 3.134,4.898 3.009,4.898 2.041 C 4.898 1.134,4.853 1.088,3.946 1.088 C 3.175 1.088,2.993 0.985,2.993 0.544 C 2.993 0.066,2.812 0.000,1.497 0.000 L 0.000 0.000 0.000 95.510 M52.920 244.082 C 52.920 257.925,52.953 263.588,52.993 256.667 C 53.034 249.745,53.034 238.418,52.993 231.497 C 52.953 224.575,52.920 230.238,52.920 244.082 M372.858 252.109 C 372.861 252.707,372.916 252.920,372.982 252.582 C 373.047 252.243,373.044 251.754,372.976 251.493 C 372.908 251.233,372.855 251.510,372.858 252.109 " stroke="none" fill="#24b474" fill-rule="evenodd"></path><path id="path1" d="M133.092 213.261 C 133.194 213.891,132.977 234.071,132.873 233.670 C 132.756 233.222,132.111 233.195,122.905 233.262 L 113.061 233.333 112.976 234.218 C 112.892 235.086,112.866 235.102,111.529 235.102 C 109.737 235.102,109.116 235.455,109.116 236.472 C 109.116 237.184,109.021 237.279,108.315 237.279 C 107.313 237.279,107.190 237.484,107.011 239.460 C 106.870 241.015,106.842 241.062,106.018 241.142 L 105.170 241.224 105.090 243.197 C 105.016 245.024,104.966 245.170,104.410 245.174 C 103.111 245.183,103.116 245.149,103.193 253.216 L 103.265 260.816 104.150 260.902 L 105.034 260.987 105.034 263.010 L 105.034 265.034 105.986 265.034 C 106.879 265.034,106.939 265.090,106.942 265.918 C 106.949 268.149,107.223 268.821,108.198 269.004 C 108.908 269.137,109.116 269.311,109.116 269.772 C 109.116 270.718,109.656 271.020,111.347 271.020 C 112.744 271.020,112.925 271.083,112.925 271.565 C 112.925 272.099,113.107 272.109,122.838 272.109 L 132.751 272.109 132.869 271.497 L 132.987 270.884 133.024 271.497 L 133.061 272.109 140.001 272.109 L 146.941 272.109 146.872 242.653 L 146.803 213.197 139.930 213.125 C 136.151 213.085,133.073 213.146,133.092 213.261 M319.100 213.235 C 318.996 213.339,318.912 226.628,318.912 242.766 L 318.912 272.109 322.994 272.109 L 327.077 272.109 327.008 242.653 L 326.939 213.197 323.114 213.122 C 321.010 213.081,319.204 213.132,319.100 213.235 M1.088 243.667 L 1.088 272.109 7.073 272.109 L 13.057 272.109 13.127 255.425 L 13.197 238.741 14.065 238.966 C 14.786 239.153,14.946 239.338,15.017 240.071 C 15.091 240.838,15.213 240.963,15.955 241.035 C 16.887 241.126,17.143 241.724,17.143 243.814 C 17.143 244.866,17.453 245.170,18.526 245.170 C 18.980 245.170,19.048 245.374,19.048 246.748 C 19.048 248.454,19.349 248.980,20.327 248.980 C 20.835 248.980,20.952 249.127,20.952 249.763 C 20.952 250.728,21.548 251.262,22.436 251.092 C 23.093 250.967,23.109 251.005,23.186 252.897 L 23.265 254.830 24.134 254.914 C 24.921 254.990,25.011 255.093,25.087 256.002 C 25.151 256.781,25.292 257.016,25.714 257.046 C 26.014 257.067,26.395 257.098,26.561 257.114 C 26.727 257.130,26.929 257.869,27.010 258.757 C 27.190 260.748,27.312 260.952,28.315 260.952 C 29.068 260.952,29.116 261.018,29.116 262.041 C 29.116 263.103,29.138 263.129,30.068 263.129 C 30.983 263.129,31.021 263.170,31.045 264.150 C 31.103 266.492,31.163 266.803,31.565 266.839 C 31.789 266.860,32.180 266.890,32.433 266.907 C 32.760 266.930,32.917 267.232,32.977 267.959 C 33.057 268.924,33.117 268.984,34.082 269.064 L 35.102 269.148 35.102 270.629 L 35.102 272.109 44.014 272.109 L 52.925 272.109 52.867 244.033 C 52.836 228.591,52.748 215.795,52.672 215.597 C 52.563 215.313,51.142 215.238,45.891 215.238 L 39.247 215.238 39.083 215.850 C 38.993 216.187,38.917 223.840,38.915 232.857 C 38.912 245.791,38.840 249.251,38.571 249.248 C 37.231 249.233,37.033 248.973,36.951 247.114 L 36.871 245.306 35.986 245.221 C 35.225 245.147,35.102 245.032,35.102 244.391 C 35.102 243.441,34.649 242.993,33.687 242.993 C 32.925 242.993,32.925 242.993,32.925 241.088 L 32.925 239.184 31.989 239.184 C 31.104 239.184,31.049 239.128,30.969 238.163 C 30.892 237.241,30.803 237.135,30.034 237.060 C 29.191 236.978,29.181 236.960,28.996 235.079 C 28.876 233.863,28.693 233.196,28.486 233.222 C 27.073 233.398,26.967 233.275,26.883 231.361 C 26.804 229.554,26.788 229.520,25.932 229.267 C 25.229 229.060,25.045 228.850,24.979 228.179 C 24.909 227.456,24.773 227.329,23.946 227.211 L 22.993 227.075 22.911 225.313 C 22.825 223.487,22.611 223.141,21.565 223.133 C 21.047 223.130,20.952 222.982,20.952 222.177 C 20.952 221.277,20.902 221.224,20.037 221.224 L 19.122 221.224 18.977 219.421 C 18.827 217.545,18.570 217.154,17.483 217.147 C 16.885 217.143,16.745 216.827,16.854 215.729 C 16.896 215.305,16.256 215.266,8.994 215.246 L 1.088 215.225 1.088 243.667 M300.952 218.078 C 300.952 218.934,300.878 219.020,300.068 219.098 L 299.184 219.184 299.184 222.988 L 299.184 226.792 300.000 226.924 C 300.449 226.997,302.938 227.061,305.532 227.066 C 311.373 227.077,311.041 227.343,311.002 222.683 C 310.972 219.183,310.922 219.048,309.638 219.048 C 309.304 219.048,309.116 218.859,309.116 218.526 C 309.116 217.169,309.034 217.143,304.869 217.143 L 300.952 217.143 300.952 218.078 M69.116 234.135 L 69.116 235.078 67.143 235.158 L 65.170 235.238 65.086 236.106 C 65.013 236.862,64.890 236.986,64.134 237.059 C 63.347 237.135,63.257 237.238,63.182 238.148 C 63.103 239.092,63.038 239.158,62.093 239.236 C 61.179 239.312,61.081 239.399,61.003 240.204 C 60.941 240.853,60.784 241.088,60.413 241.088 C 59.126 241.088,59.048 241.269,59.048 244.230 L 59.048 247.040 58.163 247.126 L 57.279 247.211 57.206 253.129 L 57.132 259.048 58.090 259.048 L 59.048 259.048 59.074 261.293 C 59.119 265.053,59.075 264.887,60.068 264.983 C 60.872 265.061,60.952 265.151,60.952 265.975 C 60.952 266.931,61.296 267.211,62.471 267.211 C 63.042 267.211,63.129 267.337,63.129 268.163 C 63.129 268.687,63.221 269.101,63.333 269.083 C 64.598 268.884,65.034 269.136,65.034 270.068 C 65.034 270.975,65.079 271.020,65.986 271.020 C 66.757 271.020,66.939 271.124,66.939 271.565 C 66.939 272.101,67.120 272.109,78.912 272.109 C 90.579 272.109,90.884 272.095,90.884 271.581 C 90.884 271.168,91.105 271.035,91.905 270.969 C 92.836 270.892,92.933 270.807,93.010 270.000 C 93.089 269.190,93.175 269.116,94.031 269.116 C 94.915 269.116,94.966 269.065,94.966 268.181 C 94.966 267.324,95.041 267.238,95.850 267.160 C 96.655 267.083,96.742 266.984,96.818 266.070 C 96.897 265.126,96.962 265.060,97.907 264.981 L 98.912 264.898 98.992 262.925 C 99.058 261.293,99.152 260.947,99.536 260.921 C 99.791 260.904,100.184 260.873,100.408 260.853 C 100.761 260.821,100.816 259.757,100.816 253.061 L 100.816 245.306 99.944 245.222 L 99.071 245.137 98.991 243.181 L 98.912 241.224 97.891 241.140 C 96.926 241.060,96.871 241.005,96.871 240.120 C 96.871 239.235,96.820 239.184,95.935 239.184 C 95.050 239.184,94.994 239.128,94.914 238.163 C 94.838 237.236,94.751 237.135,93.962 237.059 C 93.206 236.986,93.082 236.862,93.009 236.106 C 92.933 235.320,92.830 235.230,91.921 235.155 C 91.011 235.079,90.909 234.989,90.832 234.202 L 90.748 233.333 79.932 233.262 L 69.116 233.191 69.116 234.135 M161.202 233.565 C 161.125 233.767,161.082 234.043,161.107 234.177 C 161.234 234.857,161.000 235.076,160.068 235.154 C 159.148 235.230,159.040 235.321,158.965 236.081 C 158.885 236.904,158.838 236.931,157.061 237.170 L 155.238 237.415 155.158 239.236 L 155.078 241.057 154.070 241.141 L 153.061 241.224 152.981 243.197 L 152.901 245.170 151.961 245.170 L 151.020 245.170 151.020 253.002 L 151.020 260.834 151.757 260.895 C 152.797 260.981,152.886 261.145,152.979 263.129 L 153.061 264.898 154.070 264.982 L 155.078 265.065 155.158 266.886 C 155.236 268.661,155.260 268.714,156.079 268.955 C 156.684 269.134,156.988 269.438,157.167 270.044 C 157.409 270.864,157.460 270.886,159.252 270.965 C 160.865 271.035,161.088 271.110,161.088 271.577 C 161.088 272.096,161.355 272.109,171.973 272.109 C 182.676 272.109,182.857 272.100,182.857 271.565 C 182.857 271.077,183.039 271.020,184.593 271.020 C 186.438 271.020,186.822 270.803,186.981 269.669 C 187.056 269.129,187.234 268.996,187.885 268.988 C 188.808 268.978,189.070 268.177,189.100 265.276 C 189.133 262.026,188.887 261.224,187.854 261.224 C 187.133 261.224,186.939 261.114,186.939 260.703 C 186.939 259.758,186.619 259.321,185.889 259.266 C 185.494 259.237,186.456 259.145,188.027 259.062 L 190.884 258.912 190.884 251.174 L 190.884 243.436 190.000 243.207 C 189.234 243.008,189.115 242.861,189.113 242.101 C 189.105 239.813,188.837 239.184,187.872 239.184 C 187.028 239.184,186.966 239.120,186.887 238.163 C 186.810 237.236,186.723 237.135,185.934 237.059 C 185.178 236.986,185.055 236.862,184.982 236.106 C 184.906 235.317,184.805 235.230,183.878 235.154 C 182.851 235.069,182.720 234.881,182.843 233.673 C 182.908 233.031,161.448 232.924,161.202 233.565 M195.429 233.524 C 195.203 233.750,195.102 235.156,195.102 238.095 C 195.102 242.590,195.207 242.993,196.381 242.993 L 197.007 242.993 197.007 257.551 L 197.007 272.109 200.952 272.109 L 204.898 272.109 204.898 260.544 C 204.898 247.938,204.791 248.812,206.311 248.963 C 206.780 249.009,207.186 247.757,207.067 246.636 C 206.951 245.545,207.086 245.170,207.597 245.170 C 208.633 245.170,208.980 244.859,208.980 243.929 L 208.980 243.018 210.815 242.938 C 212.618 242.859,212.652 242.843,212.789 242.041 C 213.013 240.724,214.890 240.654,215.016 241.957 C 215.095 242.779,215.189 242.864,216.106 242.941 C 217.016 243.016,217.119 243.106,217.195 243.893 C 217.268 244.653,217.389 244.773,218.163 244.847 L 219.048 244.932 219.048 258.521 L 219.048 272.109 224.087 272.109 L 229.126 272.109 229.116 260.204 C 229.110 253.656,229.107 248.032,229.110 247.704 C 229.115 247.233,229.300 247.092,230.000 247.024 C 230.805 246.946,230.892 246.848,230.968 245.934 C 231.043 245.025,231.133 244.922,231.920 244.846 C 232.681 244.772,232.800 244.652,232.874 243.878 C 232.952 243.070,233.040 242.993,233.882 242.993 C 234.722 242.993,234.821 242.907,234.984 242.041 L 235.163 241.088 237.037 241.088 C 238.704 241.088,238.912 241.146,238.912 241.610 C 238.912 242.651,239.222 242.993,240.165 242.993 C 241.033 242.993,241.088 243.048,241.088 243.916 C 241.088 244.860,241.431 245.170,242.471 245.170 C 242.979 245.170,242.993 245.543,242.993 258.639 L 242.993 272.109 248.027 272.109 L 253.061 272.109 253.058 257.755 C 253.055 241.182,253.074 241.439,251.802 241.200 L 250.884 241.028 250.884 239.184 L 250.884 237.339 249.949 237.164 C 249.138 237.012,249.001 236.871,248.928 236.113 L 248.844 235.238 246.871 235.158 L 244.898 235.078 244.898 234.138 L 244.898 233.197 238.001 233.197 L 231.103 233.197 231.079 234.042 C 231.048 235.134,231.126 235.091,229.095 235.134 C 227.279 235.173,226.950 235.365,226.943 236.395 C 226.935 237.521,225.093 237.266,224.983 236.122 C 224.891 235.165,224.946 235.185,222.245 235.129 C 220.954 235.102,220.952 235.101,220.952 234.150 L 220.952 233.197 214.340 233.197 C 207.343 233.197,207.075 233.245,207.075 234.476 C 207.075 235.007,206.934 235.102,206.145 235.102 C 205.634 235.102,205.154 235.255,205.078 235.442 C 205.003 235.629,204.931 235.201,204.919 234.490 L 204.898 233.197 200.327 233.197 C 197.134 233.197,195.657 233.296,195.429 233.524 M267.058 234.146 L 266.878 235.102 265.004 235.102 L 263.129 235.102 263.129 236.038 C 263.129 236.923,263.074 236.979,262.109 237.058 C 261.144 237.138,261.084 237.198,261.004 238.163 C 260.934 239.014,260.818 239.184,260.310 239.184 C 259.392 239.184,259.048 239.704,259.048 241.088 C 259.048 242.477,259.392 242.993,260.319 242.993 C 260.787 242.993,260.992 243.206,261.165 243.873 C 261.444 244.951,262.509 245.209,266.249 245.103 L 268.688 245.034 268.929 244.014 L 269.170 242.993 271.047 242.993 L 272.925 242.993 272.925 242.041 L 272.925 241.088 274.949 241.088 L 276.972 241.088 277.058 241.973 C 277.150 242.931,277.102 242.912,279.643 242.964 L 281.056 242.993 281.140 244.014 C 281.217 244.945,281.301 245.041,282.109 245.119 C 282.918 245.197,282.993 245.284,282.993 246.140 L 282.993 247.075 277.755 247.079 C 271.647 247.083,271.321 247.138,271.109 248.199 C 270.959 248.947,270.889 248.980,269.422 248.982 C 265.852 248.987,265.034 249.223,265.034 250.242 L 265.034 251.156 263.469 251.161 C 261.646 251.165,261.373 251.301,261.123 252.321 C 260.986 252.880,260.725 253.120,260.125 253.240 C 259.022 253.461,259.019 253.484,259.107 261.769 L 259.184 268.980 260.052 269.064 C 260.808 269.137,260.931 269.260,261.004 270.016 C 261.081 270.805,261.182 270.892,262.109 270.969 C 262.908 271.035,263.129 271.168,263.129 271.581 C 263.129 272.097,263.466 272.109,278.106 272.109 L 293.082 272.109 293.004 269.728 L 292.925 267.347 291.905 267.262 L 290.884 267.178 290.852 253.385 C 290.834 245.799,290.834 239.500,290.852 239.388 C 290.870 239.276,290.793 239.198,290.680 239.216 C 289.431 239.413,289.011 239.161,288.928 238.163 C 288.851 237.236,288.764 237.135,287.975 237.059 C 287.219 236.986,287.096 236.862,287.023 236.106 C 286.946 235.317,286.846 235.230,285.918 235.154 C 285.357 235.107,284.885 234.924,284.869 234.745 C 284.853 234.567,284.823 234.177,284.801 233.878 C 284.763 233.347,284.542 233.332,275.999 233.262 L 267.237 233.190 267.058 234.146 M301.143 233.369 C 301.038 233.474,300.952 242.234,300.952 252.834 L 300.952 272.109 305.034 272.109 L 309.116 272.109 309.116 253.916 C 309.116 243.909,309.039 235.166,308.946 234.485 L 308.777 233.248 305.056 233.213 C 303.009 233.194,301.249 233.264,301.143 233.369 M345.201 233.394 C 345.109 233.485,345.034 233.901,345.034 234.319 C 345.034 235.066,345.006 235.078,343.197 235.158 C 341.385 235.237,341.357 235.250,341.100 236.122 C 340.938 236.674,340.665 237.007,340.374 237.007 C 339.392 237.007,339.048 237.332,339.048 238.260 C 339.048 239.134,338.997 239.184,338.095 239.184 C 337.194 239.184,337.143 239.233,337.143 240.106 C 337.143 240.938,337.053 241.045,336.223 241.200 C 335.138 241.404,334.966 241.932,334.966 245.068 C 334.966 246.865,334.911 247.075,334.444 247.075 C 333.083 247.075,333.099 247.007,333.072 253.220 L 333.047 259.048 333.997 259.048 L 334.948 259.048 335.025 261.973 L 335.102 264.898 336.054 265.034 C 336.901 265.155,337.022 265.276,337.143 266.122 C 337.263 266.964,337.382 267.085,338.163 267.160 C 338.973 267.238,339.048 267.324,339.048 268.181 C 339.048 269.068,339.096 269.116,340.000 269.116 C 340.907 269.116,340.952 269.161,340.952 270.068 C 340.952 270.998,340.978 271.020,342.041 271.020 C 342.948 271.020,343.129 271.111,343.129 271.565 C 343.129 272.100,343.311 272.109,354.014 272.109 C 364.604 272.109,364.898 272.095,364.898 271.581 C 364.898 271.168,365.119 271.035,365.918 270.969 C 366.850 270.892,366.946 270.807,367.024 270.000 C 367.102 269.190,367.188 269.116,368.044 269.116 C 368.559 269.116,368.965 269.024,368.947 268.912 C 368.781 267.858,369.026 267.211,369.592 267.207 C 370.802 267.198,370.910 266.923,370.827 264.059 L 370.748 261.361 368.912 261.280 C 367.108 261.201,367.075 261.186,367.075 260.450 C 367.075 259.372,366.604 259.047,365.048 259.052 C 363.541 259.056,362.923 259.311,363.005 259.893 C 363.159 260.993,362.991 261.224,362.041 261.224 C 361.134 261.224,361.088 261.270,361.088 262.177 L 361.088 263.129 359.475 263.129 C 357.750 263.129,357.007 263.545,357.007 264.509 C 357.007 265.003,356.777 265.034,353.061 265.034 C 349.353 265.034,349.116 265.003,349.116 264.512 C 349.116 263.471,348.805 263.129,347.862 263.129 C 346.962 263.129,346.709 262.679,346.907 261.429 C 346.924 261.316,346.510 261.224,345.986 261.224 L 345.034 261.224 345.034 259.614 C 345.034 258.728,344.960 257.810,344.869 257.573 C 344.720 257.184,346.027 257.143,358.455 257.143 C 370.432 257.143,372.260 257.089,372.622 256.727 C 372.982 256.366,373.104 250.807,372.819 247.699 C 372.803 247.519,372.361 247.291,371.837 247.193 L 370.884 247.014 370.855 244.664 C 370.811 241.065,370.859 241.235,369.864 241.139 C 369.054 241.061,368.980 240.975,368.980 240.119 C 368.980 239.235,368.929 239.184,368.044 239.184 C 367.159 239.184,367.103 239.128,367.023 238.163 C 366.943 237.198,366.883 237.138,365.918 237.058 C 364.953 236.979,364.898 236.923,364.898 236.038 L 364.898 235.102 363.023 235.102 L 361.149 235.102 360.969 234.143 L 360.789 233.184 353.078 233.206 C 348.837 233.217,345.292 233.302,345.201 233.394 M377.146 252.653 L 377.136 272.109 382.038 272.109 L 386.939 272.109 386.939 259.592 L 386.939 247.075 387.862 247.075 C 388.801 247.075,389.116 246.732,389.116 245.709 C 389.116 245.339,389.351 245.182,390.000 245.119 C 390.545 245.067,390.898 244.877,390.921 244.626 C 390.941 244.401,390.972 243.942,390.989 243.605 C 391.020 242.997,391.045 242.993,395.510 242.993 L 400.000 242.993 400.000 238.095 L 400.000 233.197 394.558 233.197 L 389.116 233.197 389.116 234.150 C 389.116 235.079,389.090 235.102,388.027 235.102 C 387.073 235.102,386.939 235.025,386.939 234.476 C 386.939 233.292,386.553 233.197,381.721 233.197 L 377.157 233.197 377.146 252.653 M355.131 241.429 C 355.147 241.616,355.177 242.014,355.199 242.313 C 355.233 242.790,355.462 242.867,357.047 242.937 L 358.855 243.017 359.027 243.931 C 359.199 244.849,359.598 245.170,360.566 245.170 C 361.017 245.170,361.088 245.372,361.088 246.644 C 361.088 247.455,361.163 248.312,361.254 248.549 C 361.402 248.936,360.576 248.980,353.119 248.980 C 345.870 248.980,344.800 248.926,344.658 248.557 C 344.565 248.315,344.611 248.206,344.765 248.301 C 344.931 248.404,345.034 247.842,345.034 246.836 L 345.034 245.205 345.918 245.119 C 346.726 245.041,346.810 244.945,346.887 244.014 L 346.972 242.993 349.622 242.993 C 352.441 242.993,352.925 242.806,352.925 241.714 C 352.925 241.006,355.071 240.728,355.131 241.429 M175.018 244.014 C 175.093 244.926,175.184 245.037,175.877 245.062 C 176.735 245.093,177.132 245.534,177.139 246.463 L 177.143 247.075 171.633 247.071 C 168.602 247.068,166.264 246.976,166.438 246.866 C 166.612 246.755,166.795 246.298,166.846 245.849 C 166.923 245.171,167.076 245.018,167.754 244.941 C 168.667 244.838,168.969 244.507,168.975 243.605 C 168.979 243.008,169.052 242.993,171.956 242.993 L 174.933 242.993 175.018 244.014 M82.981 245.354 C 83.049 245.414,83.110 245.795,83.117 246.201 C 83.127 246.830,83.259 246.951,84.004 247.023 C 84.762 247.097,84.903 247.233,85.055 248.044 C 85.214 248.891,85.317 248.980,86.153 248.980 L 87.075 248.980 87.075 253.061 C 87.075 257.453,87.126 257.308,85.646 257.157 C 85.337 257.126,85.170 257.297,85.170 257.648 C 85.170 258.536,84.869 259.048,84.347 259.048 C 83.336 259.048,82.993 259.365,82.993 260.301 L 82.993 261.224 79.075 261.224 L 75.156 261.224 74.916 260.204 C 74.707 259.314,74.564 259.173,73.801 259.098 C 73.001 259.021,72.925 258.932,72.925 258.078 C 72.925 257.191,72.876 257.143,71.973 257.143 L 71.020 257.143 71.020 253.061 L 71.020 248.980 71.769 248.947 C 72.180 248.930,72.609 248.930,72.721 248.947 C 72.833 248.965,72.925 248.551,72.925 248.027 C 72.925 247.126,72.975 247.075,73.847 247.075 C 74.684 247.075,74.786 246.987,74.946 246.132 L 75.123 245.189 77.902 245.111 C 80.620 245.036,82.734 245.137,82.981 245.354 M128.078 245.151 C 128.853 245.168,128.954 245.264,129.030 246.054 C 129.105 246.830,129.223 246.949,129.991 247.023 C 130.749 247.097,130.889 247.233,131.041 248.044 C 131.200 248.891,131.304 248.980,132.139 248.980 L 133.061 248.980 133.061 253.061 L 133.061 257.143 132.109 257.143 C 131.351 257.143,131.156 257.250,131.156 257.665 C 131.156 258.588,130.841 259.048,130.208 259.048 C 129.421 259.048,128.915 259.654,129.028 260.460 L 129.116 261.088 125.102 261.164 C 121.187 261.237,121.088 261.225,121.088 260.670 C 121.088 259.652,120.578 259.048,119.718 259.048 C 118.978 259.048,118.912 258.970,118.912 258.095 C 118.912 257.188,118.866 257.143,117.959 257.143 L 117.007 257.143 117.007 253.061 L 117.007 248.980 117.959 248.980 C 118.866 248.980,118.912 248.934,118.912 248.027 C 118.912 247.123,118.959 247.075,119.852 247.075 C 120.708 247.075,120.807 246.991,120.968 246.137 C 121.168 245.067,121.460 244.994,125.170 245.083 C 126.293 245.110,127.601 245.141,128.078 245.151 M282.993 257.007 C 282.993 258.941,282.961 259.048,282.381 259.052 C 281.665 259.057,281.040 259.400,281.106 259.753 C 281.132 259.889,281.138 260.704,281.121 261.565 L 281.088 263.129 279.475 263.129 C 277.750 263.129,277.007 263.545,277.007 264.509 C 277.007 264.995,276.789 265.034,274.035 265.034 L 271.064 265.034 270.882 264.206 C 270.743 263.574,270.514 263.341,269.914 263.221 C 269.283 263.095,269.094 262.882,268.955 262.144 C 268.799 261.311,268.690 261.220,267.793 261.179 L 266.803 261.133 267.796 261.028 C 268.679 260.934,268.808 260.821,268.961 260.002 C 269.110 259.207,269.254 259.069,270.009 258.996 C 270.777 258.922,270.895 258.803,270.970 258.027 L 271.055 257.143 273.600 257.143 C 276.776 257.143,277.007 257.058,277.007 255.889 L 277.007 254.966 280.000 254.966 L 282.993 254.966 282.993 257.007 M177.189 260.136 L 177.086 261.224 175.400 261.224 C 173.585 261.224,173.061 261.511,173.061 262.503 C 173.061 263.101,172.969 263.129,171.020 263.129 L 168.980 263.129 168.980 262.177 C 168.980 261.270,168.934 261.224,168.027 261.224 C 167.256 261.224,167.075 261.121,167.075 260.680 C 167.075 260.381,166.956 260.136,166.811 260.136 C 166.666 260.136,166.626 259.931,166.722 259.681 C 166.856 259.332,166.787 259.267,166.428 259.405 C 166.148 259.513,166.025 259.477,166.124 259.317 C 166.225 259.154,168.460 259.048,171.792 259.048 L 177.293 259.048 177.189 260.136 " stroke="none" fill="#ffffff" fill-rule="evenodd"></path><path id="path2" d="M161.057 91.905 C 161.040 142.452,161.053 184.053,161.085 184.351 C 161.118 184.649,161.362 185.200,161.627 185.576 C 162.162 186.334,162.721 188.636,162.721 190.081 L 162.721 191.020 242.517 191.017 C 286.405 191.016,322.772 190.939,323.333 190.846 C 325.610 190.469,324.628 188.529,318.849 181.986 C 318.359 181.432,317.531 180.476,317.007 179.862 C 316.483 179.247,315.626 178.279,315.102 177.710 C 314.578 177.141,313.721 176.149,313.197 175.505 C 312.673 174.862,311.755 173.760,311.156 173.057 C 310.558 172.353,309.578 171.188,308.980 170.466 C 308.381 169.745,307.511 168.779,307.047 168.319 C 306.583 167.859,306.081 167.256,305.932 166.978 C 305.782 166.700,304.909 165.659,303.992 164.665 C 302.388 162.928,299.905 160.042,296.486 155.943 C 295.601 154.882,294.791 154.014,294.686 154.014 C 294.580 154.014,294.189 153.552,293.815 152.988 C 293.442 152.424,292.477 151.264,291.670 150.410 C 290.864 149.557,289.906 148.472,289.541 147.999 C 289.177 147.526,288.320 146.902,287.636 146.613 C 286.911 146.306,286.083 145.671,285.646 145.085 C 284.573 143.647,283.049 141.722,282.482 141.088 C 281.330 139.802,281.118 139.185,281.066 136.973 C 281.037 135.758,281.098 134.627,281.201 134.460 C 281.320 134.267,281.235 134.215,280.967 134.318 C 280.562 134.473,280.422 134.185,280.524 133.401 C 280.551 133.194,280.245 133.061,279.740 133.061 C 278.942 133.061,278.690 132.562,278.879 131.361 C 278.897 131.248,278.483 131.156,277.959 131.156 C 277.309 131.156,276.996 131.027,276.973 130.748 C 276.954 130.524,276.922 130.065,276.902 129.728 C 276.871 129.226,276.706 129.116,275.983 129.118 C 275.391 129.120,275.092 128.986,275.071 128.710 C 275.053 128.484,275.011 128.177,274.976 128.027 C 274.941 127.878,274.894 127.628,274.871 127.473 C 274.849 127.318,274.438 127.161,273.960 127.124 C 272.858 127.040,272.922 127.142,272.889 125.416 C 272.859 123.820,272.585 123.265,271.826 123.265 C 271.558 123.265,271.276 123.418,271.201 123.605 C 271.067 123.938,270.906 123.115,271.005 122.603 C 271.127 121.967,270.698 121.089,270.267 121.093 C 269.863 121.096,269.854 121.135,270.204 121.361 C 270.449 121.519,270.483 121.626,270.288 121.628 C 270.110 121.631,269.886 121.507,269.791 121.353 C 269.697 121.200,269.414 121.108,269.163 121.149 C 268.794 121.210,268.722 121.031,268.785 120.204 C 268.830 119.601,268.740 119.184,268.564 119.184 C 268.401 119.184,268.340 119.301,268.429 119.445 C 268.524 119.600,268.254 119.589,267.764 119.418 C 267.067 119.175,266.939 118.989,266.939 118.221 C 266.939 117.720,266.816 117.235,266.667 117.143 C 266.517 117.050,266.393 117.135,266.390 117.331 C 266.387 117.582,266.327 117.596,266.186 117.378 C 266.076 117.209,265.746 117.024,265.452 116.968 C 265.066 116.895,264.915 116.642,264.908 116.053 C 264.899 115.310,264.808 115.231,263.878 115.154 C 262.920 115.074,262.857 115.014,262.857 114.164 C 262.857 113.344,262.767 113.241,261.905 113.079 C 260.907 112.892,260.816 112.667,260.940 110.716 C 260.996 109.849,260.239 109.025,259.551 109.205 C 259.168 109.305,259.048 109.186,259.048 108.704 C 259.048 107.549,258.764 107.211,257.794 107.211 C 257.251 107.211,256.860 107.071,256.844 106.871 C 256.829 106.684,256.799 106.224,256.776 105.850 C 256.746 105.358,256.572 105.162,256.146 105.140 C 255.020 105.083,254.775 104.853,254.904 103.971 C 255.025 103.147,255.005 103.129,253.908 103.129 C 253.293 103.129,252.805 103.037,252.826 102.925 C 252.990 102.005,252.394 100.912,251.791 101.028 C 251.023 101.175,250.796 100.885,250.827 99.797 C 250.848 99.037,250.798 98.998,249.915 99.101 C 248.938 99.215,248.779 98.870,248.969 97.051 C 248.998 96.777,248.798 96.297,248.524 95.984 C 248.251 95.672,248.199 95.518,248.409 95.642 C 248.664 95.791,248.728 95.764,248.602 95.559 C 248.497 95.390,248.066 95.292,247.643 95.341 C 247.042 95.411,246.900 95.333,246.991 94.986 C 247.182 94.253,246.552 92.860,246.247 93.343 C 246.092 93.588,245.993 93.616,245.991 93.417 C 245.988 93.239,245.741 93.140,245.442 93.197 C 244.890 93.304,244.801 93.122,244.884 92.064 C 244.927 91.521,244.281 91.063,243.634 91.179 C 242.990 91.295,242.819 91.070,242.837 90.136 C 242.855 89.234,242.778 89.111,242.177 89.074 C 241.803 89.052,241.361 89.021,241.194 89.006 C 241.022 88.991,240.948 88.688,241.022 88.299 C 241.101 87.886,241.026 87.619,240.832 87.619 C 240.656 87.619,240.575 87.517,240.652 87.392 C 240.729 87.268,240.430 87.166,239.988 87.166 C 238.994 87.166,238.944 87.116,238.862 86.040 C 238.802 85.251,238.712 85.170,237.901 85.170 C 237.080 85.170,237.007 85.100,237.007 84.316 C 237.007 83.825,236.804 83.304,236.531 83.091 C 236.084 82.743,236.086 82.731,236.568 82.900 C 236.937 83.029,237.045 82.972,236.952 82.696 C 236.882 82.485,236.611 82.312,236.351 82.311 C 236.091 82.310,235.752 82.085,235.599 81.811 C 235.352 81.370,235.384 81.346,235.874 81.609 C 236.557 81.974,236.735 81.980,236.735 81.638 C 236.735 81.179,235.343 80.972,235.077 81.392 C 234.921 81.638,234.837 81.314,234.834 80.454 L 234.830 79.139 233.878 79.268 C 232.892 79.400,232.893 79.401,232.842 78.027 C 232.816 77.321,232.473 77.017,231.698 77.011 C 231.397 77.009,230.990 76.749,230.794 76.434 C 230.597 76.119,230.568 75.943,230.728 76.042 C 230.889 76.141,231.020 76.039,231.020 75.814 C 231.020 75.233,230.460 74.962,230.178 75.407 C 230.006 75.679,229.939 75.688,229.936 75.442 C 229.934 75.255,229.748 75.102,229.524 75.102 C 229.299 75.102,229.116 74.884,229.116 74.618 C 229.116 73.804,228.306 72.892,227.663 72.980 C 227.166 73.049,227.062 72.909,226.993 72.086 C 226.919 71.206,226.833 71.111,226.109 71.111 C 225.081 71.111,224.980 70.992,224.980 69.795 C 224.980 69.042,224.885 68.842,224.585 68.958 C 224.320 69.059,224.259 68.998,224.400 68.772 C 225.035 67.755,224.490 66.759,223.791 67.660 C 223.413 68.146,223.406 68.145,223.584 67.640 C 223.727 67.233,223.670 67.154,223.327 67.285 C 222.971 67.422,222.871 67.235,222.804 66.312 C 222.729 65.276,222.653 65.169,221.983 65.158 C 221.056 65.142,220.844 64.930,220.829 64.003 C 220.818 63.340,220.719 63.266,219.852 63.276 C 218.948 63.285,218.894 63.238,218.998 62.525 C 219.142 61.544,218.587 60.873,217.762 61.031 C 217.063 61.164,216.669 60.654,216.746 59.715 C 216.781 59.277,216.613 59.144,215.961 59.094 C 214.949 59.017,214.997 59.064,214.921 58.067 C 214.868 57.371,214.738 57.241,214.042 57.188 C 213.008 57.109,213.086 57.236,212.927 55.367 C 212.793 53.796,212.245 52.568,212.245 53.839 C 212.245 54.177,212.134 54.385,211.998 54.302 C 211.863 54.218,211.813 53.914,211.888 53.627 C 211.990 53.238,211.864 53.083,211.391 53.016 C 210.870 52.941,210.762 52.769,210.784 52.051 C 210.803 51.403,210.696 51.185,210.371 51.209 C 209.026 51.311,208.742 51.167,208.872 50.449 C 209.037 49.537,208.564 48.980,207.623 48.980 C 206.989 48.980,206.889 48.878,206.952 48.299 C 207.002 47.848,206.892 47.619,206.627 47.619 C 206.407 47.619,206.308 47.487,206.408 47.325 C 206.517 47.149,206.386 47.052,206.084 47.084 C 205.041 47.194,204.898 47.073,204.898 46.077 C 204.898 45.528,204.826 45.151,204.739 45.239 C 204.412 45.565,202.993 44.838,202.959 44.327 C 202.940 44.042,202.909 43.656,202.890 43.469 C 202.871 43.282,202.549 43.111,202.176 43.088 C 201.802 43.065,201.374 43.034,201.224 43.019 C 201.075 43.003,200.927 42.236,200.895 41.314 C 200.860 40.298,200.700 39.550,200.487 39.415 C 199.946 39.071,199.769 39.140,199.856 39.660 C 199.900 39.922,200.082 40.102,200.260 40.061 C 200.439 40.020,200.503 40.118,200.404 40.279 C 200.277 40.484,200.110 40.477,199.843 40.254 C 199.633 40.081,199.525 39.836,199.603 39.710 C 199.681 39.584,199.404 39.297,198.988 39.071 C 198.572 38.846,198.369 38.656,198.537 38.650 C 198.984 38.634,198.912 37.337,198.455 37.162 C 198.242 37.080,198.134 37.121,198.216 37.254 C 198.297 37.386,198.187 37.562,197.971 37.645 C 197.696 37.751,197.629 37.664,197.748 37.354 C 197.875 37.023,197.803 36.956,197.462 37.087 C 197.040 37.249,196.871 36.991,196.986 36.361 C 197.010 36.231,196.847 36.194,196.624 36.279 C 196.349 36.384,196.267 36.308,196.369 36.042 C 196.452 35.826,196.645 35.727,196.799 35.822 C 196.954 35.918,197.021 35.827,196.950 35.616 C 196.877 35.399,196.468 35.244,195.988 35.252 C 195.226 35.264,195.140 35.174,194.985 34.205 C 194.856 33.403,194.714 33.184,194.400 33.304 C 194.150 33.400,194.056 33.349,194.163 33.176 C 194.260 33.018,194.175 32.911,193.973 32.939 C 193.191 33.047,192.925 32.905,192.925 32.381 C 192.925 32.082,192.788 31.837,192.620 31.837 C 192.403 31.837,192.408 31.724,192.638 31.446 C 192.908 31.121,192.823 31.060,192.124 31.080 C 191.085 31.109,190.930 30.960,190.930 29.932 C 190.930 29.188,190.849 29.116,190.023 29.116 C 189.192 29.116,189.116 29.045,189.116 28.283 C 189.116 27.825,189.024 27.508,188.912 27.578 C 188.799 27.647,188.707 27.201,188.707 26.586 C 188.707 25.558,188.636 25.446,187.823 25.211 C 187.326 25.067,186.925 24.764,186.907 24.518 C 186.890 24.278,186.860 23.898,186.839 23.673 C 186.816 23.412,186.510 23.262,185.986 23.257 C 185.264 23.250,185.160 23.145,185.083 22.351 C 185.021 21.704,184.887 21.495,184.607 21.602 C 184.370 21.693,184.218 21.583,184.218 21.320 C 184.218 21.025,184.049 20.933,183.680 21.030 C 183.284 21.133,183.038 20.962,182.748 20.381 C 182.532 19.947,182.468 19.592,182.606 19.592 C 182.744 19.592,182.857 19.490,182.857 19.365 C 182.857 19.240,182.490 19.138,182.041 19.138 C 181.047 19.138,180.944 19.045,180.840 18.057 C 180.772 17.405,180.620 17.265,179.903 17.194 C 179.433 17.147,179.036 16.963,179.021 16.785 C 179.006 16.608,178.975 16.156,178.953 15.782 C 178.918 15.202,178.762 15.090,177.891 15.018 C 176.806 14.928,176.717 14.711,176.858 12.495 C 176.901 11.808,176.203 10.918,175.876 11.244 C 175.471 11.649,174.769 10.884,174.903 10.185 C 174.988 9.740,174.897 9.375,174.663 9.227 C 174.116 8.881,173.814 8.926,174.050 9.320 C 174.195 9.562,174.125 9.556,173.806 9.296 C 173.559 9.096,173.210 9.023,173.031 9.134 C 172.822 9.263,172.776 9.220,172.903 9.015 C 173.012 8.839,173.018 8.314,172.916 7.848 C 172.779 7.225,172.667 7.102,172.492 7.379 C 172.320 7.650,172.252 7.660,172.249 7.415 C 172.247 7.228,172.115 7.075,171.957 7.075 C 171.798 7.075,171.755 7.228,171.861 7.415 C 172.008 7.677,171.973 7.682,171.707 7.436 C 171.518 7.261,171.192 7.183,170.984 7.262 C 170.723 7.363,170.659 7.271,170.776 6.966 C 170.869 6.723,170.778 6.318,170.575 6.067 C 170.319 5.752,170.310 5.673,170.544 5.814 C 170.757 5.942,170.884 5.864,170.884 5.607 C 170.884 5.351,170.522 5.127,169.932 5.016 C 169.325 4.902,168.968 4.676,168.948 4.391 C 168.931 4.146,168.900 3.762,168.880 3.538 C 168.860 3.314,168.568 3.115,168.231 3.096 C 167.895 3.077,167.459 3.046,167.264 3.027 C 167.048 3.007,166.915 2.646,166.924 2.109 C 166.938 1.280,166.875 1.219,165.918 1.140 C 165.119 1.074,164.898 0.941,164.898 0.528 C 164.898 0.056,164.697 0.000,162.993 0.000 L 161.088 0.000 161.057 91.905 M394.448 3.194 C 394.338 3.304,394.052 3.396,393.814 3.398 C 393.575 3.400,393.329 3.554,393.266 3.741 C 393.097 4.244,394.197 4.160,394.391 3.656 C 394.481 3.422,394.677 3.307,394.828 3.400 C 394.979 3.493,395.102 3.440,395.102 3.281 C 395.102 2.949,394.741 2.901,394.448 3.194 M391.286 5.868 C 390.945 6.765,390.951 7.075,391.309 7.075 C 391.467 7.075,391.521 6.952,391.427 6.801 C 391.334 6.650,391.449 6.453,391.683 6.364 C 392.152 6.184,392.276 5.170,391.830 5.170 C 391.677 5.170,391.432 5.484,391.286 5.868 M381.064 18.367 C 380.970 18.741,380.723 19.048,380.515 19.048 C 380.093 19.048,380.003 19.478,380.377 19.709 C 380.510 19.791,380.738 19.706,380.884 19.521 C 381.190 19.132,381.574 17.687,381.371 17.687 C 381.296 17.687,381.158 17.993,381.064 18.367 M379.052 20.884 C 379.055 21.398,379.128 21.519,379.286 21.269 C 379.413 21.069,379.595 20.916,379.690 20.929 C 380.147 20.990,380.178 20.922,379.864 20.544 C 379.351 19.926,379.047 20.053,379.052 20.884 M369.252 31.429 C 369.059 31.660,368.963 31.911,369.038 31.986 C 369.113 32.061,369.331 31.932,369.524 31.701 C 369.716 31.469,369.812 31.218,369.737 31.143 C 369.663 31.068,369.444 31.197,369.252 31.429 M368.980 32.773 C 368.980 33.177,368.685 33.309,367.980 33.222 C 367.804 33.201,367.570 33.339,367.460 33.530 C 367.350 33.721,367.360 33.787,367.482 33.676 C 367.605 33.565,367.869 33.610,368.070 33.777 C 368.341 34.002,368.435 33.997,368.435 33.759 C 368.435 33.582,368.533 33.498,368.653 33.572 C 368.773 33.646,369.015 33.475,369.192 33.192 C 369.395 32.867,369.415 32.618,369.246 32.514 C 369.100 32.423,368.980 32.540,368.980 32.773 M367.075 34.422 C 367.075 34.646,367.205 34.830,367.363 34.830 C 367.521 34.830,367.582 34.718,367.497 34.581 C 367.413 34.444,367.497 34.270,367.685 34.194 C 367.892 34.111,367.838 34.048,367.551 34.035 C 367.289 34.023,367.075 34.197,367.075 34.422 M357.132 45.460 C 357.033 45.620,357.026 45.824,357.116 45.914 C 357.205 46.004,357.279 45.920,357.279 45.728 C 357.279 45.513,357.488 45.433,357.824 45.521 C 358.123 45.599,358.299 45.553,358.216 45.417 C 358.007 45.079,357.351 45.106,357.132 45.460 M356.350 47.087 C 355.289 47.404,354.541 48.707,355.420 48.707 C 355.594 48.707,355.656 48.627,355.557 48.528 C 355.367 48.338,356.473 47.447,356.777 47.545 C 356.875 47.576,357.024 47.422,357.109 47.202 C 357.193 46.983,357.235 46.813,357.202 46.826 C 357.170 46.839,356.786 46.956,356.350 47.087 M353.379 49.433 C 353.066 49.746,353.181 50.068,353.605 50.068 C 353.830 50.068,354.014 49.884,354.014 49.660 C 354.014 49.235,353.692 49.120,353.379 49.433 M345.128 59.468 C 344.883 60.106,345.147 60.181,345.523 59.579 C 345.733 59.243,345.751 59.048,345.572 59.048 C 345.416 59.048,345.217 59.237,345.128 59.468 M343.456 61.551 C 343.052 61.955,343.034 62.313,343.417 62.313 C 343.576 62.313,343.635 62.198,343.548 62.058 C 343.461 61.917,343.607 61.676,343.872 61.522 C 344.137 61.367,344.225 61.237,344.068 61.233 C 343.911 61.228,343.635 61.371,343.456 61.551 M331.408 75.170 C 331.104 76.162,331.276 76.440,331.701 75.646 C 331.898 75.277,331.901 75.102,331.710 75.102 C 331.555 75.102,331.419 75.133,331.408 75.170 M329.433 77.460 C 329.120 77.773,329.235 78.095,329.660 78.095 C 329.884 78.095,330.068 77.912,330.068 77.687 C 330.068 77.262,329.746 77.147,329.433 77.460 M317.551 91.565 C 317.362 91.792,317.333 91.973,317.484 91.973 C 317.634 91.973,317.909 91.789,318.095 91.565 C 318.284 91.337,318.314 91.156,318.162 91.156 C 318.012 91.156,317.737 91.340,317.551 91.565 M316.797 92.906 C 316.239 93.495,316.230 93.544,316.704 93.420 C 316.993 93.345,317.290 93.049,317.364 92.764 C 317.533 92.120,317.545 92.117,316.797 92.906 M315.387 93.726 C 315.202 93.949,315.114 94.289,315.191 94.481 C 315.283 94.709,315.339 94.673,315.353 94.376 C 315.364 94.127,315.527 93.868,315.714 93.801 C 315.901 93.735,315.980 93.599,315.889 93.500 C 315.798 93.401,315.572 93.503,315.387 93.726 M303.456 107.537 C 303.276 107.717,303.129 108.044,303.129 108.263 C 303.129 108.725,303.531 108.413,303.550 107.937 C 303.557 107.762,303.710 107.650,303.890 107.687 C 304.070 107.724,304.218 107.633,304.218 107.483 C 304.218 107.114,303.853 107.140,303.456 107.537 M291.565 121.633 C 291.657 121.782,291.611 121.905,291.462 121.905 C 291.312 121.905,291.208 122.141,291.230 122.430 C 291.252 122.719,291.368 122.894,291.489 122.819 C 291.611 122.745,291.644 122.578,291.565 122.449 C 291.485 122.320,291.544 122.138,291.696 122.044 C 292.060 121.819,292.052 121.361,291.685 121.361 C 291.526 121.361,291.472 121.483,291.565 121.633 M272.392 124.102 C 272.669 124.621,272.647 124.642,272.122 124.361 C 271.807 124.192,271.621 123.938,271.709 123.796 C 271.941 123.420,272.054 123.471,272.392 124.102 " stroke="none" fill="#2babe3" fill-rule="evenodd"></path><path id="path3" d="M397.279 0.544 C 397.279 0.844,397.165 1.088,397.025 1.088 C 396.886 1.088,396.691 1.340,396.594 1.648 C 396.496 1.956,396.113 2.323,395.743 2.464 C 395.372 2.605,395.141 2.837,395.229 2.979 C 395.317 3.121,395.141 3.371,394.838 3.533 C 394.534 3.696,394.286 3.962,394.286 4.125 C 394.286 4.310,394.464 4.283,394.762 4.052 C 395.214 3.701,395.214 3.711,394.761 4.244 C 394.499 4.553,394.346 4.868,394.421 4.943 C 394.496 5.018,394.376 5.079,394.154 5.079 C 393.863 5.079,393.828 4.985,394.031 4.741 C 394.201 4.536,394.212 4.340,394.058 4.245 C 393.919 4.159,393.655 4.450,393.472 4.892 C 393.289 5.334,393.060 5.685,392.964 5.672 C 392.437 5.605,392.096 5.746,392.238 5.975 C 392.326 6.118,392.609 6.159,392.866 6.067 C 393.123 5.975,393.272 5.951,393.197 6.014 C 392.079 6.953,391.741 7.171,392.079 6.735 C 392.310 6.436,392.337 6.259,392.152 6.259 C 391.989 6.259,391.699 6.534,391.507 6.871 C 391.153 7.493,391.108 7.657,391.052 8.503 C 391.034 8.767,390.804 8.980,390.537 8.980 C 389.888 8.980,389.116 9.923,389.116 10.716 C 389.116 11.266,389.001 11.344,388.311 11.264 C 387.869 11.212,387.421 11.308,387.317 11.477 C 387.205 11.658,387.248 11.710,387.422 11.602 C 387.585 11.502,387.794 11.544,387.888 11.696 C 387.982 11.848,387.863 11.973,387.623 11.973 C 387.364 11.973,387.219 12.159,387.267 12.431 C 387.319 12.726,387.105 12.952,386.667 13.067 C 386.293 13.165,386.024 13.408,386.070 13.608 C 386.136 13.895,386.055 13.890,385.677 13.583 C 385.404 13.361,385.286 13.337,385.399 13.526 C 385.508 13.707,385.483 14.075,385.343 14.343 C 385.204 14.611,384.951 15.136,384.781 15.510 C 384.612 15.884,384.534 15.976,384.609 15.714 C 384.684 15.452,384.636 15.238,384.504 15.238 C 384.016 15.238,383.401 15.576,383.401 15.845 C 383.401 16.012,383.541 16.027,383.754 15.884 C 383.948 15.753,383.907 15.834,383.662 16.063 C 383.416 16.292,383.247 16.692,383.285 16.952 C 383.329 17.252,383.040 17.577,382.494 17.841 C 381.715 18.218,381.683 18.217,382.161 17.836 C 382.451 17.605,382.574 17.417,382.433 17.419 C 381.959 17.427,381.571 17.819,381.361 18.503 C 381.247 18.878,380.740 19.588,380.236 20.081 C 379.382 20.918,379.174 21.471,379.273 22.653 C 379.310 23.088,379.011 23.260,378.407 23.152 C 377.807 23.045,377.073 23.462,377.447 23.699 C 377.759 23.896,377.760 23.938,377.454 23.941 C 377.251 23.944,377.145 24.103,377.219 24.295 C 377.292 24.487,377.101 24.946,376.794 25.315 C 376.405 25.783,376.291 25.835,376.418 25.487 C 376.539 25.152,376.487 25.026,376.259 25.102 C 376.072 25.164,375.918 25.348,375.918 25.510 C 375.918 25.672,375.807 25.907,375.671 26.032 C 375.528 26.162,375.501 26.122,375.607 25.937 C 375.708 25.760,375.667 25.539,375.515 25.445 C 375.363 25.351,375.238 25.455,375.238 25.676 C 375.238 25.897,375.156 26.292,375.056 26.553 C 374.922 26.902,374.969 26.969,375.234 26.805 C 375.474 26.657,375.529 26.688,375.400 26.897 C 375.293 27.070,374.961 27.211,374.662 27.211 C 374.299 27.211,374.186 27.324,374.322 27.551 C 374.441 27.749,374.312 27.720,374.015 27.483 C 373.551 27.113,373.520 27.119,373.681 27.548 C 373.788 27.835,373.736 27.995,373.548 27.956 C 373.372 27.919,373.227 28.271,373.210 28.776 C 373.172 29.950,371.701 31.017,371.701 29.871 C 371.701 29.737,371.822 29.703,371.971 29.795 C 372.119 29.886,372.441 29.849,372.686 29.712 C 372.990 29.542,373.034 29.403,372.824 29.273 C 372.655 29.169,372.517 29.226,372.517 29.401 C 372.517 29.575,372.335 29.648,372.113 29.563 C 371.698 29.404,371.037 30.266,371.341 30.570 C 371.432 30.661,371.351 30.922,371.162 31.150 C 370.884 31.485,370.885 31.565,371.168 31.565 C 371.361 31.565,371.450 31.634,371.364 31.720 C 371.279 31.805,370.956 31.716,370.646 31.522 C 370.203 31.246,370.010 31.241,369.751 31.501 C 369.336 31.916,369.214 32.653,369.560 32.653 C 369.703 32.653,369.784 32.496,369.740 32.305 C 369.659 31.953,369.816 31.837,370.373 31.837 C 370.598 31.837,370.599 31.933,370.376 32.202 C 370.209 32.403,370.164 32.667,370.274 32.790 C 370.385 32.912,370.339 32.934,370.170 32.838 C 370.002 32.742,369.537 32.967,369.136 33.338 C 368.735 33.710,368.293 34.014,368.153 34.014 C 367.815 34.014,367.023 35.935,367.186 36.360 C 367.256 36.543,367.015 36.889,366.650 37.129 C 366.285 37.368,365.986 37.442,365.986 37.294 C 365.986 37.145,365.814 37.090,365.604 37.171 C 365.386 37.254,365.254 37.607,365.297 37.995 C 365.381 38.768,364.787 39.501,364.245 39.293 C 363.814 39.127,362.993 39.871,362.993 40.428 C 362.993 40.641,363.123 40.816,363.281 40.816 C 363.440 40.816,363.493 40.941,363.399 41.093 C 363.305 41.245,363.114 41.299,362.974 41.213 C 362.835 41.127,362.721 41.271,362.721 41.533 C 362.721 41.964,362.681 41.959,362.299 41.481 C 361.892 40.971,361.883 40.976,362.058 41.606 C 362.204 42.129,362.154 42.226,361.809 42.094 C 361.572 42.003,361.294 42.065,361.191 42.231 C 361.082 42.407,361.128 42.457,361.300 42.351 C 361.462 42.250,361.672 42.292,361.766 42.445 C 361.860 42.597,361.756 42.721,361.535 42.721 C 361.314 42.721,361.087 42.862,361.029 43.035 C 360.972 43.207,360.684 43.366,360.390 43.388 C 359.464 43.456,358.611 44.354,359.472 44.354 C 359.630 44.354,359.672 44.201,359.564 44.014 C 359.457 43.827,359.465 43.761,359.584 43.868 C 359.702 43.975,360.041 43.933,360.337 43.775 C 361.026 43.406,361.652 43.899,361.143 44.408 C 360.889 44.662,360.816 44.630,360.816 44.263 C 360.816 43.870,360.722 43.841,360.256 44.090 C 359.663 44.408,359.685 45.092,360.284 44.951 C 360.554 44.887,360.563 44.955,360.325 45.243 C 360.153 45.449,360.102 45.734,360.211 45.876 C 360.319 46.018,360.219 45.935,359.989 45.692 C 359.754 45.444,359.215 45.273,358.764 45.303 C 357.584 45.382,357.552 45.401,357.742 45.895 C 357.869 46.226,357.812 46.294,357.529 46.147 C 357.317 46.036,357.381 46.139,357.671 46.374 C 358.120 46.738,358.132 46.803,357.753 46.803 C 357.507 46.803,357.208 46.969,357.088 47.171 C 356.969 47.374,356.601 47.681,356.270 47.855 C 355.905 48.046,355.601 48.537,355.494 49.106 C 355.329 49.988,354.014 51.309,354.014 50.593 C 354.014 50.426,354.259 50.225,354.558 50.147 C 354.857 50.069,355.102 49.908,355.102 49.790 C 355.102 49.671,354.852 49.640,354.547 49.720 C 353.857 49.900,353.113 51.279,353.333 51.971 C 353.504 52.511,352.363 53.523,351.903 53.238 C 351.777 53.160,351.518 53.346,351.327 53.652 C 351.042 54.108,351.044 54.168,351.340 53.990 C 351.626 53.818,351.624 53.867,351.330 54.230 C 350.875 54.791,351.139 55.627,351.703 55.411 C 351.926 55.325,352.109 55.374,352.109 55.519 C 352.109 55.664,351.965 55.782,351.790 55.782 C 351.615 55.782,351.270 55.965,351.023 56.188 C 350.633 56.541,350.505 56.543,350.049 56.207 C 349.553 55.841,349.566 55.824,350.279 55.900 C 350.694 55.945,351.099 55.875,351.179 55.746 C 351.259 55.616,351.164 55.500,350.968 55.488 C 350.773 55.475,350.342 55.435,350.013 55.398 C 349.683 55.361,349.476 55.432,349.552 55.557 C 349.629 55.681,349.532 55.784,349.336 55.786 C 349.076 55.790,349.091 55.863,349.388 56.059 C 349.665 56.241,349.701 56.392,349.501 56.531 C 349.338 56.643,349.066 56.980,348.897 57.279 C 348.727 57.578,348.584 57.670,348.580 57.483 C 348.568 57.017,348.076 57.056,347.570 57.561 C 347.328 57.804,347.205 58.259,347.278 58.642 C 347.347 59.005,347.308 59.244,347.190 59.171 C 347.073 59.098,346.903 59.158,346.813 59.303 C 346.723 59.449,346.489 59.507,346.293 59.432 C 346.098 59.356,345.765 59.508,345.554 59.768 C 345.306 60.073,345.290 60.168,345.510 60.036 C 345.701 59.921,345.850 59.965,345.850 60.136 C 345.850 60.303,345.986 60.357,346.152 60.254 C 346.361 60.124,346.341 59.997,346.083 59.834 C 345.836 59.678,345.822 59.599,346.038 59.596 C 346.546 59.589,346.698 60.044,346.298 60.375 C 346.099 60.540,345.873 60.612,345.796 60.535 C 345.719 60.458,345.497 60.587,345.302 60.821 C 344.882 61.327,345.183 61.724,346.122 61.905 C 346.828 62.041,347.264 62.552,347.015 62.953 C 346.926 63.097,346.723 63.030,346.556 62.802 C 346.391 62.577,345.964 62.299,345.606 62.186 C 345.035 62.004,345.002 62.030,345.335 62.390 C 345.543 62.615,345.805 62.745,345.915 62.678 C 346.026 62.612,346.051 62.728,345.970 62.937 C 345.860 63.224,346.094 63.318,346.924 63.318 C 347.880 63.318,347.980 63.263,347.686 62.899 C 347.415 62.565,347.415 62.522,347.687 62.685 C 347.989 62.866,348.081 62.706,348.003 62.133 C 347.989 62.035,348.176 61.843,348.417 61.708 C 348.658 61.574,348.772 61.329,348.671 61.166 C 348.560 60.986,348.613 60.946,348.806 61.065 C 348.981 61.173,349.059 61.368,348.980 61.497 C 348.900 61.626,348.939 61.795,349.066 61.874 C 349.378 62.067,349.377 61.169,349.065 60.773 C 348.719 60.332,349.270 60.043,349.844 60.364 C 350.376 60.662,351.837 59.746,351.837 59.114 C 351.837 58.861,352.037 58.788,352.449 58.891 C 352.786 58.974,352.909 58.973,352.724 58.887 C 352.274 58.680,352.969 57.959,353.618 57.959 C 353.935 57.959,354.035 57.799,353.942 57.443 C 353.809 56.936,354.911 56.045,355.251 56.385 C 355.526 56.660,355.048 57.959,354.671 57.959 C 354.298 57.959,353.197 60.048,353.197 60.758 C 353.197 60.966,352.896 61.274,352.528 61.442 C 352.117 61.629,351.769 62.094,351.627 62.642 C 351.487 63.189,351.129 63.667,350.709 63.871 C 350.330 64.055,349.791 64.714,349.510 65.337 C 349.229 65.959,348.658 66.810,348.241 67.227 C 347.824 67.644,347.483 68.237,347.483 68.544 C 347.483 68.888,347.171 69.263,346.667 69.524 C 346.218 69.756,345.850 70.143,345.850 70.383 C 345.850 70.623,345.447 71.202,344.954 71.669 C 344.460 72.135,343.784 73.082,343.450 73.774 C 343.116 74.465,342.602 75.249,342.306 75.516 C 342.011 75.784,341.769 76.171,341.769 76.376 C 341.769 76.582,341.404 77.145,340.957 77.627 C 339.742 78.940,338.438 80.549,337.602 81.769 C 334.822 85.822,334.121 86.768,333.190 87.725 C 332.738 88.191,332.068 89.000,331.703 89.524 C 331.337 90.048,330.878 90.641,330.683 90.842 C 330.487 91.043,330.130 91.594,329.889 92.067 C 329.647 92.539,329.093 93.354,328.657 93.878 C 327.011 95.855,325.816 97.401,324.762 98.915 C 324.163 99.775,323.280 100.984,322.800 101.600 C 322.319 102.217,321.523 103.247,321.031 103.889 C 320.539 104.531,319.764 105.511,319.310 106.066 C 318.856 106.621,318.148 107.565,317.738 108.163 C 315.567 111.328,315.745 111.098,313.195 114.044 C 312.598 114.734,312.109 115.416,312.109 115.559 C 312.109 115.702,311.242 116.908,310.183 118.238 C 309.124 119.569,308.127 120.908,307.968 121.214 C 307.810 121.519,306.992 122.554,306.153 123.515 C 305.313 124.475,304.381 125.657,304.082 126.141 C 303.300 127.405,301.396 129.844,300.717 130.450 C 300.397 130.735,300.136 131.108,300.136 131.278 C 300.136 131.448,299.707 132.042,299.184 132.597 C 298.660 133.152,298.231 133.717,298.231 133.852 C 298.231 133.988,297.800 134.630,297.272 135.280 C 296.745 135.931,295.857 137.050,295.300 137.767 C 294.742 138.485,293.938 139.493,293.514 140.007 C 292.540 141.187,291.701 142.330,290.453 144.180 C 289.340 145.829,287.734 146.057,286.803 144.697 C 286.578 144.370,285.934 143.567,285.370 142.914 C 284.807 142.261,284.169 141.399,283.954 140.999 C 283.738 140.599,283.264 139.997,282.900 139.661 C 282.297 139.104,282.143 138.682,281.777 136.586 C 281.412 134.492,281.123 134.614,281.107 136.871 C 281.092 139.226,281.211 139.589,282.499 141.096 C 283.151 141.859,284.766 143.906,285.646 145.085 C 286.083 145.671,286.911 146.306,287.636 146.613 C 288.320 146.902,289.177 147.526,289.541 147.999 C 289.906 148.472,290.864 149.557,291.670 150.410 C 292.477 151.264,293.442 152.424,293.815 152.988 C 294.189 153.552,294.580 154.014,294.686 154.014 C 294.791 154.014,295.601 154.882,296.486 155.943 C 299.905 160.042,302.388 162.928,303.992 164.665 C 304.909 165.659,305.782 166.700,305.932 166.978 C 306.081 167.256,306.583 167.859,307.047 168.319 C 307.511 168.779,308.381 169.745,308.980 170.466 C 309.578 171.188,310.558 172.353,311.156 173.057 C 311.755 173.760,312.673 174.862,313.197 175.505 C 313.721 176.149,314.578 177.141,315.102 177.710 C 315.626 178.279,316.483 179.247,317.007 179.862 C 317.531 180.476,318.359 181.432,318.849 181.986 C 324.379 188.248,325.603 190.523,323.605 190.826 C 323.194 190.888,340.214 190.957,361.429 190.980 L 400.000 191.020 400.000 95.510 L 400.000 0.000 398.639 0.000 C 397.460 0.000,397.279 0.073,397.279 0.544 M395.556 1.542 C 395.242 1.855,395.357 2.177,395.782 2.177 C 396.007 2.177,396.190 1.993,396.190 1.769 C 396.190 1.344,395.869 1.229,395.556 1.542 M368.731 34.680 C 368.868 34.595,368.980 34.648,368.980 34.797 C 368.980 34.946,368.748 35.051,368.465 35.029 C 368.128 35.004,368.005 34.851,368.107 34.584 C 368.213 34.307,368.298 34.282,368.372 34.505 C 368.433 34.686,368.594 34.764,368.731 34.680 M356.640 48.389 C 356.392 48.663,356.271 48.970,356.371 49.070 C 356.471 49.170,356.410 49.252,356.236 49.252 C 355.761 49.252,355.853 48.681,356.395 48.270 C 357.068 47.759,357.167 47.807,356.640 48.389 M353.554 53.201 C 352.945 53.646,352.729 53.489,353.189 52.935 C 353.377 52.708,353.647 52.595,353.789 52.682 C 353.930 52.770,353.825 53.003,353.554 53.201 M357.279 54.859 C 357.279 55.309,356.304 55.369,356.036 54.936 C 355.805 54.563,356.416 54.149,356.914 54.340 C 357.115 54.417,357.279 54.651,357.279 54.859 M350.204 57.286 C 350.204 57.008,350.280 56.856,350.374 56.950 C 350.467 57.043,350.458 57.339,350.354 57.607 C 350.175 58.069,350.144 58.067,349.776 57.567 C 349.527 57.228,349.388 57.171,349.388 57.408 C 349.388 57.612,349.314 57.704,349.224 57.614 C 349.135 57.525,349.153 57.302,349.266 57.120 C 349.416 56.877,349.569 56.922,349.837 57.290 C 350.193 57.776,350.204 57.776,350.204 57.286 M348.567 58.315 C 348.565 58.510,348.458 58.477,348.299 58.231 C 348.058 57.858,347.906 58.042,348.002 58.592 C 348.023 58.715,347.909 58.735,347.749 58.635 C 347.544 58.509,347.551 58.342,347.773 58.074 C 348.117 57.659,348.574 57.798,348.567 58.315 M343.140 63.447 C 342.802 63.721,342.646 63.946,342.794 63.946 C 342.942 63.946,343.220 63.756,343.412 63.525 C 343.665 63.220,343.816 63.191,343.957 63.420 C 344.091 63.637,344.302 63.653,344.627 63.471 C 345.047 63.236,345.024 63.191,344.429 63.077 C 344.020 62.999,343.515 63.144,343.140 63.447 M344.332 64.558 C 344.249 64.820,343.943 65.034,343.653 65.034 C 343.177 65.034,343.199 65.117,343.870 65.870 C 344.590 66.679,344.622 66.687,344.866 66.142 C 345.004 65.832,345.256 65.578,345.426 65.578 C 345.596 65.578,345.753 65.333,345.776 65.034 C 345.798 64.735,345.671 64.488,345.493 64.486 C 345.286 64.483,345.307 64.395,345.552 64.240 C 345.825 64.067,345.727 64.010,345.209 64.040 C 344.783 64.064,344.421 64.278,344.332 64.558 M344.956 65.601 C 344.593 66.183,344.333 66.256,344.080 65.848 C 343.987 65.698,344.110 65.498,344.352 65.405 C 344.608 65.307,344.727 65.063,344.635 64.824 C 344.506 64.489,344.552 64.474,344.880 64.747 C 345.202 65.014,345.217 65.184,344.956 65.601 M341.376 65.009 C 341.292 65.146,341.305 65.472,341.406 65.734 C 341.522 66.037,341.484 66.147,341.301 66.034 C 341.131 65.928,340.965 66.187,340.894 66.669 C 340.828 67.117,340.876 67.483,341.000 67.483 C 341.123 67.483,341.224 67.314,341.224 67.108 C 341.224 66.902,341.408 66.581,341.633 66.395 C 341.965 66.118,342.041 66.133,342.041 66.475 C 342.041 66.705,341.888 66.948,341.701 67.015 C 341.514 67.082,341.447 67.229,341.552 67.342 C 341.861 67.675,343.129 67.237,343.129 66.798 C 343.129 66.576,343.259 66.395,343.417 66.395 C 343.576 66.395,343.626 66.266,343.529 66.109 C 343.421 65.934,343.151 66.055,342.833 66.423 C 342.319 67.015,342.313 67.016,342.313 66.459 C 342.313 66.149,342.466 65.827,342.653 65.744 C 342.840 65.660,342.687 65.620,342.313 65.653 C 341.812 65.698,341.643 65.589,341.670 65.238 C 341.712 64.712,341.609 64.632,341.376 65.009 M343.084 67.211 C 342.834 67.485,342.702 67.781,342.790 67.869 C 342.975 68.054,343.946 67.237,343.946 66.897 C 343.946 66.534,343.578 66.668,343.084 67.211 M339.052 67.959 C 339.049 68.296,339.170 68.571,339.320 68.571 C 339.661 68.571,339.661 68.283,339.320 67.755 C 339.106 67.425,339.055 67.464,339.052 67.959 M337.763 69.465 C 337.872 69.748,337.812 69.858,337.596 69.775 C 337.401 69.701,337.242 69.887,337.217 70.218 C 337.181 70.687,337.244 70.731,337.566 70.463 C 337.846 70.231,338.060 70.221,338.308 70.427 C 338.595 70.665,340.408 69.902,340.408 69.542 C 340.408 69.290,339.587 69.553,339.476 69.841 C 339.288 70.330,338.231 70.306,338.231 69.812 C 338.231 69.596,338.088 69.331,337.913 69.223 C 337.701 69.092,337.651 69.173,337.763 69.465 M338.677 69.522 C 338.762 69.746,338.942 69.861,339.076 69.778 C 339.460 69.541,339.360 69.116,338.920 69.116 C 338.677 69.116,338.582 69.275,338.677 69.522 M336.213 71.224 C 336.101 71.337,335.897 71.444,335.760 71.463 C 335.129 71.549,335.159 71.611,336.018 71.983 C 337.087 72.448,337.229 72.469,337.021 72.132 C 336.937 71.995,337.021 71.811,337.209 71.722 C 337.397 71.634,337.184 71.632,336.735 71.718 C 335.828 71.893,336.073 71.439,337.007 71.214 C 337.532 71.088,337.532 71.082,336.984 71.052 C 336.672 71.035,336.325 71.112,336.213 71.224 M335.127 72.551 C 335.040 72.777,335.090 72.881,335.241 72.787 C 335.389 72.696,335.510 72.740,335.510 72.886 C 335.510 73.032,335.374 73.197,335.207 73.253 C 335.040 73.309,334.950 73.593,335.006 73.884 C 335.090 74.318,335.197 74.243,335.599 73.465 C 336.055 72.585,336.082 72.571,335.974 73.265 C 335.910 73.677,335.963 74.014,336.092 74.014 C 336.221 74.014,336.330 73.677,336.335 73.265 C 336.342 72.626,336.383 72.586,336.620 72.993 C 336.935 73.533,337.415 73.629,337.415 73.152 C 337.415 72.977,337.335 72.914,337.238 73.012 C 337.140 73.109,336.926 73.006,336.762 72.782 C 336.338 72.205,335.315 72.061,335.127 72.551 M333.446 73.779 C 333.349 73.937,333.453 74.250,333.677 74.474 C 333.995 74.792,334.132 74.807,334.296 74.542 C 334.432 74.322,334.395 74.270,334.192 74.396 C 334.019 74.503,333.878 74.470,333.878 74.324 C 333.878 74.178,334.024 74.010,334.204 73.950 C 334.410 73.881,334.364 73.777,334.077 73.667 C 333.827 73.572,333.543 73.622,333.446 73.779 M332.605 75.291 C 332.279 75.355,331.850 75.614,331.652 75.867 C 331.335 76.272,331.345 76.286,331.734 75.982 C 331.977 75.792,332.359 75.707,332.583 75.793 C 332.814 75.882,333.061 75.766,333.154 75.526 C 333.243 75.293,333.289 75.119,333.257 75.139 C 333.224 75.159,332.931 75.228,332.605 75.291 M332.232 76.054 C 332.204 76.204,332.197 76.424,332.217 76.544 C 332.237 76.663,332.076 76.724,331.859 76.680 C 331.642 76.635,331.446 76.721,331.423 76.871 C 331.401 77.020,331.240 77.327,331.065 77.551 C 330.786 77.911,330.807 77.913,331.251 77.564 C 331.528 77.346,332.015 77.128,332.334 77.080 C 333.074 76.967,333.469 76.578,333.085 76.341 C 332.922 76.241,332.781 76.319,332.770 76.515 C 332.759 76.710,332.646 76.626,332.517 76.327 C 332.388 76.027,332.260 75.905,332.232 76.054 M330.592 78.435 C 330.473 78.836,330.353 79.803,330.433 79.711 C 330.832 79.258,331.138 78.367,330.894 78.367 C 330.739 78.367,330.603 78.398,330.592 78.435 M325.850 83.396 C 325.188 83.703,325.150 83.761,325.650 83.706 C 325.989 83.669,326.411 83.494,326.589 83.316 C 326.995 82.910,326.870 82.923,325.850 83.396 M323.503 85.306 C 323.418 85.647,323.342 85.884,323.174 86.327 C 322.760 87.417,322.753 87.590,323.126 87.447 C 323.341 87.364,323.432 87.116,323.337 86.869 C 323.210 86.538,323.287 86.481,323.665 86.626 C 324.070 86.781,324.101 86.745,323.835 86.425 C 323.614 86.159,323.602 85.979,323.796 85.859 C 324.159 85.634,324.168 85.170,323.810 85.170 C 323.660 85.170,323.522 85.231,323.503 85.306 M324.527 85.578 C 324.614 85.803,324.780 85.986,324.898 85.986 C 325.016 85.986,325.182 85.803,325.268 85.578 C 325.374 85.302,325.255 85.170,324.898 85.170 C 324.541 85.170,324.421 85.302,324.527 85.578 M322.503 88.218 C 322.122 88.599,322.069 89.252,322.419 89.252 C 322.552 89.252,322.644 89.037,322.623 88.776 C 322.602 88.511,322.745 88.333,322.945 88.374 C 323.144 88.415,323.228 88.323,323.133 88.170 C 322.917 87.820,322.900 87.821,322.503 88.218 M321.205 89.237 C 321.205 89.495,321.342 89.705,321.510 89.705 C 321.677 89.705,321.814 89.547,321.814 89.354 C 321.814 89.161,321.677 88.950,321.510 88.886 C 321.342 88.822,321.205 88.980,321.205 89.237 M319.395 89.834 C 319.306 90.065,319.343 90.426,319.477 90.637 C 319.610 90.848,319.723 90.898,319.728 90.748 C 319.732 90.599,319.843 90.645,319.974 90.851 C 320.104 91.057,320.349 91.141,320.518 91.036 C 320.687 90.932,320.755 90.733,320.669 90.593 C 320.583 90.454,320.672 90.336,320.868 90.332 C 321.087 90.327,321.040 90.216,320.746 90.045 C 320.483 89.892,320.157 89.835,320.021 89.919 C 319.885 90.003,319.725 89.924,319.665 89.743 C 319.592 89.524,319.502 89.554,319.395 89.834 M317.869 92.384 C 317.525 92.821,317.381 93.273,317.496 93.555 C 317.644 93.920,317.700 93.875,317.772 93.333 C 317.821 92.959,318.058 92.501,318.299 92.316 C 318.539 92.130,318.667 91.909,318.583 91.825 C 318.498 91.741,318.177 91.992,317.869 92.384 M316.153 94.141 C 315.799 94.435,315.607 94.680,315.726 94.685 C 315.844 94.690,316.204 94.449,316.525 94.150 C 317.278 93.448,316.992 93.441,316.153 94.141 M312.234 99.338 C 312.135 99.497,312.128 99.702,312.218 99.791 C 312.307 99.881,312.381 99.804,312.381 99.619 C 312.381 99.400,312.583 99.347,312.959 99.467 C 313.348 99.590,313.477 99.552,313.351 99.349 C 313.114 98.966,312.468 98.959,312.234 99.338 M309.413 101.602 C 309.192 101.868,309.180 102.049,309.375 102.169 C 309.531 102.266,309.660 102.481,309.660 102.646 C 309.660 102.812,309.580 102.868,309.483 102.771 C 309.386 102.674,309.080 102.856,308.803 103.176 C 308.193 103.880,308.177 103.975,308.707 103.772 C 308.932 103.686,309.116 103.493,309.116 103.343 C 309.116 103.193,309.298 103.141,309.521 103.226 C 309.743 103.312,309.912 103.294,309.896 103.187 C 309.823 102.697,309.955 102.313,310.196 102.313 C 310.341 102.313,310.390 102.527,310.306 102.789 C 310.185 103.166,310.209 103.185,310.425 102.882 C 310.813 102.336,310.520 101.666,310.060 102.047 C 309.840 102.230,309.648 102.241,309.546 102.077 C 309.457 101.933,309.538 101.760,309.726 101.693 C 309.914 101.626,309.994 101.490,309.903 101.391 C 309.812 101.292,309.592 101.387,309.413 101.602 M308.356 104.402 C 308.086 104.510,308.078 104.631,308.321 104.924 C 308.696 105.376,309.116 105.425,309.116 105.018 C 309.116 104.859,308.972 104.818,308.797 104.927 C 308.583 105.059,308.536 104.975,308.653 104.670 C 308.748 104.421,308.800 104.227,308.767 104.239 C 308.734 104.251,308.549 104.324,308.356 104.402 M283.362 132.036 C 283.279 132.171,283.284 132.355,283.374 132.444 C 283.464 132.534,283.537 132.469,283.537 132.299 C 283.537 132.129,283.721 132.060,283.946 132.146 C 284.170 132.233,284.354 132.188,284.354 132.047 C 284.354 131.721,283.563 131.712,283.362 132.036 M281.769 133.605 C 281.676 133.755,281.700 133.879,281.821 133.882 C 281.942 133.884,281.857 134.005,281.633 134.150 C 281.281 134.377,281.288 134.414,281.684 134.418 C 281.976 134.420,282.128 134.224,282.102 133.878 C 282.056 133.261,282.007 133.221,281.769 133.605 M161.237 185.442 C 161.770 186.895,162.177 188.804,162.177 189.855 C 162.177 190.496,162.299 191.020,162.449 191.020 C 163.137 191.020,162.435 186.610,161.580 185.563 C 161.138 185.021,161.075 184.998,161.237 185.442 " stroke="none" fill="#0c9ccc" fill-rule="evenodd"></path><path id="path4" d="M385.377 13.465 C 385.191 13.676,385.136 13.909,385.254 13.982 C 385.373 14.055,385.617 13.877,385.798 13.588 C 386.177 12.982,385.879 12.895,385.377 13.465 M381.610 17.568 C 381.842 17.738,381.973 17.957,381.901 18.054 C 381.828 18.152,381.854 18.167,381.958 18.087 C 382.368 17.775,382.219 17.259,381.718 17.259 C 381.256 17.259,381.242 17.299,381.610 17.568 M380.201 19.501 C 380.012 19.577,379.720 19.904,379.552 20.228 C 379.265 20.779,379.292 20.774,379.963 20.157 C 380.358 19.794,380.680 19.457,380.680 19.408 C 380.680 19.309,380.676 19.310,380.201 19.501 M373.226 27.369 C 373.007 27.941,373.006 27.937,373.432 27.937 C 373.658 27.937,373.752 27.741,373.672 27.438 C 373.513 26.827,373.439 26.816,373.226 27.369 M371.917 29.628 C 371.680 29.966,371.432 30.142,371.366 30.019 C 371.300 29.896,371.282 29.945,371.326 30.128 C 371.369 30.311,371.219 30.647,370.991 30.874 C 370.554 31.312,370.696 31.851,371.241 31.815 C 371.482 31.799,371.479 31.759,371.232 31.659 C 370.982 31.558,371.006 31.360,371.329 30.866 C 371.566 30.505,371.842 30.259,371.942 30.321 C 372.042 30.383,372.413 30.216,372.766 29.950 C 373.248 29.586,373.320 29.412,373.056 29.249 C 372.825 29.106,372.772 29.139,372.899 29.346 C 373.006 29.518,372.974 29.660,372.828 29.660 C 372.682 29.660,372.514 29.515,372.455 29.337 C 372.390 29.143,372.175 29.260,371.917 29.628 M369.476 32.041 C 369.172 32.415,369.177 32.449,369.502 32.252 C 369.783 32.083,369.846 32.131,369.732 32.427 C 369.639 32.670,369.730 32.834,369.958 32.834 C 370.168 32.834,370.280 32.774,370.206 32.701 C 370.133 32.627,370.197 32.417,370.349 32.234 C 370.544 31.999,370.509 31.855,370.231 31.749 C 370.014 31.665,369.674 31.797,369.476 32.041 M361.270 41.270 C 360.911 41.629,361.099 42.062,361.633 42.102 C 362.236 42.148,362.247 42.131,362.012 41.519 C 361.836 41.062,361.568 40.972,361.270 41.270 M360.285 43.252 C 360.068 43.389,359.799 43.445,359.687 43.376 C 359.576 43.307,359.532 43.499,359.590 43.802 C 359.649 44.106,359.596 44.354,359.472 44.354 C 359.348 44.354,359.183 44.599,359.105 44.898 C 359.026 45.200,359.076 45.373,359.217 45.286 C 359.357 45.199,359.682 45.355,359.940 45.631 C 360.197 45.908,360.319 46.018,360.211 45.876 C 360.102 45.734,360.153 45.449,360.325 45.243 C 360.563 44.955,360.554 44.887,360.284 44.951 C 359.685 45.092,359.663 44.408,360.256 44.090 C 360.722 43.841,360.816 43.870,360.816 44.263 C 360.816 44.643,360.883 44.668,361.156 44.390 C 361.429 44.114,361.403 43.976,361.025 43.696 C 360.765 43.504,360.632 43.268,360.730 43.170 C 360.984 42.916,360.747 42.959,360.285 43.252 M357.347 45.773 C 357.436 46.003,357.371 46.330,357.203 46.497 C 356.978 46.723,357.072 46.797,357.565 46.781 C 357.931 46.769,358.085 46.700,357.906 46.628 C 357.728 46.555,357.644 46.332,357.721 46.132 C 357.798 45.933,357.709 45.676,357.523 45.561 C 357.294 45.419,357.238 45.486,357.347 45.773 M355.054 48.931 C 354.669 49.087,354.653 49.190,354.953 49.599 C 355.282 50.046,355.318 50.031,355.439 49.395 C 355.512 49.017,355.557 48.716,355.540 48.727 C 355.524 48.737,355.305 48.829,355.054 48.931 M352.984 52.766 C 353.004 53.457,353.069 53.520,353.493 53.256 C 353.760 53.089,353.917 52.852,353.841 52.730 C 353.766 52.608,353.591 52.578,353.454 52.663 C 353.316 52.748,353.276 52.627,353.366 52.395 C 353.455 52.163,353.400 51.973,353.245 51.973 C 353.089 51.973,352.972 52.330,352.984 52.766 M356.199 54.417 C 356.006 54.536,355.933 54.769,356.036 54.936 C 356.304 55.369,357.279 55.309,357.279 54.859 C 357.279 54.383,356.662 54.130,356.199 54.417 M349.660 55.374 C 349.248 55.610,349.141 55.768,349.388 55.777 C 349.745 55.789,349.746 55.822,349.396 56.044 C 349.175 56.183,349.100 56.395,349.229 56.516 C 349.357 56.636,349.517 56.583,349.583 56.397 C 349.668 56.158,349.849 56.137,350.197 56.323 C 350.554 56.514,350.784 56.476,351.025 56.185 C 351.209 55.963,351.528 55.782,351.734 55.782 C 351.940 55.782,352.109 55.664,352.109 55.519 C 352.109 55.374,351.938 55.321,351.728 55.401 C 351.519 55.482,351.267 55.417,351.168 55.257 C 350.928 54.869,350.482 54.904,349.660 55.374 M351.293 55.645 C 351.293 55.684,351.085 55.884,350.832 56.089 C 350.439 56.408,350.406 56.406,350.605 56.076 C 350.778 55.788,350.725 55.733,350.393 55.860 C 350.149 55.954,349.883 55.924,349.803 55.794 C 349.615 55.489,350.201 55.291,350.816 55.450 C 351.078 55.518,351.293 55.606,351.293 55.645 M354.276 56.675 C 354.046 56.858,353.902 57.221,353.956 57.483 C 354.017 57.783,353.888 57.959,353.606 57.959 C 352.966 57.959,352.278 58.682,352.724 58.887 C 352.909 58.973,352.786 58.974,352.449 58.891 C 352.037 58.788,351.837 58.861,351.837 59.114 C 351.837 59.746,350.376 60.662,349.844 60.364 C 349.270 60.043,348.719 60.332,349.065 60.773 C 349.377 61.169,349.378 62.067,349.066 61.874 C 348.939 61.795,348.900 61.626,348.980 61.497 C 349.059 61.368,348.981 61.173,348.806 61.065 C 348.613 60.946,348.560 60.986,348.671 61.166 C 348.772 61.329,348.658 61.574,348.417 61.708 C 348.176 61.843,347.989 62.035,348.003 62.133 C 348.081 62.706,347.989 62.866,347.687 62.685 C 347.415 62.522,347.415 62.565,347.686 62.899 C 347.980 63.263,347.880 63.318,346.924 63.318 C 346.094 63.318,345.860 63.224,345.970 62.937 C 346.051 62.728,346.026 62.612,345.915 62.678 C 345.805 62.745,345.543 62.615,345.335 62.390 C 345.002 62.030,345.035 62.004,345.606 62.186 C 345.964 62.299,346.391 62.577,346.556 62.802 C 346.723 63.030,346.926 63.097,347.015 62.953 C 347.264 62.552,346.828 62.041,346.122 61.905 C 345.770 61.837,345.366 61.666,345.225 61.524 C 344.907 61.206,344.195 61.432,343.741 61.995 C 343.368 62.459,343.283 63.148,343.605 63.097 C 344.513 62.954,345.146 63.160,344.661 63.441 C 344.289 63.658,344.100 63.652,343.957 63.420 C 343.816 63.191,343.665 63.220,343.412 63.525 C 343.220 63.756,342.932 63.946,342.772 63.946 C 342.612 63.946,342.719 63.764,343.009 63.541 C 343.492 63.171,343.462 63.162,342.653 63.432 C 342.166 63.594,341.687 63.858,341.588 64.019 C 341.474 64.202,341.575 64.246,341.860 64.136 C 342.109 64.041,342.313 64.072,342.313 64.206 C 342.313 64.340,342.112 64.489,341.867 64.538 C 341.598 64.591,341.386 64.950,341.334 65.439 C 341.287 65.887,341.334 66.132,341.440 65.984 C 341.546 65.836,341.939 65.687,342.313 65.653 C 342.687 65.620,342.840 65.660,342.653 65.744 C 342.466 65.827,342.313 66.149,342.313 66.459 C 342.313 67.016,342.319 67.015,342.833 66.423 C 343.151 66.055,343.421 65.934,343.529 66.109 C 343.626 66.266,343.576 66.395,343.417 66.395 C 343.259 66.395,343.129 66.576,343.129 66.798 C 343.129 67.237,341.861 67.675,341.552 67.342 C 341.447 67.229,341.514 67.082,341.701 67.015 C 341.888 66.948,342.041 66.705,342.041 66.475 C 342.041 66.133,341.965 66.118,341.633 66.395 C 341.408 66.581,341.224 66.902,341.224 67.108 C 341.224 67.314,341.102 67.483,340.952 67.483 C 340.803 67.483,340.678 67.330,340.676 67.143 C 340.673 66.907,340.596 66.922,340.425 67.193 C 340.210 67.533,340.115 67.533,339.703 67.193 C 339.264 66.832,339.241 66.870,339.403 67.687 C 339.511 68.231,339.469 68.571,339.295 68.571 C 339.139 68.571,339.085 68.806,339.176 69.093 C 339.372 69.710,338.903 70.113,338.677 69.522 C 338.443 68.913,337.988 69.032,338.152 69.660 C 338.313 70.273,339.261 70.402,339.476 69.841 C 339.587 69.553,340.408 69.290,340.408 69.542 C 340.408 69.902,338.595 70.665,338.308 70.427 C 337.888 70.078,337.048 70.647,337.324 71.094 C 337.440 71.281,337.200 71.318,336.619 71.201 C 335.979 71.073,335.771 71.117,335.857 71.363 C 335.922 71.549,336.330 71.675,336.763 71.644 C 337.197 71.612,337.397 71.653,337.209 71.735 C 337.021 71.816,336.949 72.016,337.050 72.178 C 337.172 72.377,337.061 72.402,336.711 72.254 C 335.837 71.887,335.102 71.944,335.102 72.381 C 335.102 72.897,334.413 73.449,333.978 73.282 C 333.776 73.204,333.684 73.348,333.742 73.652 C 333.794 73.926,333.845 74.249,333.857 74.370 C 333.868 74.491,334.019 74.503,334.192 74.396 C 334.392 74.272,334.432 74.322,334.301 74.534 C 334.146 74.784,333.974 74.756,333.600 74.417 C 333.132 73.993,333.108 74.007,333.179 74.651 C 333.295 75.703,332.979 76.039,332.247 75.647 C 331.893 75.458,331.709 75.439,331.810 75.602 C 331.906 75.758,331.767 76.007,331.502 76.157 C 331.092 76.388,331.077 76.482,331.400 76.786 C 331.667 77.036,331.724 77.042,331.590 76.806 C 331.459 76.572,331.543 76.524,331.867 76.648 C 332.171 76.764,332.269 76.722,332.149 76.528 C 332.047 76.363,332.088 76.151,332.240 76.057 C 332.393 75.963,332.519 76.108,332.521 76.378 C 332.524 76.758,332.579 76.787,332.759 76.502 C 332.924 76.242,333.049 76.223,333.181 76.435 C 333.363 76.731,332.971 76.988,332.158 77.108 C 331.936 77.140,331.553 77.335,331.305 77.541 C 331.057 77.747,330.875 77.803,330.901 77.665 C 331.005 77.118,330.866 77.002,330.506 77.336 C 330.232 77.590,330.214 77.742,330.438 77.887 C 330.662 78.031,330.653 78.088,330.408 78.091 C 330.221 78.093,330.059 78.310,330.049 78.571 C 330.033 78.979,329.996 78.969,329.796 78.503 C 329.667 78.204,329.553 78.119,329.543 78.315 C 329.532 78.511,329.401 78.596,329.252 78.503 C 329.102 78.411,328.980 78.465,328.980 78.623 C 328.980 78.782,329.133 78.913,329.320 78.916 C 329.565 78.919,329.555 78.986,329.284 79.158 C 329.019 79.325,328.961 79.677,329.085 80.342 C 329.262 81.287,329.261 81.288,328.265 81.256 C 327.194 81.222,326.846 81.785,327.353 82.732 C 327.553 83.107,327.479 83.175,326.936 83.115 C 326.572 83.076,326.302 83.124,326.335 83.222 C 326.368 83.321,326.272 83.401,326.122 83.401 C 325.973 83.401,325.879 83.314,325.915 83.207 C 325.951 83.100,325.787 83.087,325.552 83.177 C 325.242 83.296,325.214 83.396,325.450 83.542 C 325.695 83.693,325.683 83.780,325.405 83.891 C 325.153 83.991,325.192 84.046,325.526 84.060 C 325.797 84.072,325.942 84.206,325.848 84.358 C 325.754 84.510,325.543 84.552,325.381 84.452 C 325.189 84.334,325.136 84.466,325.230 84.825 C 325.448 85.661,324.972 86.265,324.597 85.627 C 324.315 85.148,324.292 85.148,323.901 85.627 C 323.679 85.900,323.569 85.978,323.658 85.801 C 323.746 85.624,323.675 85.391,323.500 85.283 C 323.301 85.160,323.254 85.204,323.375 85.400 C 323.482 85.573,323.426 85.714,323.251 85.714 C 323.076 85.714,323.222 85.959,323.575 86.259 C 324.097 86.701,324.119 86.769,323.694 86.620 C 323.272 86.472,323.207 86.530,323.357 86.922 C 323.498 87.289,323.439 87.368,323.118 87.244 C 322.884 87.155,322.748 87.171,322.815 87.282 C 322.882 87.393,322.613 87.719,322.217 88.009 C 321.498 88.533,321.497 88.533,321.973 87.987 C 322.591 87.277,322.574 87.093,321.908 87.267 C 321.610 87.345,321.434 87.517,321.516 87.650 C 321.598 87.783,321.546 87.891,321.401 87.891 C 321.078 87.891,321.165 88.681,321.516 88.933 C 321.916 89.222,321.911 89.705,321.507 89.705 C 321.306 89.705,321.200 89.551,321.272 89.362 C 321.361 89.129,321.222 89.067,320.838 89.167 C 320.147 89.348,320.114 89.677,320.748 90.046 C 321.013 90.200,321.073 90.327,320.884 90.332 C 320.697 90.336,320.575 90.478,320.612 90.646 C 320.650 90.815,320.527 91.009,320.340 91.077 C 320.153 91.146,320.000 91.062,320.000 90.891 C 320.000 90.720,319.878 90.656,319.728 90.748 C 319.578 90.841,319.456 90.794,319.456 90.644 C 319.456 90.224,319.940 90.024,320.063 90.393 C 320.148 90.648,320.218 90.649,320.374 90.395 C 320.485 90.215,320.447 90.068,320.288 90.068 C 320.130 90.068,320.000 89.803,320.000 89.478 C 320.000 89.154,319.910 88.979,319.799 89.090 C 319.689 89.200,319.597 89.496,319.595 89.747 C 319.593 89.998,319.430 90.170,319.231 90.129 C 318.984 90.078,318.925 90.227,319.045 90.605 C 319.180 91.030,319.059 91.217,318.515 91.424 C 318.127 91.572,317.738 91.877,317.652 92.103 C 317.565 92.329,317.386 92.447,317.254 92.365 C 317.121 92.284,317.084 92.401,317.170 92.626 C 317.295 92.951,317.460 92.884,317.975 92.300 C 318.331 91.896,318.626 91.705,318.631 91.876 C 318.636 92.047,318.456 92.257,318.231 92.343 C 318.006 92.430,317.821 92.838,317.819 93.257 C 317.817 93.673,317.725 93.880,317.615 93.718 C 317.505 93.555,317.127 93.349,316.776 93.260 C 316.424 93.171,316.209 93.171,316.298 93.259 C 316.387 93.348,316.208 93.597,315.901 93.812 C 315.460 94.120,315.381 94.376,315.524 95.027 C 315.636 95.540,315.604 95.788,315.437 95.685 C 315.289 95.593,315.170 95.834,315.170 96.226 C 315.170 97.050,314.670 97.443,313.816 97.290 C 313.483 97.230,313.231 97.264,313.258 97.366 C 313.284 97.468,313.210 97.832,313.093 98.176 C 312.961 98.564,313.005 98.952,313.208 99.197 C 313.580 99.644,313.379 99.706,312.703 99.352 C 312.163 99.069,311.020 99.434,311.020 99.888 C 311.020 100.105,311.168 100.088,311.497 99.834 C 311.950 99.483,311.950 99.492,311.497 100.026 C 311.235 100.335,311.020 100.856,311.020 101.184 C 311.020 101.760,310.996 101.765,310.336 101.332 C 309.688 100.909,309.661 100.911,309.839 101.373 C 309.977 101.735,309.922 101.823,309.627 101.710 C 309.149 101.527,308.991 102.476,309.451 102.760 C 309.653 102.885,309.687 102.777,309.556 102.434 C 309.447 102.152,309.446 102.008,309.552 102.115 C 309.659 102.221,309.896 102.184,310.079 102.032 C 310.521 101.665,310.801 102.354,310.425 102.882 C 310.209 103.185,310.185 103.166,310.306 102.789 C 310.390 102.527,310.341 102.313,310.196 102.313 C 309.955 102.313,309.823 102.697,309.896 103.187 C 309.912 103.294,309.743 103.312,309.521 103.226 C 309.298 103.141,309.116 103.193,309.116 103.343 C 309.116 103.493,308.918 103.691,308.677 103.783 C 308.363 103.904,308.284 103.835,308.397 103.541 C 308.483 103.314,308.436 103.129,308.291 103.129 C 308.146 103.129,308.027 103.252,308.027 103.401 C 308.027 103.551,307.935 103.659,307.823 103.641 C 307.014 103.513,306.878 103.701,307.373 104.264 C 307.658 104.590,307.717 104.753,307.505 104.628 C 307.220 104.460,307.162 104.514,307.285 104.833 C 307.378 105.077,307.256 105.424,307.006 105.626 C 306.733 105.848,306.636 105.863,306.755 105.665 C 306.861 105.488,306.840 105.277,306.709 105.196 C 306.577 105.115,306.491 105.321,306.517 105.653 C 306.587 106.545,306.447 106.673,305.716 106.395 C 305.101 106.161,305.073 106.189,305.302 106.793 C 305.488 107.281,305.439 107.530,305.103 107.802 C 304.782 108.063,304.714 108.068,304.862 107.823 C 305.160 107.326,304.344 107.395,303.829 107.911 C 303.594 108.146,303.388 108.483,303.371 108.659 C 303.137 111.127,302.803 111.812,302.114 111.241 C 301.685 110.884,301.089 111.541,301.088 112.373 C 301.087 112.593,300.813 112.911,300.477 113.078 C 300.142 113.245,299.958 113.489,300.070 113.621 C 300.181 113.752,300.069 113.705,299.820 113.515 C 299.481 113.257,299.319 113.250,299.173 113.487 C 299.066 113.660,299.126 113.894,299.307 114.006 C 299.543 114.151,299.432 114.430,298.917 114.985 C 298.364 115.583,298.147 115.678,297.973 115.397 C 297.849 115.196,297.606 115.120,297.432 115.227 C 297.197 115.373,297.206 115.533,297.470 115.859 C 297.762 116.220,297.760 116.257,297.454 116.073 C 297.175 115.905,297.127 115.984,297.258 116.396 C 297.375 116.766,297.287 116.998,296.984 117.114 C 296.601 117.261,296.590 117.352,296.908 117.748 C 297.178 118.084,297.057 118.055,296.463 117.639 C 295.787 117.167,295.588 117.131,295.309 117.432 C 295.123 117.631,295.081 117.862,295.215 117.945 C 295.474 118.105,295.294 119.169,295.002 119.204 C 294.907 119.216,294.585 119.284,294.286 119.356 C 293.986 119.429,293.600 119.501,293.427 119.517 C 293.254 119.533,293.180 119.720,293.261 119.932 C 293.383 120.249,293.450 120.253,293.639 119.955 C 293.819 119.671,293.870 119.668,293.873 119.941 C 293.876 120.132,293.694 120.360,293.469 120.446 C 293.245 120.532,293.061 120.780,293.061 120.998 C 293.061 121.215,293.184 121.317,293.333 121.224 C 293.951 120.843,293.549 121.335,292.892 121.766 C 292.499 122.023,292.261 122.098,292.364 121.933 C 292.642 121.482,292.090 121.572,291.701 122.041 C 291.467 122.323,291.456 122.449,291.667 122.449 C 291.835 122.449,291.735 122.687,291.443 122.978 C 291.018 123.404,290.961 123.671,291.152 124.339 C 291.401 125.205,291.198 125.329,289.761 125.190 C 289.518 125.166,289.244 125.342,289.152 125.581 C 289.055 125.834,289.099 125.945,289.257 125.847 C 289.409 125.753,289.389 125.984,289.210 126.377 C 289.035 126.761,288.759 127.093,288.596 127.116 C 288.433 127.139,288.177 127.186,288.027 127.221 C 287.878 127.256,287.613 127.298,287.439 127.316 C 287.263 127.333,287.158 127.669,287.202 128.073 C 287.310 129.048,286.837 129.523,286.054 129.226 C 285.584 129.047,285.442 129.090,285.442 129.411 C 285.442 129.657,285.571 129.748,285.756 129.634 C 285.951 129.514,285.997 129.559,285.876 129.754 C 285.770 129.927,285.475 130.070,285.222 130.072 C 284.936 130.075,284.875 130.152,285.061 130.276 C 285.697 130.702,285.383 131.372,284.604 131.249 C 284.193 131.184,283.777 131.261,283.679 131.420 C 283.580 131.579,283.355 131.623,283.178 131.517 C 283.002 131.411,283.029 131.536,283.238 131.794 C 283.576 132.211,283.525 132.342,282.780 132.959 C 282.297 133.360,282.003 133.817,282.088 134.038 C 282.190 134.304,282.038 134.416,281.594 134.403 C 281.135 134.389,281.070 134.331,281.366 134.199 C 281.827 133.993,281.900 133.499,281.521 133.152 C 281.380 133.022,281.349 133.058,281.450 133.234 C 281.547 133.405,281.444 133.695,281.221 133.880 C 280.898 134.148,280.816 134.145,280.816 133.866 C 280.816 133.673,280.735 133.596,280.637 133.694 C 280.538 133.793,280.672 134.111,280.934 134.402 C 281.197 134.692,281.451 135.355,281.499 135.875 C 281.548 136.396,281.720 137.069,281.882 137.372 C 282.044 137.675,282.177 138.164,282.177 138.457 C 282.177 138.750,282.488 139.279,282.869 139.631 C 283.250 139.984,283.738 140.599,283.954 140.999 C 284.169 141.399,284.807 142.261,285.370 142.914 C 285.934 143.567,286.578 144.370,286.803 144.697 C 287.734 146.057,289.340 145.829,290.453 144.180 C 291.701 142.330,292.540 141.187,293.514 140.007 C 293.938 139.493,294.742 138.485,295.300 137.767 C 295.857 137.050,296.745 135.931,297.272 135.280 C 297.800 134.630,298.231 133.988,298.231 133.852 C 298.231 133.717,298.660 133.152,299.184 132.597 C 299.707 132.042,300.136 131.448,300.136 131.278 C 300.136 131.108,300.397 130.735,300.717 130.450 C 301.396 129.844,303.300 127.405,304.082 126.141 C 304.381 125.657,305.313 124.475,306.153 123.515 C 306.992 122.554,307.810 121.519,307.968 121.214 C 308.127 120.908,309.124 119.569,310.183 118.238 C 311.242 116.908,312.109 115.702,312.109 115.559 C 312.109 115.416,312.598 114.734,313.195 114.044 C 315.745 111.098,315.567 111.328,317.738 108.163 C 318.148 107.565,318.856 106.621,319.310 106.066 C 319.764 105.511,320.539 104.531,321.031 103.889 C 321.523 103.247,322.319 102.217,322.800 101.600 C 323.280 100.984,324.163 99.775,324.762 98.915 C 325.816 97.401,327.011 95.855,328.657 93.878 C 329.093 93.354,329.647 92.539,329.889 92.067 C 330.130 91.594,330.487 91.043,330.683 90.842 C 330.878 90.641,331.337 90.048,331.703 89.524 C 332.068 89.000,332.738 88.191,333.190 87.725 C 334.121 86.768,334.822 85.822,337.602 81.769 C 338.438 80.549,339.742 78.940,340.957 77.627 C 341.404 77.145,341.769 76.582,341.769 76.376 C 341.769 76.171,342.011 75.784,342.306 75.516 C 342.602 75.249,343.116 74.465,343.450 73.774 C 343.784 73.082,344.460 72.135,344.954 71.669 C 345.447 71.202,345.850 70.623,345.850 70.383 C 345.850 70.143,346.218 69.756,346.667 69.524 C 347.171 69.263,347.483 68.888,347.483 68.544 C 347.483 68.237,347.824 67.644,348.241 67.227 C 348.658 66.810,349.229 65.959,349.510 65.337 C 349.791 64.714,350.330 64.055,350.709 63.871 C 351.129 63.667,351.487 63.189,351.627 62.642 C 351.769 62.094,352.117 61.629,352.528 61.442 C 352.896 61.274,353.197 60.966,353.197 60.758 C 353.197 60.051,354.297 57.959,354.669 57.959 C 354.986 57.959,355.358 57.201,355.370 56.531 C 355.376 56.220,354.745 56.303,354.276 56.675 M349.266 57.120 C 349.153 57.302,349.135 57.525,349.224 57.614 C 349.314 57.704,349.388 57.612,349.388 57.408 C 349.388 57.171,349.527 57.228,349.776 57.567 C 350.144 58.067,350.175 58.069,350.354 57.607 C 350.458 57.339,350.467 57.043,350.374 56.950 C 350.280 56.856,350.204 57.008,350.204 57.286 C 350.204 57.776,350.193 57.776,349.837 57.290 C 349.569 56.922,349.416 56.877,349.266 57.120 M347.773 58.074 C 347.551 58.342,347.544 58.509,347.749 58.635 C 347.909 58.735,348.023 58.715,348.002 58.592 C 347.906 58.042,348.058 57.858,348.299 58.231 C 348.458 58.477,348.565 58.510,348.567 58.315 C 348.574 57.798,348.117 57.659,347.773 58.074 M346.361 59.320 C 346.342 59.469,346.310 59.745,346.290 59.932 C 346.269 60.121,345.982 60.234,345.643 60.187 C 345.220 60.128,345.034 60.242,345.034 60.560 C 345.034 60.937,345.107 60.959,345.442 60.680 C 345.667 60.494,345.850 60.442,345.850 60.565 C 345.850 60.688,345.996 60.644,346.173 60.466 C 346.501 60.138,346.775 59.048,346.529 59.048 C 346.455 59.048,346.379 59.170,346.361 59.320 M345.552 64.240 C 345.307 64.395,345.286 64.483,345.493 64.486 C 345.671 64.488,345.798 64.735,345.776 65.034 C 345.753 65.333,345.596 65.578,345.426 65.578 C 345.256 65.578,345.004 65.832,344.866 66.142 C 344.622 66.687,344.590 66.679,343.870 65.870 C 343.199 65.117,343.177 65.034,343.653 65.034 C 343.943 65.034,344.249 64.820,344.332 64.558 C 344.421 64.278,344.783 64.064,345.209 64.040 C 345.727 64.010,345.825 64.067,345.552 64.240 M344.635 64.824 C 344.727 65.063,344.608 65.307,344.352 65.405 C 343.943 65.562,344.012 66.122,344.440 66.122 C 344.945 66.122,345.278 65.077,344.880 64.747 C 344.552 64.474,344.506 64.489,344.635 64.824 M343.946 66.897 C 343.946 67.237,342.975 68.054,342.790 67.869 C 342.702 67.781,342.834 67.485,343.084 67.211 C 343.578 66.668,343.946 66.534,343.946 66.897 M336.762 72.782 C 336.926 73.006,337.140 73.109,337.238 73.012 C 337.335 72.914,337.415 72.977,337.415 73.152 C 337.415 73.629,336.935 73.533,336.620 72.993 C 336.383 72.586,336.342 72.626,336.335 73.265 C 336.330 73.677,336.221 74.014,336.092 74.014 C 335.963 74.014,335.910 73.677,335.974 73.265 C 336.082 72.571,336.055 72.585,335.599 73.465 C 335.212 74.212,335.087 74.306,335.010 73.906 C 334.956 73.627,335.051 73.313,335.221 73.208 C 335.390 73.103,335.452 72.818,335.358 72.574 C 335.138 72.001,336.316 72.175,336.762 72.782 M330.857 78.980 C 330.392 79.873,330.313 79.909,330.450 79.167 C 330.517 78.802,330.581 78.473,330.592 78.435 C 330.603 78.398,330.739 78.367,330.894 78.367 C 331.077 78.367,331.064 78.581,330.857 78.980 M323.133 88.170 C 323.228 88.323,323.144 88.415,322.945 88.374 C 322.745 88.333,322.602 88.511,322.623 88.776 C 322.644 89.037,322.552 89.252,322.419 89.252 C 322.069 89.252,322.122 88.599,322.503 88.218 C 322.900 87.821,322.917 87.820,323.133 88.170 M316.525 94.150 C 316.204 94.449,315.844 94.690,315.726 94.685 C 315.487 94.675,316.702 93.605,316.952 93.605 C 317.039 93.605,316.847 93.850,316.525 94.150 M308.653 104.670 C 308.536 104.975,308.583 105.059,308.797 104.927 C 308.972 104.818,309.116 104.859,309.116 105.018 C 309.116 105.425,308.696 105.376,308.321 104.924 C 308.020 104.561,308.064 104.493,308.767 104.239 C 308.800 104.227,308.748 104.421,308.653 104.670 M161.212 185.986 C 161.723 188.350,161.950 190.001,161.828 190.468 C 161.749 190.772,161.812 191.020,161.970 191.020 C 162.382 191.020,162.043 187.520,161.519 186.373 C 161.285 185.861,161.147 185.687,161.212 185.986 " stroke="none" fill="#0c94c1" fill-rule="evenodd"></path></g></svg>